<?xml version="1.0" encoding="utf-8"?>
<!-- Generator: Adobe Illustrator 16.0.0, SVG Export Plug-In . SVG Version: 6.00 Build 0)  -->
<!DOCTYPE svg PUBLIC "-//W3C//DTD SVG 1.1//EN" "http://www.w3.org/Graphics/SVG/1.1/DTD/svg11.dtd">
<svg version="1.1" id="Layer_1" xmlns="http://www.w3.org/2000/svg" xmlns:xlink="http://www.w3.org/1999/xlink" x="0px" y="0px"
	 width="720px" height="503.999px" viewBox="0 0 720 503.999" enable-background="new 0 0 720 503.999" xml:space="preserve">
<symbol  id="New_Symbol" viewBox="-0.763 -0.763 1.526 1.525">
	<path fill="#FFFFFF" d="M0.763,0c0-0.421-0.342-0.762-0.763-0.762S-0.763-0.421-0.763,0S-0.421,0.763,0,0.763S0.763,0.42,0.763,0z"
		/>
</symbol>
<linearGradient id="SVGID_1_" gradientUnits="userSpaceOnUse" x1="359.9995" y1="0" x2="359.9995" y2="499.189">
	<stop  offset="0" style="stop-color:#17122A"/>
	<stop  offset="0.1607" style="stop-color:#271938"/>
	<stop  offset="0.1705" style="stop-color:#281939"/>
	<stop  offset="0.2641" style="stop-color:#381F40"/>
	<stop  offset="0.4247" style="stop-color:#5C2D51"/>
	<stop  offset="0.4779" style="stop-color:#6C3A58"/>
	<stop  offset="0.5818" style="stop-color:#965B69"/>
	<stop  offset="0.7022" style="stop-color:#CD8780"/>
	<stop  offset="0.7551" style="stop-color:#D5978B"/>
	<stop  offset="0.858" style="stop-color:#E8C0A8"/>
	<stop  offset="0.889" style="stop-color:#EFCEB1"/>
</linearGradient>
<rect fill="url(#SVGID_1_)" width="720" height="499.188"/>
<polygon fill="#754A64" points="114.886,326.341 233.088,287.12 344.336,351.316 464.388,285.995 556.388,345.763 638.588,274.407 
	717.544,336 717.544,370.795 141.997,370.795 "/>
<polygon fill="#754A64" points="218.784,321.72 133.447,343.883 148.932,368.27 360,367.938 "/>
<polygon fill="#3C5F7C" points="134.189,369.019 595.055,368.486 563.979,409.99 363.598,426.405 162.333,410.005 "/>
<g opacity="0.5">
	<polygon fill="#3F2C36" points="351.709,362.944 356.928,365.379 359.566,363.371 361.015,365.379 362.462,363.69 364.164,365.379 
		365.526,361.591 367.739,365.604 369.868,363.782 371.826,365.604 373.7,361.271 375.913,365.882 380.054,364.947 383.576,365.882 
		385.535,365.06 388.429,366.807 392.176,367.754 394.551,369.153 351.711,369.009 	"/>
	<path fill="#3F2C36" d="M141.997,369.019c0.146-0.145,2.235-10.412,2.527-10.219c0.292,0.193,1.75,3.473,1.75,3.473l0,0
		l4.084-6.705l1.459,2.413l1.312-0.098c0,0,1.021,2.942,1.021,3.038c0,0.097,0.729-1.35,0.729-1.35l1.313,1.495l1.021-1.688
		l1.021,1.108l3.209-6.704l2.042,5.499l5.021-10.542l5.919,5.622l1.459-2.363l1.021,3.473l1.459-2.267l2.188,3.858l2.188-5.595
		l1.021,6.703l1.75-2.17l1.896,1.688l2.333-6.463l2.772,6.125l2.188-3.231l2.479,3.665l1.021-1.688l1.021,2.122l1.167-2.025
		l0.875,1.736l1.313-2.75l1.313,2.846c0,0,1.604-1.108,1.75-0.964c0.146,0.145,3.21,4.438,3.21,4.438l1.312-1.593
		c0,0,1.897,2.604,1.897,2.702c0,0.096,2.188-2.798,1.75-2.702l1.604,1.352l1.167-3.088l1.604,2.171l1.458-1.641l0.875,1.641
		l1.458-4.727l2.479,5.161c0,0,1.313-1.93,1.605-1.784c0.292,0.145,1.75,3.424,1.75,3.424l1.314-1.399l0.729,2.219l1.167-1.351
		l1.459,3.232l1.458-0.724l1.312,0.578l1.167-4.1l2.042,1.93l1.75-7.041l1.75,3.761l1.605-2.266l2.042,4.05l1.166-0.915l1.75,1.784
		l1.256,6.832L141.997,369.019z"/>
	<path fill="#3F2C36" d="M385.287,362.813l5.218,2.436l2.639-2.009l1.448,2.009l1.447-1.689l1.703,1.689l1.363-3.79l2.213,4.014
		l2.129-1.821l1.958,1.821l1.872-4.333l2.215,4.611l4.139-0.935l3.523,0.935l1.958-0.821l4.44-1.77c0,0,3.551-0.545,5.114,0.737
		s2.778,4.761,2.778,4.761l-45.74,0.495L385.287,362.813z"/>
	<path fill="#3F2C36" d="M244.347,368.959c0.146-0.146,3.063-8.924,3.355-8.729c0.292,0.192,1.75,3.473,1.75,3.473l0,0l4.084-6.705
		l1.459,2.412l1.312-0.097c0,0,1.021,2.941,1.021,3.039c0,0.096,0.729-1.351,0.729-1.351l1.313,1.495l1.021-1.688l1.021,1.109
		l3.209-6.704l5.711,6.334l4.608-11.525l2.662,5.771l1.459-2.365l1.02,3.474l1.459-2.268l2.188,3.859l2.188-5.595l1.021,6.703
		l1.75-2.17l1.896,1.688l2.334-6.463l2.771,6.125l2.188-3.232l2.479,3.666l1.021-1.688l1.021,2.122l1.167-2.025l0.874,1.736
		l1.313-2.749l1.313,2.845c0,0,1.604-1.109,1.749-0.964c0.147,0.144,3.21,4.437,3.21,4.437l1.312-1.592c0,0,1.897,2.604,1.897,2.702
		c0,0.096,2.187-2.798,1.749-2.702l1.605,1.351l1.167-3.087l1.604,2.171l1.459-1.64l0.875,1.64l1.459-4.727l2.479,5.16
		c0,0,1.313-1.93,1.605-1.784c0.292,0.145,1.749,3.425,1.749,3.425l1.315-1.399l0.728,2.22l1.167-1.352l1.46,3.231l1.457-0.724
		l1.313,0.58l1.167-4.101l2.041,1.931l1.751-7.043l1.75,3.762l1.605-2.267l2.042,4.051l1.166-0.916l1.75,1.784l1.771,5.414
		L244.347,368.959z"/>
</g>
<polygon fill="#3F2C36" points="637.848,362.035 643.066,364.47 645.705,362.462 647.153,364.47 648.601,362.781 650.303,364.47 
	651.665,360.682 653.878,364.694 656.007,362.873 657.965,364.694 659.839,360.361 662.052,364.973 666.192,364.038 
	669.715,364.973 671.674,364.15 674.567,365.897 678.314,366.845 680.689,368.244 637.85,368.1 "/>
<path opacity="0.8" fill="#33556D" d="M144.933,368.27l220.673,0.884l3.605-0.011l207.191-0.635l1.785,6.355
	c0,0-113.814-2.742-128.501-3.178s-208.687-0.564-209.937,0s-90.818,3.178-90.818,3.178L144.933,368.27z"/>
<polygon opacity="0.8" fill="#33556D" points="157.281,396.619 169.667,406.85 379.176,427.267 560.258,405.42 570.027,394.866 
	382.351,420.339 "/>
<path opacity="0.5" fill="#3F2C36" d="M431.445,368.658c0.146-0.145,1.22-10.646,1.511-10.453c0.292,0.193,1.75,3.473,1.75,3.473
	l0,0l4.085-6.705l1.459,2.413l1.312-0.098c0,0,1.021,2.942,1.021,3.038c0,0.097,0.729-1.35,0.729-1.35l1.313,1.495l1.02-1.688
	l1.021,1.108l3.21-6.704l2.104,7.487l3.271-3.732l2.043,2.576l3.5-8.903l1.667,4.531l1.856-3.743l1.021,3.473l1.459-2.267
	l2.188,3.858l2.188-5.595l1.021,6.703l1.75-2.17l1.896,1.688l2.333-6.463l2.772,6.125l2.188-3.231l2.479,3.665l1.021-1.688
	l1.021,2.122l1.166-2.025l0.875,1.736l1.313-2.75l1.313,2.846c0,0,1.604-1.108,1.749-0.964c0.146,0.145,3.21,4.438,3.21,4.438
	l1.312-1.593c0,0,1.896,2.604,1.896,2.702c0,0.096,2.188-2.798,1.75-2.702l1.605,1.352l1.166-3.088l1.604,2.171l1.458-1.641
	l0.876,1.641l1.458-4.727l2.479,5.161c0,0,1.313-1.93,1.604-1.784c0.292,0.145,1.75,3.424,1.75,3.424l1.314-1.399l0.729,2.219
	l1.167-1.351l1.46,3.232l1.458-0.724l1.312,0.578l1.167-4.1l2.041,1.93l1.751-7.041l1.75,3.761l1.605-2.266l2.042,4.05l1.166-0.915
	l1.75,1.784l1.257,6.832L431.445,368.658z"/>
<polygon fill="#3F2C36" points="671.426,361.904 676.644,364.34 679.282,362.331 680.73,364.34 682.178,362.65 683.881,364.34 
	685.244,360.55 687.457,364.563 689.586,362.742 691.544,364.563 693.416,360.23 695.631,364.842 699.77,363.907 703.293,364.842 
	705.251,364.021 709.691,362.251 712.148,361.247 717.584,368.874 671.844,368.244 "/>
<polygon fill="#151C30" points="0,352.346 84.648,396.541 360,423.082 597.107,402.17 720,361.585 720,503.999 0,503.999 "/>
<path fill="#101721" d="M152.839,403.465l58.828,6.173l5.01,10.701l-21.515,1.329l2.396,13.245
	c-5.225,6.754-44.72-2.789-44.72-2.789s5.458,8.329,8.161,9.862s-20.541,8.104-20.541,8.104L161,458.156l-17.853,15.538
	c0,0-7.204,7.559,14.133,10.8c34.053,5.173-39.488,19.505-39.488,19.505L0,503.188v-42.933L152.839,403.465z"/>
<polygon fill="#805066" points="466.506,286.393 461.837,292.867 468.839,299.342 461.837,299.342 461.837,306.57 457.423,309.054 
	479.84,327.496 504.055,348.212 595.055,366.901 585.172,353.079 "/>
<path opacity="0.5" fill="#3F2C36" d="M537.379,368.688c0.146-0.187,2.236-13.404,2.527-13.155c0.292,0.249,1.75,4.471,1.75,4.471
	l0,0l4.085-8.632l1.459,3.106l1.312-0.126c0,0,1.021,3.788,1.021,3.911c0,0.125,0.729-1.737,0.729-1.737l1.313,1.925l1.02-2.173
	l1.021,1.428l3.21-8.631l2.104,9.639l3.271-4.805l2.043,3.316l3.5-11.462l1.667,5.833l1.856-4.818l1.021,4.471l1.459-2.918
	l2.188,4.967l2.188-7.202l1.021,8.629l1.75-2.793l1.896,2.174l2.333-8.32l2.772,7.885l2.188-4.16l2.479,4.719l1.021-2.173
	l1.021,2.732l1.166-2.607l0.875,2.235l1.313-3.541l1.313,3.664c0,0,1.604-1.427,1.749-1.241c0.146,0.187,3.21,5.713,3.21,5.713
	l1.312-2.051c0,0,1.896,3.354,1.896,3.479c0,0.123,2.188-3.602,1.75-3.479l1.605,1.74l1.166-3.976l1.604,2.795l1.458-2.112
	l0.876,2.112l1.458-6.085l2.479,6.645c0,0,1.313-2.484,1.604-2.297c0.292,0.186,1.75,4.407,1.75,4.407l1.314-1.801l0.729,2.856
	l1.167-1.739l1.46,4.161l1.458-0.932l1.312,0.744l1.167-5.277l2.041,2.484l1.751-9.064l1.75,4.842l1.605-2.917l2.042,5.214
	l1.166-1.179l1.75,2.297l1.257,8.796L537.379,368.688z"/>
<path fill="#3F2C36" d="M586.3,460.188c2.558,0.026,3.533-0.356-1.109-0.722c-9.911-0.779-12.169-1.559-14.395-1.727
	c0,0,27.796-0.697,29.184-0.668c3.562,0.077,1.245-1.625-3.058-1.734c-4.304-0.109-30.255-1.354-30.255-1.354
	s21.334-0.366,21.5-1.279c0.166-0.914-27.078-2.975-27.078-2.975l29.896-1.239c0,0-37.644-1.791-44.972-1.687
	c-7.328,0.104-27.678,0.904-27.678,0.904l-44.042,1.799l23.905,1.547l-13.449,1.146c0,0-30.81,1.62-32.357,1.97
	c-8.893,2.006,16.02,3.943,9.237,3.634c0,0,25.298,0.819,12.713,1.119c-25.462,0.605-37.931-0.207-35.343,1.286
	c2.75,1.587,35.5,1.038,35.5,1.038s-30.164,1.616-24.813,2.879c4.063,0.96,34.462-0.342,34.462-0.342s-11.378,1.316-11.144,2.234
	c0.234,0.917,55.995,1.271,55.995,1.271s41.146-0.702,44.156-1.567c3.011-0.864-2.032-1.938-2.032-1.938s22.655-0.799,26.002-0.925
	c3.347-0.127,3.872-0.869-1.353-0.958c-5.226-0.088-34.606-1.692-34.606-1.692C583.438,460.191,574.686,460.069,586.3,460.188z"/>
<g>
	<path fill="#151C30" d="M135.062,326.341l13.87,5.771c0,0-2.22,2.401-4.766,1.418C136.562,330.591,135.062,326.341,135.062,326.341
		z"/>
	<path fill="#151C30" d="M130.605,295.966l14.328,6.896c0,0-2.942,0.962-5.488-0.021
		C131.84,299.901,130.605,295.966,130.605,295.966z"/>
	<polygon fill="#212C44" points="92.92,186.017 112.872,234.193 102.206,222.861 103.872,241.193 91.371,212.273 	"/>
	<path fill="#111828" d="M92.539,184.527c0,0-4.806,24.887-17.333,38.666c-6.667,7.334,10-6.332,10-6.332l-11.574,16.666
		l9.453-2.334c0,0-0.463,1.287-1.298,3.002c-1.246,2.559-3.319,6.068-5.915,7.666c-4.333,2.666,10.334-8.334,10.334-8.334
		s5.334,9,2,13.666c-3.334,4.668,5.636-2.33,4.333-16c-0.667-7,4.001,8.668,6.667,12.334c0,0,0.334-5,0-6.666
		c-0.334-1.668,4.666,6.666,4.666,6.666s-5.666-16-9.275-26.945c-0.78-2.365-2.747-10.745,3.275-4.721
		C100.205,214.194,92.539,184.527,92.539,184.527z"/>
	<polygon fill="#111828" points="102.206,222.861 112.872,234.193 102.206,227.193 	"/>
	<polygon fill="#151C30" points="102.95,231.05 109.872,244.527 103.872,240.027 	"/>
	<path fill="#212C44" d="M121.615,358.699c0,0,44.111,31.846,58.438,39.346c10.8,5.654-15.331,0-15.331,0l19.233,15.038
		l-17.701-6.016l13.288,10.148c0,0-30.61,13-40.579-3.146c-2.575-4.17,3.034,12.396,3.034,12.396l-18.498-13.383l2.384,9.396
		l-11.755-7.894l4.17,19.63c0,0-2.426,2.242-8.426,0.334c-6.939-2.207-7.903-8.349-7.666-8.87c0.51-1.127-0.514-33.546-4.261-46.568
		C94.199,366.091,100.993,348.301,121.615,358.699z"/>
	<path fill="#111828" d="M101.657,427.267l12.932-37.384l9.912,0.833l-3.283-6.622l16.551,20.789l-8.332-31.167
		c0,0,8.639,5.14,14.391,6.638s10.588-1.831,10.588-1.831l-15.421-5.836l-11.558-10.221l-4.75,2.617l-3.067,7.979l1.375,4.625
		l-5.564-4.375l-43.289,17.904L101.657,427.267z"/>
	<path fill="#212C44" d="M121.167,326.342c0,0,20.83,27.687,33.581,35.263c7.397,4.396-9.953,0-9.953,0l12.486,13.271l-11.491-5.309
		l8.625,8.956c0,0-21.231-1.989-26.871-10.614c-5.64-8.626,0.332,20.234,0.332,20.234l-9.841-13.268l1.547,8.292l-7.63-6.966
		l-11.833,32.032c0,0-0.091-6.57-3.5-12.422c-2.935-5.038-7.867-18.263-7.867-18.263c0.332-0.994,15.127-21.161,12.695-32.653
		C99.015,333.405,107.78,317.165,121.167,326.342z"/>
	<path fill="#111828" d="M100.437,381.716l9.679-37.682l10.784,11.538l-3.713-11.856l11.417,15.834l-4.812-26.333
		c0,0,7.082,5.419,12.833,6.917s13.802,0.261,13.802,0.261l-18.636-7.928l-10.625-6.125l-0.75,11.25l-8-4.75l1.375,4.625
		l-5.564-4.375l-16.856,10.749L100.437,381.716z"/>
	<path fill="#111828" d="M86.783,226.447l-5.995,5.313c0,0-16.5,19.683-26.25,24.683c-9.75,4.999,9.5-1.25,9.5-1.25
		s-3.762,9.25-12.256,11c-8.494,1.749,16.256,4.499,20.506,0c4.25-4.5,0.23,9.337-25.5,22.249c-8.655,4.344,16.5-1.25,22.5-4.75
		c0,0,0.186,4.436-16.25,11.25c-10.25,4.25,18-1.25,18-1.25s-5.5,4.75-6,5s8.25-2.25,6.25,2.25s15.416,1.25,20.083,8
		s7.917,5.25,7.917,5.25l-6.25-66.75C93.038,247.443,89.08,227.197,86.783,226.447"/>
	<path fill="#212C44" d="M112.824,288.755c0,0,13.232,25.579,37.936,34.722c8.07,2.986-9.953,0-9.953,0l8.125,8.635
		c-1.245,2.979-14.245-5.77-14.245-5.77l15.741,14.053c0,0-21.231-1.989-26.871-10.614c-5.64-8.626,0.332,20.234,0.332,20.234
		l-9.841-13.268l1.547,8.292l-7.63-6.966l-7.528,31.893c0,0-15.638-16.537-16.5-15.938c-6.513,4.528,15.955-35.769,13.522-47.261
		C95.027,295.277,99.438,279.578,112.824,288.755z"/>
	<path fill="#111828" d="M94.832,343.883l12.673-34.792l9.432,13.125l-1.932-11.125l9.496,12.552l-4.371-22.552
		c0,0,7.082,5.419,12.833,6.917s10.184-1.366,10.184-1.366l-15.018-6.301l-10.625-6.125l-0.75,11.25l-8-4.75l1.375,4.625
		l-5.564-4.375l-9.733,13.368V343.883z"/>
	<path fill="#111828" d="M83.247,289.331l-3.676,0.112c0,0-28.338,16.304-44.264,19.357s15.069,0.619,15.069,0.619
		s-7.049,8.442-20.601,8.517c-13.552,0.073,24.964,7.646,32.192,4.013c7.229-3.634-0.793,9.311-42.785,17.089
		c-14.126,2.616,26.058,1.988,35.911-0.312c0,0-0.257,4.438-26.903,7.984c-16.617,2.212,28.414,2.282,28.414,2.282
		s-9.222,3.637-10.039,3.787c-0.815,0.15,13.23-0.618,9.534,3.456c-3.696,4.073,24.047,4.257,30.539,11.868l0.139-15.222
		l13.659-43.417C100.437,309.466,86.759,290.524,83.247,289.331"/>
	<path fill="#212C44" d="M109.928,261.349c0,0,17.259,22.117,32.813,30.034c8.8,4.479-8.609,0-8.609,0l10.8,11.479l-9.939-4.592
		l8.154,8.372c0,0-19.058-2.346-23.937-9.807c-4.878-7.461,0.287,17.503,0.287,17.503l-8.512-11.477l1.338,7.173l-6.6-6.025
		c0,0-4.885,16.626-6.731,13.523c-3.28-5.511-7.799-13.26-7.616-13.811c0.287-0.86,3.914-16.565,1.81-26.506
		C91.083,267.278,98.349,253.41,109.928,261.349z"/>
	<path fill="#111828" d="M91.371,389.549l6.176-30.061c0,0-17.848-17.272-22.299-18.583l-0.301,2.415l0.301-2.415
		c0,0-35.083,15.462-54.994,18.02c-19.91,2.557,18.952,1.103,18.952,1.103s-8.587,8.251-25.611,7.893
		c-17.024-0.359,31.609,8.474,40.575,5.058c8.664-3.303-0.075,8.483-48.059,15.116v2.498c11.975,0.443,32.666,0.191,39.958-0.99
		c0,0-0.182,4.448-33.545,7.156c-20.807,1.69,35.771,3.199,35.771,3.199s-13.463,3.146-12.491,3.482
		c22.516,7.776-8.355,10.858-12.868,14.831c-4.514,3.972,53.268-3.903,61.667,3.945c8.4,7.85,17.054,5.051,17.054,5.051
		L91.371,389.549z"/>
	<path fill="#111828" d="M98.573,269.526l0.412-2.907v20.251c0,0,2.144-14.614,4.887-11.32c2.034,2.442,5.94,1.695,5.94,1.695
		l-2.273-5.265c0,0-1.701-5.59,0,0s10.759,8.902,10.759,8.902s-9.096-19.026-5.729-15.014c3.367,4.014,18.036,1.497,18.036,1.497
		l-12.664-3.759l-7.826-6.517l-6.546,6.778l1.166,6.251l-5.75-3.501"/>
	<path fill="#212C44" d="M102.95,228.527c0,0,21.588,21.166,28.588,26.167c7,4.999-7.5,0-7.5,0l9.409,10l-8.659-4.001l6.5,6.75
		c0,0-16-1.499-20.25-8c-4.25-6.5,0.25,15.25,0.25,15.25l-7.416-9.999l1.166,6.249l-5.75-5.249l-2.99,16.569
		c0,0-9.76-16.069-9.51-16.819s6.416-14.682,4.583-23.341S92.862,221.611,102.95,228.527z"/>
	<polygon fill="#111828" points="95.27,226.447 102.95,248.637 102.95,239.06 97.103,224.883 	"/>
	<polygon fill="#111828" points="91.371,274.883 92.104,269.55 99.981,276.383 98.985,286.87 95.27,278.21 	"/>
</g>
<g>
	<path fill="#101726" d="M66.285,336.659l20.41,8.492c0,0-3.266,3.533-7.013,2.086C68.492,342.913,66.285,336.659,66.285,336.659z"
		/>
	<path fill="#101726" d="M59.727,291.961l21.084,10.147c0,0-4.33,1.415-8.077-0.031C61.544,297.753,59.727,291.961,59.727,291.961z"
		/>
	<polygon fill="#222642" points="4.272,130.167 33.632,201.061 17.937,184.385 20.389,211.361 1.993,168.805 	"/>
	<path fill="#101726" d="M20.389,214.796c0,0-8.338-23.544-13.649-39.651c-1.148-3.48-4.042-15.813,4.82-6.947
		c3.433,3.432-7.848-40.224-7.848-40.224S2.563,133.898,0,142.289v75.152c2.28-4.384,4.593-11.548,3.712-20.795
		c-0.981-10.301,5.887,12.755,9.811,18.15c0,0,0.491-7.357,0-9.809C13.031,202.532,20.389,214.796,20.389,214.796z"/>
	<polygon fill="#101726" points="17.937,184.385 33.632,201.061 17.937,190.76 	"/>
	<polygon fill="#151C30" points="19.032,196.437 29.218,216.268 20.389,209.646 	"/>
	<path fill="#222642" d="M46.499,384.276c0,0,64.912,46.861,85.993,57.898c15.893,8.32-22.56,0-22.56,0l28.303,22.129l-26.048-8.853
		l19.553,14.935c0,0-45.044,19.13-59.713-4.629c-3.789-6.137,4.464,18.24,4.464,18.24l-27.22-19.693l3.508,13.827L35.48,466.516
		l6.136,28.886c0,0-3.57,3.3-12.399,0.492c-10.211-3.248-11.629-12.286-11.281-13.053c0.75-1.659-0.756-49.364-6.271-68.527
		C6.154,395.153,16.151,368.975,46.499,384.276z"/>
	<path fill="#101726" d="M72.072,404.858l-17.008-15.04l-6.99,3.852l-4.514,11.741l2.023,6.806l-8.188-6.438L0,421.246v43.008
		l17.129,20.922l19.029-55.012l14.585,1.226l-2.184-7.953l21.708,28.801l-12.261-45.864c0,0,12.713,7.563,21.177,9.769
		c8.464,2.204,20.311,0.383,20.311,0.383L72.072,404.858z"/>
	<path fill="#222642" d="M98.981,408.079l-18.373-19.528c0,0,25.531,6.469,14.646,0c-18.764-11.148-49.415-51.89-49.415-51.89
		c-19.699-13.504-32.598,10.394-29.019,27.302C19.793,378.011,5.282,400.854,0,409.028v7.844c2.442,6.263,6.765,16.95,9.716,22.016
		c5.016,8.611,5.15,18.279,5.15,18.279l17.413-47.137l11.229,10.251l-2.277-12.202l14.481,19.523c0,0-8.787-42.469-0.488-29.775
		c8.299,12.692,39.542,15.619,39.542,15.619l-12.692-13.179L98.981,408.079z"/>
	<path fill="#101726" d="M15.333,418.146l14.243-55.449l15.87,16.979l-5.464-17.447l16.8,23.3l-7.08-38.75
		c0,0,10.421,7.975,18.885,10.179c8.464,2.205,20.311,0.384,20.311,0.384l-27.423-11.666l-15.635-9.013l-1.104,16.555l-11.772-6.99
		l2.023,6.806l-8.188-6.438L1.993,362.411L15.333,418.146z"/>
	<path fill="#101726" d="M4.446,220.559c0,0-2.063-10.552-4.446-19.33v107.72c0.765,0.62,1.444,1.312,1.993,2.107
		c6.868,9.933,11.65,7.726,11.65,7.726L4.446,220.559z"/>
	<path fill="#222642" d="M89.386,332.444c-36.353-13.453-55.824-51.094-55.824-51.094c-19.699-13.504-26.189,9.598-22.61,26.506
		c1.678,7.927-4.694,25.164-10.952,40.558v36.719c6.931,6.838,15.333,15.723,15.333,15.723l11.078-46.932l11.229,10.251
		l-2.277-12.202l14.481,19.523c0,0-8.787-42.469-0.488-29.775c8.299,12.692,39.542,15.619,39.542,15.619l-23.164-20.679
		c0,0,19.13,12.874,20.962,8.49L74.74,332.444C74.74,332.444,101.261,336.839,89.386,332.444z"/>
	<path fill="#101726" d="M7.086,362.473l18.648-51.197l13.879,19.313l-2.842-16.37l13.973,18.47l-6.432-33.186
		c0,0,10.421,7.975,18.885,10.179s14.986-2.011,14.986-2.011l-22.099-9.271l-15.635-9.014l-1.104,16.556l-11.772-6.99l2.023,6.806
		l-8.188-6.438L7.086,318.991V362.473z"/>
	<path fill="#101726" d="M0,291.973v68.592l15.333-48.737C15.333,311.827,7.24,300.622,0,291.973z"/>
	<path fill="#222642" d="M29.3,241.022c0,0,25.397,32.545,48.286,44.195c12.949,6.59-12.668,0-12.668,0l15.893,16.891l-14.626-6.757
		l12,12.319c0,0-28.045-3.451-35.224-14.431c-7.178-10.979,0.422,25.757,0.422,25.757l-12.526-16.889l1.969,10.555l-9.712-8.866
		c0,0-7.189,24.466-9.906,19.9c-4.826-8.109-11.477-19.513-11.208-20.323c0.422-1.266,5.76-24.376,2.664-39.004
		C1.568,249.747,12.261,229.339,29.3,241.022z"/>
	<path fill="#101726" d="M17.129,485.176L1.993,429.673l9.088-44.235c0,0-4.947-4.787-11.081-10.361V483.25
		C9.322,487.699,17.129,485.176,17.129,485.176z"/>
	<path fill="#101726" d="M12.591,253.055l0.606-4.278v29.801c0,0,3.155-21.506,7.191-16.659c2.993,3.595,8.742,2.495,8.742,2.495
		l-3.346-7.747c0,0-2.502-8.226,0,0c2.503,8.226,15.832,13.101,15.832,13.101s-13.385-27.999-8.43-22.094
		c4.955,5.906,26.54,2.203,26.54,2.203l-18.635-5.531l-11.517-9.589l-9.632,9.975l1.716,9.198l-8.461-5.151"/>
	<path fill="#222642" d="M63.91,245.943l-13.846-14.715c0,0,21.337,7.357,11.037,0c-10.301-7.358-42.068-38.504-42.068-38.504
		c-14.845-10.177-19.736,7.234-17.039,19.975C3.289,218.82,1.867,226.729,0,233.42v22.787c4.06,7.055,9.243,15.59,9.243,15.59
		l4.4-24.383l8.461,7.725l-1.716-9.196l10.913,14.713c0,0-6.622-32.004-0.368-22.439s29.799,11.771,29.799,11.771l-9.565-9.931
		L63.91,245.943z"/>
	<polygon fill="#101726" points="7.73,189.662 19.032,222.315 19.032,208.223 10.428,187.36 	"/>
	<polygon fill="#101726" points="1.993,260.937 3.071,253.09 14.664,263.145 13.198,278.577 7.73,265.833 	"/>
</g>
<g>
	<path fill="#151C30" d="M587.334,330.75l-14.475,6.636c0,0,1.764,1.984,4.309,1.001C584.773,335.448,587.334,330.75,587.334,330.75
		z"/>
	<path fill="#151C30" d="M590.729,300.823l-14.327,6.896c0,0,2.941,0.962,5.488-0.021
		C589.494,304.759,590.729,300.823,590.729,300.823z"/>
	<polygon fill="#273250" points="628.414,190.875 608.463,239.05 619.129,227.718 617.463,246.05 629.963,217.13 	"/>
	<path fill="#151C30" d="M628.795,189.384c0,0,4.807,24.887,17.334,38.666c6.666,7.334-10-6.332-10-6.332l11.574,16.666
		l-9.453-2.334c0,0,0.463,1.287,1.297,3.002c1.246,2.559,3.32,6.068,5.916,7.666c4.332,2.666-10.334-8.334-10.334-8.334
		s-5.334,9-2,13.666c3.334,4.668-5.637-2.33-4.334-16c0.668-7-4,8.668-6.666,12.334c0,0-0.334-5,0-6.666
		c0.334-1.668-4.666,6.666-4.666,6.666s5.666-16,9.275-26.945c0.779-2.365,2.746-10.745-3.275-4.721
		C621.129,219.051,628.795,189.384,628.795,189.384z"/>
	<polygon fill="#151C30" points="619.129,227.718 608.463,239.05 619.129,232.05 	"/>
	<polygon fill="#151C30" points="618.385,235.908 611.463,249.384 617.463,244.884 	"/>
	<path fill="#273250" d="M599.719,363.557c0,0-44.111,31.846-58.438,39.346c-10.799,5.654,15.332,0,15.332,0l-19.234,15.038
		l17.701-6.016l-13.287,10.148c0,0,30.609,13,40.578-3.146c2.575-4.17-3.033,12.396-3.033,12.396l18.498-13.383l-2.385,9.396
		l11.756-7.894l-4.17,19.63c0,0,1.629,4.336,7.629,2.428c6.939-2.207,8.699-10.442,8.463-10.964
		c-0.51-1.127,0.514-33.546,4.261-46.568C627.136,370.948,620.342,353.158,599.719,363.557z"/>
	<path fill="#151C30" d="M619.678,432.124l-12.932-37.384l-9.912,0.833l3.283-6.622l-16.551,20.789l8.332-31.167
		c0,0-8.64,5.14-14.392,6.638s-13.802,0.261-13.802,0.261l18.635-7.928l11.559-10.221l4.75,2.617l3.066,7.979l-1.375,4.625
		l5.564-4.375l43.289,17.904L619.678,432.124z"/>
	<path fill="#273250" d="M600.168,331.199c0,0-20.83,27.687-33.581,35.263c-7.397,4.396,9.952,0,9.952,0l-12.485,13.271
		l11.491-5.309l-8.626,8.956c0,0,21.231-1.989,26.871-10.614c5.64-8.626-0.331,20.234-0.331,20.234l9.84-13.268l-1.547,8.292
		l7.631-6.966l11.832,32.032c0,0,0.092-6.57,3.5-12.422c2.936-5.038,7.867-18.263,7.867-18.263
		c-0.331-0.994-15.127-21.161-12.694-32.653C622.32,338.263,613.555,322.022,600.168,331.199z"/>
	<path fill="#151C30" d="M620.898,386.573l-9.68-37.682l-10.783,11.538l3.713-11.856l-11.418,15.834l4.812-26.333
		c0,0-7.082,5.419-12.834,6.917s-13.379,0.636-13.379,0.636l18.213-8.303l10.625-6.125l0.75,11.25l8-4.75l-1.375,4.625l5.564-4.375
		l16.855,10.749L620.898,386.573z"/>
	<path fill="#151C30" d="M634.551,231.304l5.996,5.313c0,0,16.5,19.683,26.25,24.683c9.75,4.999-9.5-1.25-9.5-1.25
		s3.762,9.25,12.256,11c8.494,1.749-16.256,4.499-20.506,0c-4.25-4.5-0.23,9.337,25.5,22.249c8.654,4.344-16.5-1.25-22.5-4.75
		c0,0-0.186,4.436,16.25,11.25c10.25,4.25-18-1.25-18-1.25s5.5,4.75,6,5s-8.25-2.25-6.25,2.25s-15.416,1.25-20.084,8
		c-4.666,6.75-7.916,5.25-7.916,5.25l6.25-66.75C628.297,252.3,632.254,232.054,634.551,231.304"/>
	<path fill="#273250" d="M608.51,294.032c0,0-13.231,25.579-37.936,34.722c-8.069,2.986,9.953,0,9.953,0l-8.125,8.635
		c1.246,2.979,14.246-5.77,14.246-5.77l-15.742,14.053c0,0,21.232-1.989,26.871-10.614c5.641-8.626-0.331,20.234-0.331,20.234
		l9.841-13.268l-1.547,8.292l7.63-6.966l7.528,31.893c0,0,15.638-16.537,16.5-15.938c6.513,4.528-15.955-35.769-13.523-47.261
		C626.308,300.555,621.896,284.855,608.51,294.032z"/>
	<path fill="#151C30" d="M626.502,348.74l-12.672-34.792l-9.432,13.125l1.932-11.125l-9.496,12.552l4.371-22.552
		c0,0-7.082,5.419-12.834,6.917s-10.184-1.366-10.184-1.366l15.018-6.301l11.92-6.125l-0.545,11.25l8-4.75l-1.375,4.625l5.564-4.375
		l9.732,13.368V348.74z"/>
	<path fill="#151C30" d="M642.064,296.716l-0.301-2.415c0,0,28.338,16.304,44.264,19.357s-15.068,0.619-15.068,0.619
		s7.049,8.442,20.601,8.517c13.552,0.073-24.964,7.646-32.192,4.013c-7.229-3.634,0.793,9.311,42.785,17.089
		c14.125,2.616-26.059,1.988-35.911-0.312c0,0,0.257,4.438,26.903,7.984c16.617,2.212-28.414,2.282-28.414,2.282
		s9.223,3.637,10.039,3.787c0.814,0.15-13.23-0.618-9.534,3.456c3.696,4.073-24.048,4.257-30.539,11.868l-0.14-15.222
		l-13.658-43.417c0,0,13.677-18.941,17.189-20.135"/>
	<path fill="#273250" d="M611.406,266.206c0,0-17.258,22.117-32.812,30.034c-8.801,4.479,8.608,0,8.608,0l-10.8,11.479l9.939-4.592
		l-8.154,8.372c0,0,19.058-2.346,23.936-9.807c4.879-7.461-0.287,17.503-0.287,17.503l8.513-11.477l-1.339,7.173l6.601-6.025
		c0,0,4.886,16.626,6.731,13.523c3.279-5.511,7.799-13.26,7.616-13.811c-0.287-0.86-3.914-16.565-1.81-26.506
		C630.252,272.136,622.986,258.268,611.406,266.206z"/>
	<path fill="#151C30" d="M629.963,394.406l-6.176-30.061c0,0,17.848-17.272,22.299-18.583l0.302,2.415l-0.302-2.415
		c0,0,35.084,15.462,54.994,18.02c19.91,2.557-18.952,1.103-18.952,1.103s8.587,8.251,25.61,7.893
		c17.024-0.359-31.609,8.474-40.574,5.058c-8.664-3.303,0.074,8.483,48.059,15.116v2.498c-11.975,0.443-32.666,0.191-39.958-0.99
		c0,0,0.182,4.448,33.545,7.156c20.808,1.69-35.771,3.199-35.771,3.199s13.463,3.146,12.49,3.482
		c-22.516,7.776,8.355,10.858,12.869,14.831c4.514,3.972-53.268-3.903-61.668,3.945c-8.399,7.85-17.053,5.051-17.053,5.051
		L629.963,394.406z"/>
	<path fill="#151C30" d="M622.762,274.384l-0.412-2.907v20.251c0,0-2.145-14.614-4.887-11.32c-2.034,2.442-5.941,1.695-5.941,1.695
		l2.273-5.265c0,0,1.701-5.59,0,0c-1.7,5.59-10.758,8.902-10.758,8.902s9.096-19.026,5.729-15.014
		c-3.367,4.014-18.036,1.497-18.036,1.497l12.663-3.759l7.826-6.517l6.547,6.778l-1.166,6.251l5.75-3.501"/>
	<path fill="#273250" d="M618.385,233.384c0,0-21.588,21.167-28.588,26.167c-7,4.999,7.5,0,7.5,0l-9.41,10l8.66-4.001l-6.5,6.75
		c0,0,16-1.499,20.25-8c4.25-6.499-0.25,15.25-0.25,15.25l7.416-9.999l-1.166,6.249l5.75-5.249l2.99,16.569
		c0,0,9.76-16.069,9.51-16.819s-6.416-14.682-4.584-23.341C631.797,238.3,628.473,226.468,618.385,233.384z"/>
	<polygon fill="#151C30" points="626.064,231.304 618.385,253.494 618.385,243.917 624.231,229.74 	"/>
	<polygon fill="#151C30" points="629.963,279.74 629.23,274.407 621.354,281.24 622.35,291.728 626.064,283.067 	"/>
</g>
<g>
	<path fill="#151C30" d="M652.925,359.669l-15.887,6.609c0,0,2.543,2.751,5.459,1.624
		C651.207,364.537,652.925,359.669,652.925,359.669z"/>
	<path fill="#151C30" d="M658.029,324.877l-16.41,7.898c0,0,3.37,1.102,6.286-0.024
		C656.615,329.385,658.029,324.877,658.029,324.877z"/>
	<polygon fill="#273250" points="701.194,198.94 678.341,254.122 690.559,241.142 688.65,262.14 702.969,229.015 	"/>
	<path fill="#151C30" d="M720,262.385c-0.88-0.665-1.705-1.493-2.456-2.425c0.925,0.72,1.771,1.388,2.456,1.941V262.385z"/>
	<path fill="#151C30" d="M688.65,264.813c0,0,6.489-18.327,10.624-30.864c0.894-2.709,3.146-12.309-3.752-5.407
		c-2.672,2.671,6.108-31.309,6.108-31.309S706.756,223.757,720,239.8v2.263c-3.926-2.837-9.97-7.793-9.97-7.793l9.97,14.354v3.923
		l-7.54-1.861c0,0,0.53,1.475,1.486,3.438c0.871,1.79,2.1,3.981,3.598,5.836c-3.729-2.904-8.659-6.601-8.659-6.601
		s-6.109,10.309-2.291,15.653c3.819,5.347-6.455-2.669-4.963-18.327c0.764-8.018-4.583,9.929-7.637,14.128c0,0-0.382-5.728,0-7.636
		C694.377,255.268,688.65,264.813,688.65,264.813z"/>
	<polygon fill="#151C30" points="690.559,241.142 678.341,254.122 690.559,246.104 	"/>
	<polygon fill="#151C30" points="689.706,250.522 681.777,265.959 688.65,260.805 	"/>
	<path fill="#273250" d="M668.326,396.732c0,0-50.525,36.477-66.935,45.067c-12.37,6.477,17.561,0,17.561,0l-22.03,17.225
		l20.275-6.891l-15.22,11.624c0,0,35.061,14.891,46.479-3.603c2.948-4.776-3.475,14.198-3.475,14.198l21.187-15.329l-2.73,10.763
		l13.464-9.041l-4.775,22.484c0,0,2.778,2.568,9.65,0.382c7.949-2.527,9.053-9.562,8.781-10.159
		c-0.584-1.291,0.588-38.424,4.88-53.341C699.729,405.199,691.948,384.822,668.326,396.732z"/>
	<path fill="#151C30" d="M648.421,412.754l13.238-11.707l5.44,2.998l3.514,9.139l-1.575,5.297l6.374-5.011L720,431.911v8.168
		l-28.813,35.191l-14.812-42.82l-11.353,0.954l3.76-7.585l-18.958,23.812l9.544-35.699c0,0-9.896,5.887-16.484,7.604
		c-6.589,1.716-15.809,0.298-15.809,0.298L648.421,412.754z"/>
	<path fill="#273250" d="M668.84,359.67c0,0-23.857,31.713-38.464,40.391c-8.472,5.034,11.4,0,11.4,0l-14.302,15.2l13.162-6.081
		l-9.881,10.259c0,0,24.32-2.278,30.779-12.158c6.461-9.88-0.38,23.177-0.38,23.177l11.272-15.196l-1.772,9.497l8.739-7.979
		l13.554,36.69c0,0,0.105-7.525,4.009-14.229c3.363-5.771,9.012-20.918,9.012-20.918c-0.381-1.139-17.326-24.238-14.541-37.401
		C694.214,367.761,684.174,349.159,668.84,359.67z"/>
	<path fill="#151C30" d="M692.585,423.096l-11.086-43.161l-12.353,13.217l4.253-13.581l-13.077,18.137l5.511-30.162
		c0,0-8.11,6.207-14.698,7.923c-6.589,1.716-15.811,0.299-15.811,0.299l21.346-9.081l12.17-7.016l0.859,12.886l9.163-5.44
		l-1.575,5.298l6.374-5.012l19.308,12.312L692.585,423.096z"/>
	<path fill="#151C30" d="M701.06,269.299c0,0,4.533-23.19,7.164-24.049l6.867,6.085c0,0,1.927,2.298,4.909,5.608v76.912
		c-5.749,0.757-13.897,1.353-17.031,5.885c-5.346,7.731-9.068,6.014-9.068,6.014L701.06,269.299z"/>
	<path fill="#273250" d="M678.396,316.617c0,0-15.157,29.299-43.452,39.771c-9.244,3.421,11.4,0,11.4,0l-9.307,9.891
		c1.427,3.413,16.316-6.608,16.316-6.608l-18.03,16.097c0,0,24.319-2.279,30.779-12.158c6.459-9.88-0.381,23.177-0.381,23.177
		l11.273-15.197l-1.773,9.498l8.739-7.979l8.623,36.53c0,0,17.912-18.942,18.899-18.255c7.46,5.187-18.275-40.97-15.488-54.134
		C698.781,324.088,693.729,306.106,678.396,316.617z"/>
	<path fill="#151C30" d="M699.005,379.762l-14.516-39.852l-10.804,15.034l2.213-12.743l-10.876,14.377l5.006-25.831
		c0,0-8.111,6.207-14.699,7.923c-6.589,1.716-11.666-1.564-11.666-1.564l17.202-7.218l12.17-7.016l0.858,12.887l9.163-5.441
		l-1.574,5.298l6.373-5.011l11.149,15.312V379.762z"/>
	<path fill="#151C30" d="M712.274,317.277l4.556,2.895l-0.345-2.766c0,0,1.305,0.749,3.515,1.965v82.247
		c-4.971,1.434-9.384,3.277-11.61,5.888l-0.159-17.436l-15.646-49.73C692.585,340.34,708.251,318.645,712.274,317.277z"/>
	<path fill="#273250" d="M681.714,285.228c0,0-19.769,25.332-37.585,34.4c-10.08,5.129,9.86,0,9.86,0l-12.37,13.147l11.385-5.26
		l-9.341,9.59c0,0,21.829-2.688,27.418-11.233c5.587-8.546-0.329,20.049-0.329,20.049l9.749-13.146l-1.532,8.216l7.56-6.901
		c0,0,5.596,19.043,7.711,15.489c3.757-6.312,8.933-15.188,8.723-15.818c-0.329-0.985-4.483-18.975-2.072-30.36
		C703.3,292.018,694.977,276.133,681.714,285.228z"/>
	<path fill="#151C30" d="M702.969,432.068l-7.074-34.432c0,0,17.419-16.854,24.105-20.623v89.279
		c-4.324,0.642-7.632,1.652-9.279,3.192c-9.622,8.991-19.534,5.785-19.534,5.785L702.969,432.068z"/>
	<path fill="#151C30" d="M694.719,294.593l-0.472-3.33v23.196c0,0-2.455-16.739-5.597-12.967c-2.33,2.798-6.805,1.941-6.805,1.941
		l2.604-6.03c0,0,1.949-6.402,0,0c-1.948,6.403-12.322,10.197-12.322,10.197s10.418-21.793,6.561-17.196
		c-3.856,4.597-20.658,1.714-20.658,1.714l14.506-4.305l8.964-7.465l7.498,7.765l-1.336,7.159l6.586-4.01"/>
	<path fill="#273250" d="M689.706,247.632c0,0-24.728,24.244-32.745,29.971c-8.018,5.728,8.591,0,8.591,0l-10.777,11.454
		l9.918-4.581l-7.445,7.73c0,0,18.327-1.717,23.194-9.162c4.868-7.445-0.286,17.466-0.286,17.466l8.495-11.453l-1.336,7.158
		l6.586-6.013l3.425,18.979c0,0,11.18-18.406,10.893-19.266c-0.286-0.859-7.349-16.816-5.249-26.736
		C705.068,253.263,701.261,239.71,689.706,247.632z"/>
	<polygon fill="#151C30" points="698.504,245.25 689.706,270.666 689.706,259.697 696.402,243.458 	"/>
	<polygon fill="#151C30" points="702.969,300.729 702.13,294.62 693.106,302.446 694.247,314.459 698.504,304.539 	"/>
</g>
<g>
	<path fill="#E4DDCC" d="M96.677,104.416c0.968,0,0.968-1.5,0-1.5S95.709,104.416,96.677,104.416L96.677,104.416z"/>
</g>
<g>
	<g>
		<path fill="#E4DDCC" d="M49.552,42.778c0,0.222,0,0.444,0,0.666c0,1.451,2.25,1.451,2.25,0c0-0.222,0-0.444,0-0.666
			C51.802,41.327,49.552,41.327,49.552,42.778L49.552,42.778z"/>
	</g>
	<g>
		<path fill="#E4DDCC" d="M244.01,47.236c1.451,0,1.451-2.25,0-2.25S242.559,47.236,244.01,47.236L244.01,47.236z"/>
	</g>
	<g>
		<path fill="#E4DDCC" d="M74.677,49.236c1.451,0,1.451-2.25,0-2.25S73.226,49.236,74.677,49.236L74.677,49.236z"/>
	</g>
	<g>
		<path fill="#E4DDCC" d="M230.548,62.907c0.583,0.569,1.312,0.944,2.129,0.996c0.612,0.039,1.125-0.541,1.125-1.125
			c0-0.643-0.513-1.086-1.125-1.125c0.134,0.009-0.173-0.064-0.074-0.02c-0.114-0.053-0.22-0.124-0.323-0.193
			c0.155,0.104-0.099-0.084-0.14-0.125C231.102,60.301,229.51,61.891,230.548,62.907L230.548,62.907z"/>
	</g>
	<g>
		<path fill="#E4DDCC" d="M129.344,18.57c0.222,0,0.444,0,0.666,0c1.451,0,1.451-2.25,0-2.25c-0.222,0-0.444,0-0.666,0
			C127.893,16.32,127.893,18.57,129.344,18.57L129.344,18.57z"/>
	</g>
	<g>
		<path fill="#E4DDCC" d="M80.01,21.236c0.223,0,0.444,0,0.667,0c1.451,0,1.451-2.25,0-2.25c-0.223,0-0.444,0-0.667,0
			C78.559,18.986,78.559,21.236,80.01,21.236L80.01,21.236z"/>
	</g>
	<g>
		<path fill="#E4DDCC" d="M166.219,55.444c0.024,1.033,0.786,1.724,1.791,1.792c0.612,0.042,1.125-0.543,1.125-1.125
			c0-0.645-0.514-1.083-1.125-1.125c0.246,0.017,0.383,0.189,0.461,0.394c-0.103-0.27,0,0.146-0.002,0.064
			C168.436,53.996,166.186,53.992,166.219,55.444L166.219,55.444z"/>
	</g>
	<g>
		<path fill="#E4DDCC" d="M238.885,23.445c-0.004,0.164,0.062-0.343,0.016-0.126c-0.034,0.108-0.021,0.083,0.037-0.075
			c0.072-0.145,0.25-0.247,0.406-0.257c-0.611,0.042-1.125,0.48-1.125,1.125c0,0.582,0.513,1.167,1.125,1.125
			c1.005-0.068,1.767-0.758,1.791-1.792C241.168,21.993,238.918,21.996,238.885,23.445L238.885,23.445z"/>
	</g>
	<g>
		<path fill="#E4DDCC" d="M196.677,28.57c0.223,0,0.444,0,0.667,0c1.451,0,1.451-2.25,0-2.25c-0.223,0-0.444,0-0.667,0
			C195.226,26.32,195.226,28.57,196.677,28.57L196.677,28.57z"/>
	</g>
	<g>
		<path fill="#E4DDCC" d="M250.01,21.903c1.451,0,1.451-2.25,0-2.25S248.559,21.903,250.01,21.903L250.01,21.903z"/>
	</g>
	<g>
		<path fill="#E4DDCC" d="M216.677,16.57c1.451,0,1.451-2.25,0-2.25S215.226,16.57,216.677,16.57L216.677,16.57z"/>
	</g>
	<g>
		<path fill="#E4DDCC" d="M50.01,19.236c0.485-0.001,0.995-0.032,1.361-0.397c0.385-0.385,0.43-0.879,0.431-1.394
			c0.002-1.451-2.248-1.451-2.25,0c0,0.084-0.053,0.54,0.016,0.17c0.159-0.407,0.415-0.618,0.768-0.634
			c-0.107,0.01-0.218,0.005-0.325,0.005C48.559,16.989,48.559,19.239,50.01,19.236L50.01,19.236z"/>
	</g>
</g>
<g>
	<g>
		<path fill="#E4DDCC" d="M259.542,49.445c0,0.222,0,0.444,0,0.666c0,1.451,2.25,1.451,2.25,0c0-0.222,0-0.444,0-0.666
			C261.792,47.994,259.542,47.994,259.542,49.445L259.542,49.445z"/>
	</g>
	<g>
		<path fill="#E4DDCC" d="M454,53.903c1.451,0,1.451-2.25,0-2.25S452.549,53.903,454,53.903L454,53.903z"/>
	</g>
	<g>
		<path fill="#E4DDCC" d="M284.667,55.903c1.451,0,1.451-2.25,0-2.25S283.216,55.903,284.667,55.903L284.667,55.903z"/>
	</g>
	<g>
		<path fill="#E4DDCC" d="M440.538,69.574c0.583,0.569,1.312,0.944,2.129,0.996c0.612,0.039,1.125-0.541,1.125-1.125
			c0-0.643-0.513-1.086-1.125-1.125c0.134,0.009-0.173-0.064-0.074-0.02c-0.114-0.053-0.22-0.124-0.323-0.193
			c0.155,0.104-0.099-0.084-0.14-0.125C441.092,66.968,439.5,68.558,440.538,69.574L440.538,69.574z"/>
	</g>
	<g>
		<path fill="#E4DDCC" d="M339.334,25.237c0.222,0,0.444,0,0.666,0c1.451,0,1.451-2.25,0-2.25c-0.222,0-0.444,0-0.666,0
			C337.883,22.987,337.883,25.237,339.334,25.237L339.334,25.237z"/>
	</g>
	<g>
		<path fill="#E4DDCC" d="M290,27.903c0.223,0,0.444,0,0.667,0c1.451,0,1.451-2.25,0-2.25c-0.223,0-0.444,0-0.667,0
			C288.549,25.653,288.549,27.903,290,27.903L290,27.903z"/>
	</g>
	<g>
		<path fill="#E4DDCC" d="M376.209,62.111c0.024,1.033,0.786,1.724,1.791,1.792c0.612,0.042,1.125-0.543,1.125-1.125
			c0-0.645-0.514-1.083-1.125-1.125c0.246,0.017,0.383,0.189,0.461,0.394c-0.103-0.27,0,0.146-0.002,0.064
			C378.426,60.663,376.176,60.659,376.209,62.111L376.209,62.111z"/>
	</g>
	<g>
		<path fill="#E4DDCC" d="M448.875,30.112c-0.004,0.164,0.062-0.343,0.016-0.126c-0.034,0.108-0.021,0.083,0.037-0.075
			c0.072-0.145,0.25-0.247,0.406-0.257c-0.611,0.042-1.125,0.48-1.125,1.125c0,0.582,0.513,1.167,1.125,1.125
			c1.005-0.068,1.767-0.758,1.791-1.792C451.158,28.66,448.908,28.663,448.875,30.112L448.875,30.112z"/>
	</g>
	<g>
		<path fill="#E4DDCC" d="M406.667,35.237c0.223,0,0.444,0,0.667,0c1.451,0,1.451-2.25,0-2.25c-0.223,0-0.444,0-0.667,0
			C405.216,32.987,405.216,35.237,406.667,35.237L406.667,35.237z"/>
	</g>
	<g>
		<path fill="#E4DDCC" d="M460,28.57c1.451,0,1.451-2.25,0-2.25S458.549,28.57,460,28.57L460,28.57z"/>
	</g>
	<g>
		<path fill="#E4DDCC" d="M426.667,23.237c1.451,0,1.451-2.25,0-2.25S425.216,23.237,426.667,23.237L426.667,23.237z"/>
	</g>
	<g>
		<path fill="#E4DDCC" d="M260,25.903c0.485-0.001,0.995-0.032,1.361-0.397c0.385-0.385,0.43-0.879,0.431-1.394
			c0.002-1.451-2.248-1.451-2.25,0c0,0.084-0.053,0.54,0.016,0.17c0.159-0.407,0.415-0.618,0.768-0.634
			c-0.107,0.01-0.218,0.005-0.325,0.005C258.549,23.656,258.549,25.906,260,25.903L260,25.903z"/>
	</g>
</g>
<g opacity="0.4">
	<g>
		<path fill="#E4DDCC" d="M190.209,152.445c0,0.222,0,0.444,0,0.666c0,1.451,2.25,1.451,2.25,0c0-0.222,0-0.444,0-0.666
			C192.459,150.994,190.209,150.994,190.209,152.445L190.209,152.445z"/>
	</g>
	<g>
		<path fill="#E4DDCC" d="M384.667,156.903c1.451,0,1.451-2.25,0-2.25S383.216,156.903,384.667,156.903L384.667,156.903z"/>
	</g>
	<g>
		<path fill="#E4DDCC" d="M215.334,158.903c1.451,0,1.451-2.25,0-2.25S213.883,158.903,215.334,158.903L215.334,158.903z"/>
	</g>
	<g>
		<path fill="#E4DDCC" d="M371.205,172.574c0.583,0.569,1.312,0.944,2.129,0.996c0.612,0.039,1.125-0.541,1.125-1.125
			c0-0.643-0.513-1.086-1.125-1.125c0.134,0.009-0.173-0.064-0.074-0.02c-0.114-0.053-0.22-0.124-0.323-0.193
			c0.155,0.104-0.099-0.084-0.14-0.125C371.759,169.967,370.167,171.557,371.205,172.574L371.205,172.574z"/>
	</g>
	<g>
		<path fill="#E4DDCC" d="M270.001,128.236c0.222,0,0.444,0,0.666,0c1.451,0,1.451-2.25,0-2.25c-0.222,0-0.444,0-0.666,0
			C268.55,125.986,268.55,128.236,270.001,128.236L270.001,128.236z"/>
	</g>
	<g>
		<path fill="#E4DDCC" d="M220.667,130.903c0.223,0,0.444,0,0.667,0c1.451,0,1.451-2.25,0-2.25c-0.223,0-0.444,0-0.667,0
			C219.216,128.653,219.216,130.903,220.667,130.903L220.667,130.903z"/>
	</g>
	<g>
		<path fill="#E4DDCC" d="M306.876,165.111c0.024,1.033,0.786,1.724,1.791,1.792c0.612,0.042,1.125-0.543,1.125-1.125
			c0-0.645-0.514-1.083-1.125-1.125c0.246,0.017,0.383,0.189,0.461,0.394c-0.103-0.27,0,0.146-0.002,0.064
			C309.093,163.663,306.843,163.659,306.876,165.111L306.876,165.111z"/>
	</g>
	<g>
		<path fill="#E4DDCC" d="M379.542,133.111c-0.004,0.164,0.062-0.343,0.016-0.126c-0.034,0.108-0.021,0.083,0.037-0.075
			c0.072-0.145,0.25-0.247,0.406-0.257c-0.611,0.042-1.125,0.48-1.125,1.125c0,0.582,0.513,1.167,1.125,1.125
			c1.005-0.068,1.767-0.758,1.791-1.792C381.825,131.66,379.575,131.663,379.542,133.111L379.542,133.111z"/>
	</g>
	<g>
		<path fill="#E4DDCC" d="M337.334,138.236c0.223,0,0.444,0,0.667,0c1.451,0,1.451-2.25,0-2.25c-0.223,0-0.444,0-0.667,0
			C335.883,135.986,335.883,138.236,337.334,138.236L337.334,138.236z"/>
	</g>
	<g>
		<path fill="#E4DDCC" d="M390.667,131.57c1.451,0,1.451-2.25,0-2.25S389.216,131.57,390.667,131.57L390.667,131.57z"/>
	</g>
	<g>
		<path fill="#E4DDCC" d="M357.334,126.236c1.451,0,1.451-2.25,0-2.25S355.883,126.236,357.334,126.236L357.334,126.236z"/>
	</g>
	<g>
		<path fill="#E4DDCC" d="M190.667,128.903c0.485-0.001,0.995-0.032,1.361-0.397c0.385-0.385,0.43-0.879,0.431-1.394
			c0.002-1.451-2.248-1.451-2.25,0c0,0.084-0.053,0.54,0.016,0.17c0.159-0.407,0.415-0.618,0.768-0.634
			c-0.107,0.01-0.218,0.005-0.325,0.005C189.216,126.655,189.216,128.905,190.667,128.903L190.667,128.903z"/>
	</g>
</g>
<g opacity="0.1">
	<g>
		<path fill="#E4DDCC" d="M231.517,213.215c0,0.222,0,0.444,0,0.666c0,1.451,2.25,1.451,2.25,0c0-0.222,0-0.444,0-0.666
			C233.767,211.764,231.517,211.764,231.517,213.215L231.517,213.215z"/>
	</g>
	<g>
		<path fill="#E4DDCC" d="M425.975,217.673c1.451,0,1.451-2.25,0-2.25S424.523,217.673,425.975,217.673L425.975,217.673z"/>
	</g>
	<g>
		<path fill="#E4DDCC" d="M256.642,219.673c1.451,0,1.451-2.25,0-2.25S255.19,219.673,256.642,219.673L256.642,219.673z"/>
	</g>
	<g>
		<path fill="#E4DDCC" d="M412.513,233.344c0.583,0.569,1.312,0.944,2.129,0.996c0.612,0.039,1.125-0.541,1.125-1.125
			c0-0.643-0.513-1.086-1.125-1.125c0.134,0.009-0.173-0.064-0.074-0.02c-0.114-0.053-0.22-0.124-0.323-0.193
			c0.155,0.104-0.099-0.084-0.14-0.125C413.066,230.738,411.475,232.328,412.513,233.344L412.513,233.344z"/>
	</g>
	<g>
		<path fill="#E4DDCC" d="M311.309,189.007c0.222,0,0.444,0,0.666,0c1.451,0,1.451-2.25,0-2.25c-0.222,0-0.444,0-0.666,0
			C309.857,186.757,309.857,189.007,311.309,189.007L311.309,189.007z"/>
	</g>
	<g>
		<path fill="#E4DDCC" d="M261.975,191.673c0.223,0,0.444,0,0.667,0c1.451,0,1.451-2.25,0-2.25c-0.223,0-0.444,0-0.667,0
			C260.523,189.423,260.523,191.673,261.975,191.673L261.975,191.673z"/>
	</g>
	<g>
		<path fill="#E4DDCC" d="M348.184,225.881c0.024,1.033,0.786,1.724,1.791,1.792c0.612,0.042,1.125-0.543,1.125-1.125
			c0-0.645-0.514-1.083-1.125-1.125c0.246,0.017,0.383,0.189,0.461,0.394c-0.103-0.27,0,0.146-0.002,0.064
			C350.4,224.433,348.15,224.429,348.184,225.881L348.184,225.881z"/>
	</g>
	<g>
		<path fill="#E4DDCC" d="M420.85,193.882c-0.004,0.164,0.062-0.343,0.016-0.126c-0.034,0.108-0.021,0.083,0.037-0.075
			c0.072-0.145,0.25-0.247,0.406-0.257c-0.611,0.042-1.125,0.48-1.125,1.125c0,0.582,0.513,1.167,1.125,1.125
			c1.005-0.068,1.767-0.758,1.791-1.792C423.133,192.43,420.883,192.433,420.85,193.882L420.85,193.882z"/>
	</g>
	<g>
		<path fill="#E4DDCC" d="M378.642,199.007c0.223,0,0.444,0,0.667,0c1.451,0,1.451-2.25,0-2.25c-0.223,0-0.444,0-0.667,0
			C377.19,196.757,377.19,199.007,378.642,199.007L378.642,199.007z"/>
	</g>
	<g>
		<path fill="#E4DDCC" d="M431.975,192.34c1.451,0,1.451-2.25,0-2.25S430.523,192.34,431.975,192.34L431.975,192.34z"/>
	</g>
	<g>
		<path fill="#E4DDCC" d="M398.642,187.007c1.451,0,1.451-2.25,0-2.25S397.19,187.007,398.642,187.007L398.642,187.007z"/>
	</g>
	<g>
		<path fill="#E4DDCC" d="M231.975,189.673c0.485-0.001,0.995-0.032,1.361-0.397c0.385-0.385,0.43-0.879,0.431-1.394
			c0.002-1.451-2.248-1.451-2.25,0c0,0.084-0.053,0.54,0.016,0.17c0.159-0.407,0.415-0.618,0.768-0.634
			c-0.107,0.01-0.218,0.005-0.325,0.005C230.523,187.426,230.523,189.676,231.975,189.673L231.975,189.673z"/>
	</g>
</g>
<g opacity="0.1">
	<g>
		<path fill="#E4DDCC" d="M436.921,188.112c0,0.222,0,0.444,0,0.666c0,1.451,2.25,1.451,2.25,0c0-0.222,0-0.444,0-0.666
			C439.171,186.661,436.921,186.661,436.921,188.112L436.921,188.112z"/>
	</g>
	<g>
		<path fill="#E4DDCC" d="M631.379,192.57c1.451,0,1.451-2.25,0-2.25S629.928,192.57,631.379,192.57L631.379,192.57z"/>
	</g>
	<g>
		<path fill="#E4DDCC" d="M462.046,194.57c1.451,0,1.451-2.25,0-2.25S460.595,194.57,462.046,194.57L462.046,194.57z"/>
	</g>
	<g>
		<path fill="#E4DDCC" d="M617.917,208.241c0.583,0.569,1.312,0.944,2.129,0.996c0.612,0.039,1.125-0.541,1.125-1.125
			c0-0.643-0.513-1.086-1.125-1.125c0.134,0.009-0.173-0.064-0.074-0.02c-0.114-0.053-0.22-0.124-0.323-0.193
			c0.155,0.104-0.099-0.084-0.14-0.125C618.471,205.635,616.879,207.225,617.917,208.241L617.917,208.241z"/>
	</g>
	<g>
		<path fill="#E4DDCC" d="M516.713,163.904c0.222,0,0.444,0,0.666,0c1.451,0,1.451-2.25,0-2.25c-0.222,0-0.444,0-0.666,0
			C515.262,161.654,515.262,163.904,516.713,163.904L516.713,163.904z"/>
	</g>
	<g>
		<path fill="#E4DDCC" d="M467.379,166.57c0.223,0,0.444,0,0.667,0c1.451,0,1.451-2.25,0-2.25c-0.223,0-0.444,0-0.667,0
			C465.928,164.32,465.928,166.57,467.379,166.57L467.379,166.57z"/>
	</g>
	<g>
		<path fill="#E4DDCC" d="M553.588,200.778c0.024,1.033,0.786,1.724,1.791,1.792c0.612,0.042,1.125-0.543,1.125-1.125
			c0-0.645-0.514-1.083-1.125-1.125c0.246,0.017,0.383,0.189,0.461,0.394c-0.103-0.27,0,0.146-0.002,0.064
			C555.805,199.33,553.555,199.326,553.588,200.778L553.588,200.778z"/>
	</g>
	<g>
		<path fill="#E4DDCC" d="M626.254,168.779c-0.004,0.164,0.062-0.343,0.016-0.126c-0.034,0.108-0.021,0.083,0.037-0.075
			c0.072-0.145,0.25-0.247,0.406-0.257c-0.611,0.042-1.125,0.48-1.125,1.125c0,0.582,0.513,1.167,1.125,1.125
			c1.005-0.068,1.767-0.758,1.791-1.792C628.537,167.327,626.287,167.33,626.254,168.779L626.254,168.779z"/>
	</g>
	<g>
		<path fill="#E4DDCC" d="M584.046,173.904c0.223,0,0.444,0,0.667,0c1.451,0,1.451-2.25,0-2.25c-0.223,0-0.444,0-0.667,0
			C582.595,171.654,582.595,173.904,584.046,173.904L584.046,173.904z"/>
	</g>
	<g>
		<path fill="#E4DDCC" d="M637.379,167.237c1.451,0,1.451-2.25,0-2.25S635.928,167.237,637.379,167.237L637.379,167.237z"/>
	</g>
	<g>
		<path fill="#E4DDCC" d="M604.046,161.904c1.451,0,1.451-2.25,0-2.25S602.595,161.904,604.046,161.904L604.046,161.904z"/>
	</g>
	<g>
		<path fill="#E4DDCC" d="M437.379,164.57c0.485-0.001,0.995-0.032,1.361-0.397c0.385-0.385,0.43-0.879,0.431-1.394
			c0.002-1.451-2.248-1.451-2.25,0c0,0.084-0.053,0.54,0.016,0.17c0.159-0.407,0.415-0.618,0.768-0.634
			c-0.107,0.01-0.218,0.005-0.325,0.005C435.928,162.323,435.928,164.573,437.379,164.57L437.379,164.57z"/>
	</g>
</g>
<g opacity="0.4">
	<g>
		<path fill="#E4DDCC" d="M132.797,173.903c1.451,0,1.451-2.25,0-2.25S131.346,173.903,132.797,173.903L132.797,173.903z"/>
	</g>
	<g>
		<path fill="#E4DDCC" d="M119.335,189.574c0.583,0.569,1.312,0.944,2.129,0.996c0.612,0.039,1.125-0.541,1.125-1.125
			c0-0.643-0.513-1.086-1.125-1.125c0.134,0.009-0.173-0.064-0.074-0.02c-0.114-0.053-0.22-0.124-0.323-0.193
			c0.155,0.104-0.099-0.084-0.14-0.125C119.889,186.967,118.297,188.557,119.335,189.574L119.335,189.574z"/>
	</g>
	<g>
		<path fill="#E4DDCC" d="M18.131,145.236c0.222,0,0.444,0,0.666,0c1.451,0,1.451-2.25,0-2.25c-0.222,0-0.444,0-0.666,0
			C16.68,142.986,16.68,145.236,18.131,145.236L18.131,145.236z"/>
	</g>
	<g>
		<path fill="#E4DDCC" d="M55.006,182.111c0.024,1.033,0.786,1.724,1.791,1.792c0.612,0.042,1.125-0.543,1.125-1.125
			c0-0.645-0.514-1.083-1.125-1.125c0.246,0.017,0.383,0.189,0.461,0.394c-0.103-0.27,0,0.146-0.002,0.064
			C57.223,180.663,54.973,180.659,55.006,182.111L55.006,182.111z"/>
	</g>
	<g>
		<path fill="#E4DDCC" d="M127.672,150.111c-0.004,0.164,0.062-0.343,0.016-0.126c-0.034,0.108-0.021,0.083,0.037-0.075
			c0.072-0.145,0.25-0.247,0.406-0.257c-0.611,0.042-1.125,0.48-1.125,1.125c0,0.582,0.513,1.167,1.125,1.125
			c1.005-0.068,1.767-0.758,1.791-1.792C129.955,148.66,127.705,148.663,127.672,150.111L127.672,150.111z"/>
	</g>
	<g>
		<path fill="#E4DDCC" d="M85.464,155.236c0.223,0,0.444,0,0.667,0c1.451,0,1.451-2.25,0-2.25c-0.223,0-0.444,0-0.667,0
			C84.013,152.986,84.013,155.236,85.464,155.236L85.464,155.236z"/>
	</g>
	<g>
		<path fill="#E4DDCC" d="M138.797,148.57c1.451,0,1.451-2.25,0-2.25S137.346,148.57,138.797,148.57L138.797,148.57z"/>
	</g>
	<g>
		<path fill="#E4DDCC" d="M105.464,143.236c1.451,0,1.451-2.25,0-2.25S104.013,143.236,105.464,143.236L105.464,143.236z"/>
	</g>
</g>
<g>
	<path fill="#E4DDCC" d="M134.677,98.861c0.968,0,0.968-1.5,0-1.5S133.709,98.861,134.677,98.861L134.677,98.861z"/>
</g>
<g>
	<path fill="#E4DDCC" d="M33.26,88.332c0,0.223,0,0.444,0,0.667c0,0.968,1.5,0.968,1.5,0c0-0.223,0-0.444,0-0.667
		C34.76,87.364,33.26,87.364,33.26,88.332L33.26,88.332z"/>
</g>
<line fill="#E4DDCC" x1="206.01" y1="93.444" x2="206.677" y2="93.444"/>
<polygon fill="#FEF9C8" points="369.085,46.666 372.214,43.459 368.841,46.213 368.677,42 368.317,46.109 365.14,43.459 
	368.284,46.598 363.673,47 368.11,47 365.14,50.541 368.491,47.258 368.677,51.998 368.944,47.293 372.214,50.541 369.224,47 
	373.681,47 "/>
<polygon fill="#FEF9C8" points="538.9,30 542.029,26.792 538.656,29.546 538.492,25.333 538.133,29.443 534.955,26.792 
	538.1,29.931 533.488,30.333 537.926,30.333 534.955,33.875 538.307,30.591 538.492,35.332 538.76,30.626 542.029,33.875 
	539.039,30.333 543.496,30.333 "/>
<polygon fill="#FEF9C8" points="487.969,86.884 490.307,84.487 487.787,86.546 487.664,83.396 487.396,86.468 485.021,84.487 
	487.371,86.833 483.926,87.132 487.242,87.132 485.021,89.778 487.527,87.327 487.664,90.868 487.865,87.353 490.307,89.778 
	488.074,87.132 491.404,87.132 "/>
<polygon fill="#FEF9C8" points="302,103.491 304.338,101.095 301.818,103.153 301.695,100.003 301.428,103.075 299.053,101.095 
	301.402,103.44 297.957,103.739 301.273,103.739 299.053,106.386 301.559,103.935 301.695,107.476 301.896,103.96 304.338,106.386 
	302.105,103.739 305.436,103.739 "/>
<polygon fill="#FEF9C8" points="84.72,89.508 87.058,87.111 84.538,89.17 84.415,86.02 84.147,89.092 81.772,87.111 84.122,89.457 
	80.677,89.757 83.993,89.757 81.772,92.402 84.278,89.951 84.415,93.493 84.616,89.977 87.058,92.402 84.825,89.757 88.155,89.757 
	"/>
<polygon fill="#FEF9C8" points="558.619,96.625 562.141,93.016 558.346,96.115 558.16,91.371 557.758,95.998 554.181,93.016 
	557.72,96.548 552.53,97 557.525,97 554.181,100.984 557.955,97.293 558.16,102.627 558.464,97.33 562.141,100.984 558.778,97 
	563.794,97 "/>
<g>
	<g>
		<path fill="#E4DDCC" d="M507.721,118.308c0.967,0,0.967-1.5,0-1.5S506.754,118.308,507.721,118.308L507.721,118.308z"/>
	</g>
	<g>
		<path fill="#E4DDCC" d="M559.638,38.891c0.083,1.188,1.067,1.415,2.083,1.417c0.968,0.001,0.967-1.499,0-1.5
			c-0.174,0-0.347-0.003-0.521-0.013c-0.269-0.016-0.074-0.069-0.062,0.096C561.07,37.932,559.57,37.925,559.638,38.891
			L559.638,38.891z"/>
	</g>
	<g>
		<path fill="#E4DDCC" d="M672.388,51.641c0.839-0.001,1.282-0.306,1.863-0.887c0.685-0.685-0.376-1.745-1.061-1.061
			c-0.151,0.151-0.304,0.337-0.481,0.448c0.115-0.072-0.1,0.003,0.01-0.006c-0.109,0.009-0.222,0.005-0.331,0.005
			C671.42,50.143,671.42,51.643,672.388,51.641L672.388,51.641z"/>
	</g>
	<g>
		<path fill="#E4DDCC" d="M709.055,132.974c1.016-0.002,2-0.229,2.083-1.416c0.067-0.966-1.433-0.959-1.5,0
			c0.008-0.11,0.217-0.156-0.025-0.1c-0.173,0.04-0.382,0.016-0.558,0.016C708.088,131.475,708.087,132.975,709.055,132.974
			L709.055,132.974z"/>
	</g>
	<g>
		<path fill="#E4DDCC" d="M596.388,188.308c0.223,0,0.444,0,0.667,0c0.967,0,0.967-1.5,0-1.5c-0.223,0-0.444,0-0.667,0
			C595.42,186.808,595.42,188.308,596.388,188.308L596.388,188.308z"/>
	</g>
	<g>
		<path fill="#E4DDCC" d="M561.055,26.974c0.222,0,0.444,0,0.666,0c0.967,0,0.967-1.5,0-1.5c-0.222,0-0.444,0-0.666,0
			C560.088,25.474,560.088,26.974,561.055,26.974L561.055,26.974z"/>
	</g>
	<g>
		<path fill="#E4DDCC" d="M492.388,110.308c0.968,0,0.968-1.5,0-1.5S491.42,110.308,492.388,110.308L492.388,110.308z"/>
	</g>
	<g>
		<path fill="#E4DDCC" d="M657.055,61.641c0.967,0,0.967-1.5,0-1.5S656.088,61.641,657.055,61.641L657.055,61.641z"/>
	</g>
	<g>
		<path fill="#E4DDCC" d="M621.721,126.974c0.967,0,0.967-1.5,0-1.5S620.754,126.974,621.721,126.974L621.721,126.974z"/>
	</g>
	<g>
		<path fill="#E4DDCC" d="M608.471,192.891c0-0.038,0.024-0.414-0.002-0.27c-0.083,0.225-0.219,0.344-0.406,0.357
			c0.107-0.01,0.218-0.005,0.325-0.005c0.968-0.002,0.968-1.502,0-1.5c-0.379,0.001-0.808-0.001-1.097,0.287
			c-0.309,0.31-0.319,0.719-0.32,1.13C606.969,193.858,608.469,193.857,608.471,192.891L608.471,192.891z"/>
	</g>
	<g>
		<path fill="#E4DDCC" d="M695.055,132.308c0.967,0,0.967-1.5,0-1.5S694.088,132.308,695.055,132.308L695.055,132.308z"/>
	</g>
	<g>
		<path fill="#E4DDCC" d="M474.305,139.558c-0.006,0.094-0.207,0.23-0.274,0.309c-0.261,0.301-0.366,0.632-0.393,1.024
			c-0.065,0.966,1.435,0.96,1.5,0c0.007-0.095,0.207-0.231,0.274-0.31c0.26-0.301,0.366-0.631,0.393-1.023
			C475.87,138.592,474.37,138.598,474.305,139.558L474.305,139.558z"/>
	</g>
	<g>
		<path fill="#E4DDCC" d="M450.388,10.974c0.223,0,0.444,0,0.667,0c0.967,0,0.967-1.5,0-1.5c-0.223,0-0.444,0-0.667,0
			C449.42,9.474,449.42,10.974,450.388,10.974L450.388,10.974z"/>
	</g>
	<g>
		<path fill="#E4DDCC" d="M463.638,15.558c0,0.222,0,0.444,0,0.667c0,0.967,1.5,0.967,1.5,0c0-0.222,0-0.444,0-0.667
			C465.138,14.59,463.638,14.59,463.638,15.558L463.638,15.558z"/>
	</g>
	<g>
		<path fill="#E4DDCC" d="M645.638,18.224c0,0.222,0,0.444,0,0.667c0,0.967,1.5,0.967,1.5,0c0-0.222,0-0.444,0-0.667
			C647.138,17.257,645.638,17.257,645.638,18.224L645.638,18.224z"/>
	</g>
	<g>
		<path fill="#E4DDCC" d="M691.721,16.808c-0.222,0-0.444,0-0.666,0c-0.967,0-0.967,1.5,0,1.5c0.222,0,0.444,0,0.666,0
			C692.688,18.308,692.688,16.808,691.721,16.808L691.721,16.808z"/>
	</g>
	<g>
		<path fill="#E4DDCC" d="M455.138,78.891c-0.013,0.187-0.544,0.156-0.315,0.256c0.145,0.064,0.255,0.168,0.368,0.274
			c0.705,0.66,1.769-0.398,1.061-1.061c-0.456-0.427-1.039-0.82-1.694-0.691c-0.609,0.12-0.879,0.651-0.919,1.222
			C453.57,79.856,455.07,79.85,455.138,78.891L455.138,78.891z"/>
	</g>
	<g>
		<path fill="#E4DDCC" d="M512.971,15.558c0.02,0.822,0.619,1.362,1.417,1.417c0.966,0.066,0.96-1.435,0-1.5
			c-0.06-0.004,0.073,0.053,0.099,0.119c-0.076-0.2-0.015,0.002-0.016-0.035C514.448,14.592,512.948,14.59,512.971,15.558
			L512.971,15.558z"/>
	</g>
	<g>
		<path fill="#E4DDCC" d="M579.055,84.974c0.821-0.02,1.361-0.619,1.416-1.416c0.065-0.966-1.435-0.96-1.5,0
			c-0.004,0.059,0.053-0.074,0.119-0.1c-0.2,0.076,0.002,0.015-0.035,0.016C578.089,83.496,578.087,84.996,579.055,84.974
			L579.055,84.974z"/>
	</g>
	<g>
		<path fill="#E4DDCC" d="M719.638,6.891c0,0.077,0,0.154-0.002,0.231c-0.026,0.271,0.075,0.144,0.306-0.381
			c0.126-0.034,0.252-0.068,0.379-0.103c0.344,0.166,0.43,0.18,0.256,0.042c-0.112-0.102-0.218-0.213-0.325-0.32
			c-0.685-0.684-1.746,0.376-1.061,1.061c0.352,0.351,0.77,0.845,1.329,0.691c0.565-0.156,0.617-0.732,0.618-1.221
			C721.14,5.923,719.64,5.923,719.638,6.891L719.638,6.891z"/>
	</g>
	<g>
		<path fill="#E4DDCC" d="M707.721,76.308c0.967,0,0.967-1.5,0-1.5S706.754,76.308,707.721,76.308L707.721,76.308z"/>
	</g>
	<g>
		<path fill="#E4DDCC" d="M594.305,16.891c0,0.222,0,0.445,0,0.667c0,0.967,1.5,0.967,1.5,0c0-0.222,0-0.445,0-0.667
			C595.805,15.923,594.305,15.923,594.305,16.891L594.305,16.891z"/>
	</g>
	<g>
		<path fill="#E4DDCC" d="M407.721,110.308c0.223,0,0.444,0,0.667,0c0.968,0,0.968-1.5,0-1.5c-0.223,0-0.444,0-0.667,0
			C406.754,108.808,406.754,110.308,407.721,110.308L407.721,110.308z"/>
	</g>
	<g>
		<path fill="#E4DDCC" d="M503.721,66.974c0.223,0,0.444,0,0.667,0c0.968,0,0.968-1.5,0-1.5c-0.223,0-0.444,0-0.667,0
			C502.754,65.474,502.754,66.974,503.721,66.974L503.721,66.974z"/>
	</g>
	<g>
		<path fill="#E4DDCC" d="M680.971,46.891c-0.004,0.06,0.053-0.073,0.119-0.099c-0.2,0.076,0.002,0.015-0.035,0.016
			c-0.966,0.022-0.968,1.522,0,1.5c0.821-0.02,1.361-0.62,1.416-1.417C682.536,45.925,681.036,45.931,680.971,46.891L680.971,46.891
			z"/>
	</g>
	<g>
		<path fill="#E4DDCC" d="M696.971,14.224c-0.004,0.059,0.053-0.074,0.119-0.099c-0.2,0.077,0.002,0.015-0.035,0.016
			c-0.966,0.022-0.968,1.522,0,1.5c0.821-0.019,1.361-0.62,1.416-1.417C698.536,13.258,697.036,13.265,696.971,14.224
			L696.971,14.224z"/>
	</g>
	<g>
		<path fill="#E4DDCC" d="M627.055,126.308c0.222,0,0.444,0,0.666,0c0.967,0,0.967-1.5,0-1.5c-0.222,0-0.444,0-0.666,0
			C626.088,124.808,626.088,126.308,627.055,126.308L627.055,126.308z"/>
	</g>
	<g>
		<path fill="#E4DDCC" d="M500.388,71.641c0.968,0,0.968-1.5,0-1.5S499.42,71.641,500.388,71.641L500.388,71.641z"/>
	</g>
	<g>
		<path fill="#E4DDCC" d="M631.721,14.308c0.967,0,0.967-1.5,0-1.5S630.754,14.308,631.721,14.308L631.721,14.308z"/>
	</g>
	<g>
		<path fill="#E4DDCC" d="M450.388,114.308c0.444,0,0.889,0,1.333,0c0.967,0,0.967-1.5,0-1.5c-0.444,0-0.889,0-1.333,0
			C449.42,112.808,449.42,114.308,450.388,114.308L450.388,114.308z"/>
	</g>
	<g>
		<path fill="#E4DDCC" d="M672.388,94.974c0.821-0.02,1.362-0.618,1.417-1.416c0.066-0.966-1.435-0.96-1.5,0
			c-0.004,0.06,0.053-0.074,0.118-0.1c-0.2,0.076,0.002,0.015-0.035,0.016C671.422,93.496,671.42,94.996,672.388,94.974
			L672.388,94.974z"/>
	</g>
	<g>
		<path fill="#E4DDCC" d="M708.524,48.088c0.336,0.359,0.335,0.579,0,0.939c-0.658,0.706,0.399,1.77,1.061,1.061
			c0.903-0.969,0.904-2.092,0-3.061C708.924,46.318,707.865,47.382,708.524,48.088L708.524,48.088z"/>
	</g>
	<g>
		<path fill="#E4DDCC" d="M613.721,63.641c0.363-0.001,0.772-0.032,0.969-0.396c0.081-0.15,0.098-0.253,0.114-0.421
			c0.002-0.068-0.003-0.045-0.014,0.069c-0.014,0.073,0.088-0.096,0.128-0.139c0.659-0.706-0.399-1.769-1.061-1.061
			c-0.334,0.357-0.507,0.672-0.556,1.154c0.034-0.126,0.068-0.252,0.103-0.378c0.218-0.405,0.793-0.33,0.316-0.329
			C612.754,62.143,612.753,63.643,613.721,63.641L613.721,63.641z"/>
	</g>
	<g>
		<path fill="#E4DDCC" d="M457.857,52.754c0.223,0.223,0.444,0.444,0.667,0.667c0.685,0.685,1.745-0.376,1.061-1.061
			c-0.223-0.223-0.444-0.444-0.667-0.667C458.233,51.009,457.173,52.069,457.857,52.754L457.857,52.754z"/>
	</g>
	<g>
		<path fill="#E4DDCC" d="M631.857,100.088c0.223,0.222,0.444,0.444,0.667,0.666c0.685,0.685,1.746-0.377,1.061-1.061
			c-0.223-0.222-0.444-0.444-0.667-0.666C632.233,98.343,631.172,99.404,631.857,100.088L631.857,100.088z"/>
	</g>
	<g>
		<path fill="#E4DDCC" d="M556.388,130.141c-0.223,0-0.444,0-0.667,0c-0.967,0-0.967,1.5,0,1.5c0.223,0,0.444,0,0.667,0
			C557.355,131.641,557.355,130.141,556.388,130.141L556.388,130.141z"/>
	</g>
	<g>
		<path fill="#E4DDCC" d="M677.721,186.308c0.967,0,0.967-1.5,0-1.5S676.754,186.308,677.721,186.308L677.721,186.308z"/>
	</g>
	<g>
		<path fill="#E4DDCC" d="M635.055,49.641c0.222,0,0.444,0,0.666,0c0.967,0,0.967-1.5,0-1.5c-0.222,0-0.444,0-0.666,0
			C634.088,48.141,634.088,49.641,635.055,49.641L635.055,49.641z"/>
	</g>
	<g>
		<path fill="#E4DDCC" d="M610.388,40.308c0.968,0,0.968-1.5,0-1.5S609.42,40.308,610.388,40.308L610.388,40.308z"/>
	</g>
	<g>
		<path fill="#E4DDCC" d="M620.587,138.834c-0.137-0.034-0.272-0.068-0.409-0.104c-0.244,0.418-0.486,0.836-0.73,1.254
			c0.247,0.099,0.494,0.197,0.741,0.297C621.087,140.641,621.474,139.189,620.587,138.834c-0.247-0.099-0.493-0.197-0.74-0.296
			c-0.728-0.291-1.226,0.757-0.729,1.254c0.34,0.341,0.572,0.364,1.071,0.489C621.127,140.516,621.525,139.069,620.587,138.834
			L620.587,138.834z"/>
	</g>
	<g>
		<path fill="#E4DDCC" d="M648.388,133.641c0.968,0,0.968-1.5,0-1.5S647.42,133.641,648.388,133.641L648.388,133.641z"/>
	</g>
</g>
<polygon fill="#FEF9C8" points="684.611,23.667 687.74,20.459 684.367,23.213 684.203,19 683.844,23.11 680.666,20.459 
	683.811,23.598 679.199,24 683.637,24 680.666,27.542 684.018,24.258 684.203,28.999 684.471,24.293 687.74,27.542 684.75,24 
	689.207,24 "/>
<polygon fill="#FEF9C8" points="633.68,79.438 636.018,77.042 633.498,79.101 633.375,75.95 633.107,79.022 630.732,77.042 
	633.082,79.388 629.637,79.687 632.953,79.687 630.732,82.333 633.238,79.882 633.375,83.423 633.576,79.907 636.018,82.333 
	633.785,79.687 637.115,79.687 "/>
<polygon fill="#FEF9C8" points="704.33,90.292 707.852,86.683 704.057,89.782 703.871,85.038 703.469,89.665 699.892,86.683 
	703.431,90.215 698.241,90.667 703.236,90.667 699.892,94.651 703.666,90.96 703.871,96.294 704.175,90.997 707.852,94.651 
	704.489,90.667 709.505,90.667 "/>
<polygon fill="#FEF9C8" points="191.52,80.341 195.63,76.126 191.199,79.745 190.983,74.211 190.514,79.608 186.336,76.126 
	190.467,80.251 184.408,80.778 190.238,80.778 186.336,85.433 190.74,81.118 190.983,87.347 191.338,81.165 195.63,85.433 
	191.703,80.778 197.559,80.778 "/>
<polygon fill="#FEF9C8" points="21.895,35.316 25.184,31.945 21.639,34.84 21.466,30.412 21.09,34.73 17.748,31.945 21.053,35.244 
	16.205,35.666 20.87,35.666 17.748,39.389 21.271,35.938 21.466,40.92 21.75,35.976 25.184,39.389 22.041,35.666 26.727,35.666 "/>
<path fill="#4D7087" d="M442.488,400.26c2.921,0.066,5.064-1.838,0.386-2.059c-4.679-0.22-30.591-1.938-30.591-1.938
	s35.446-1.869,37.033-1.869c1.416,0-1.355-2.807-6.271-3.088c-10.48-0.6-10.447-0.598-41.407-2.371c0,0,24.44-3.284,28.385-2.933
	c4.249,0.379-31.933-3.42-31.933-3.42l28.824-2.82l-25.72-4.021l44.743-7.083l-23.75,0.495l-72.002,3.809l24.399,4.733
	l-55.231-1.309l21.373,3.375l-106.734,4.286l76.254,4.217c0,0-62.572,2.334-61.242,4.021c1.396,1.767,46.335,4.937,38.587,4.14
	c0,0,28.896,2.101,14.521,2.867c-29.083,1.55-89.994-0.711-85.875,0.771c6.156,2.214,83.23,4.344,83.23,4.344
	s-43.369,5.758-36.714,5.763c6.655,0.004,50.56,1.579,50.56,1.579l-22.595,4.553L360,423.973l81.043-7.605l-28.386-4.618
	c0,0,25.878-2.047,29.7-2.372c3.823-0.326,4.422-2.226-1.546-2.451c-5.969-0.227-41.459-5.948-41.459-5.948
	S439.565,400.193,442.488,400.26z"/>
<path fill="#608396" d="M409.943,403.594c1.872,0.055,3.246-1.538,0.247-1.723c-2.999-0.184-19.61-1.622-19.61-1.622
	s22.723-1.564,23.74-1.564c0.908,0-0.869-2.348-4.021-2.583c-6.719-0.503-6.697-0.5-26.544-1.985c0,0,15.668-2.747,18.196-2.454
	c2.724,0.317-20.471-2.861-20.471-2.861l18.478-2.359l-16.487-3.364l28.195-3.315l-18.917-1.637H382l-31.228,2.625l15.641,3.963
	l-35.407-1.096l13.701,2.824l-68.422,3.587l48.883,3.528c0,0-40.112,1.953-39.26,3.365c0.895,1.478,29.703,4.131,24.736,3.464
	c0,0,18.524,1.758,9.309,2.398c-18.644,1.297-57.691-0.595-55.05,0.646c3.946,1.853,53.355,3.635,53.355,3.635
	s-27.802,4.818-23.536,4.822s32.412,1.321,32.412,1.321l-14.484,3.81l44.414,6.419l51.954-6.364l-18.197-3.864
	c0,0,16.589-1.713,19.04-1.984c2.45-0.272,2.834-1.862-0.991-2.051c-3.826-0.19-26.578-4.979-26.578-4.979
	S408.069,403.538,409.943,403.594z"/>
<polyline fill="#608396" points="367.625,373.625 414.558,369.966 394.5,375.875 410.875,379.762 382,378.125 367.625,373.625 "/>
<g>
	<path fill="#F88063" d="M526.595,456.912h-9.251c0,0-5.264-3.118-5.632-11.928c-0.27-6.452,0.667,0.843,4.658,4.138
		c1.945,1.606-1.278-3.161-1.338-11.215c-0.026-3.537,1.042-7.59,2.799-12.156c0.608-1.583,5.894,8.809,5.515,19.962
		c0,0,2.274-7.06,1.788-13.389s-1.826-12.174-1.703-13.146c0.263-2.078,9.249,7.792,9.007,22.154
		c-0.242,14.363,1.461,3.164,2.921,0.486c1.461-2.677,4.087-4.43,2.922-8.52c-0.486-1.706,2.596,3.264,3.409,11.197
		c0.973,9.494-4.87,12.416-4.87,12.416H526.595z"/>
	<path opacity="0.7" fill="#FCE1D9" d="M536.158,445.213c0.521,3.958-0.978,8.125-4.062,8.708c-0.729,0.138-1.346-1.516-1.5-3.831
		c-0.342-5.127-4.604-8.172-3.863-6.335c1.544,3.825-2.143,8.554-2.168,9.668c-0.542-0.463-1.757-1.72-2.386-4.918
		c-0.336-1.708-2.667-4.75-2.667-4.75c-1.073,2.785-0.767,6.259-0.235,8.94l-0.007-0.026c-0.025-0.127-2.02-0.162-4.27-2.579
		s0.917,4.946,4.907,6.835l0.521-0.013l14.292,0.051C541.799,452.213,535.896,443.224,536.158,445.213z"/>
</g>
<path fill="#0B111E" d="M546.014,458.156c0,1.16-0.939,2.1-2.1,2.1h-13.469c-1.159,0-2.099-0.939-2.099-2.1l0,0
	c0-1.159,0.939-2.099,2.099-2.099h13.469C545.074,456.058,546.014,456.997,546.014,458.156L546.014,458.156z"/>
<path fill="#0B111E" d="M527.169,458.156c0,1.16-0.939,2.1-2.1,2.1h-13.469c-1.159,0-2.099-0.939-2.099-2.1l0,0
	c0-1.159,0.939-2.099,2.099-2.099h13.469C526.229,456.058,527.169,456.997,527.169,458.156L527.169,458.156z"/>
<path fill="#0B111E" d="M537.181,460.256c0,1.16-0.939,2.1-2.1,2.1h-13.469c-1.159,0-2.099-0.939-2.099-2.1l0,0
	c0-1.159,0.939-2.099,2.099-2.099h13.469C536.241,458.157,537.181,459.097,537.181,460.256L537.181,460.256z"/>
<path opacity="0.5" fill="#F88063" d="M570.027,390.5l-14.072,8.167l11.378,0.166l-11.378,9.667l17.212-0.994
	c0,0-16.378,10.839-21.545,12.833c0,0,13.145-2.99,18.405-7.248s5.761-8.066,5.761-8.066l-13.455,0.396l9.955-9.299l-11.788,1.058
	L570.027,390.5z"/>
<polygon opacity="0.5" fill="#F88063" points="592.857,407.506 588.077,411.668 585.19,420.339 600.625,409.638 600.625,421.668 
	609.565,411.706 601.667,416.313 602.181,405.42 588.19,416.313 "/>
<path opacity="0.5" fill="#F88063" d="M576.109,378.833c0,0,17.363-7.216,18.945-11.932c0.725-2.16,3.264,10.112,3.264,15.433
	c0,1.499,7.016-7.471,7.016-7.471v7.138l5.885-3.876l9.344,22.922L613,375.666l-6.254,2v-6.871l-6.205,4.068l-3.81-10.942
	C596.731,363.921,585,374.232,576.109,378.833"/>
<path opacity="0.5" fill="#F88063" d="M644.981,390.5l-10.814,9.224l9.496-0.723l-7.33,9.666l7.33-1.161l-6.625,8.924
	c0,0,8.295-2.596,10.962-5.096l-5.167,0.5l3.909-6.81l-6.242,0.396l5.333-8.241h-6.166L644.981,390.5z"/>
<polygon opacity="0.5" fill="#F88063" points="602.345,336 600.435,347.75 608.918,337.699 608.463,345.917 614.924,341.875 
	622.047,367.028 617.463,338.623 610,341.5 610,333.575 602.345,341.603 "/>
<polygon opacity="0.5" fill="#F88063" points="617.75,446.75 606.449,453.47 620.898,450.09 606.746,462.355 622.762,466.25 
	611.25,461.25 624.875,448.375 615.41,449.5 "/>
<polygon opacity="0.5" fill="#F88063" points="609.228,411.888 606.449,439.375 610.949,410.875 "/>
<path opacity="0.5" fill="#F88063" d="M627.475,428.172c-0.225,0.203-23.934,14.328-23.934,14.328l20.084-3.125l-5.875,7.375
	l9.325-8.851l-15.325,1.476L627.475,428.172z"/>
<path opacity="0.5" fill="#F88063" d="M583.566,354.833c0.101,0.334-11.899,9.088-11.899,9.088l10.834-2.374l-8.5,11.415
	l13.886-14.075l-9.699,1.543L583.566,354.833z"/>
<path opacity="0.5" fill="#F88063" d="M587.887,321.333l-8.549,5.167l4.274-0.667l-6.263,9.078l12.984-6.411
	c0,0-13.152,14.397-12.146,13.654c0.366-0.271,15.646-10.41,15.646-10.41l-5.947,1.831l4.697-7.325l-10.917,4.948l4.606-7.292
	L587.887,321.333z"/>
<polygon opacity="0.5" fill="#F88063" points="605.875,300.125 605.125,312.5 612.447,302.25 611.205,310.198 621.354,300.823 
	613.796,306 613.796,299.073 606.449,305.787 "/>
<path fill="#3F2C36" d="M500.875,468.75c-0.279-0.279,56.25,0,56.25,0s7.375,2.375,4.625,2.625s-8.25,1.25-8.25,1.25l5.75,0.625
	h-24.5c0,0-22.121,1-20.498,0s8.748-2.027,8.748-2.027S503.25,471.125,500.875,468.75z"/>
<g opacity="0.1">
	<path fill="#F4DFBB" d="M514.5,423c2.5-5.5,5-14,5-20.5c0-13.5-8-19.5-15-30c-14.5-22.5-5.248-43.86,9.752-64.36
		c14.5-20.5,17.367-39.696-10.752-72.64c5.5,4,33.994,10.412,39.314,25.672c6.686,19.177-5.151,28.151-9.151,39.651
		c-4,10-16.327,19.376-15.327,30.376C519.836,345.699,543.5,349,546,361.5c2.5,14.5-10,26.5-12.5,39.5c-2,11.5,6.5,25.5,0.5,35.5
		c1.5-6.5,3.5-16.5-3.5-20.5c-7-4.5-13.5,3-15,7"/>
</g>
<g opacity="0.1">
	<path fill="#F4DFBB" d="M513,297.5c16.5-20.662,2.75-40.194-12-48.5c6.5,7,12,15.907,14,25.407
		C516,277.907,515.798,294.188,513,297.5"/>
</g>
<g opacity="0.1">
	<path fill="#F4DFBB" d="M541.329,344.728c-4.954,1.377-11.165-2.29-12.666-4.667c-3.532-5.595-5.629-10.877-3.334-16.666
		c5.335-13.457,20.298-22.765,21.667-31.667c-1.333,10.667-9.333,19-14,28C528.663,328.061,529.996,342.395,541.329,344.728"/>
</g>
<path fill="#F88063" d="M387.118,395.51c-0.072,0.01-0.163,0.137-0.052,0.333c0.004,0.007,0.008,0.013,0.012,0.02
	c0.018-0.03,0.027-0.054,0.04-0.08C387.118,395.691,387.118,395.604,387.118,395.51z"/>
<path fill="#F88063" d="M387.118,395.51c0,0.094,0,0.182,0,0.272C387.214,395.582,387.179,395.502,387.118,395.51z"/>
<path fill="#F88063" d="M387.078,395.862c0.013,0.024,0.026,0.048,0.04,0.071c0-0.05,0-0.101,0-0.151
	C387.105,395.809,387.096,395.832,387.078,395.862z"/>
<path fill="#805066" d="M234.799,287.72l-1.717,6.667l-5.333,2.667l-4.589,7.333l4.589,2.667c0,0-29.188,18.666-27.196,18.666
	s18.23-4,18.23-4l117.181,37.223l8.371-7.626L234.799,287.72z"/>
<g>
	<circle fill="#F4DFBB" cx="578.188" cy="213.605" r="29.588"/>
	<circle fill="#E0CEB6" cx="588.944" cy="197.887" r="5.076"/>
	<circle fill="#E0CEB6" cx="596.515" cy="207.649" r="2.511"/>
	<circle fill="#E0CEB6" cx="585.882" cy="212.639" r="3.223"/>
</g>
<g>
	<g>
		<polygon fill="#0B111E" points="416.131,394.658 416.131,395.045 421.81,458.718 404.394,462.319 		"/>
		<polygon fill="#33242D" points="416.131,394.451 329.548,394.451 327.996,396.864 282.476,467.639 367.548,470.118 		"/>
		<polygon fill="#101728" points="367.548,470.118 322.477,488.962 201.317,490.638 282.476,467.639 		"/>
		<polygon fill="#101728" points="449.401,451.53 437.343,453.26 437.926,454.52 449.686,452.501 		"/>
		<path fill="#773D3C" d="M343.045,480.364c-0.309,0.367,0.219,0.901,0.53,0.529c10.277-12.268,20.554-24.535,30.83-36.803
			c-0.438,0.149-0.889,0.289-1.336,0.432C363.062,456.47,353.053,468.417,343.045,480.364z"/>
		<path fill="#C16256" d="M416.095,393.972c0-0.203,0-0.414,0-0.637c-0.086,0.005-0.17,0.029-0.229,0.1
			c-14.266,17.029-28.53,34.059-42.796,51.088c0.447-0.143,0.898-0.282,1.336-0.432c4.918-5.87,9.836-11.741,14.754-17.611
			c8.07-9.635,16.142-19.269,24.212-28.903c0.813-0.971,1.627-1.942,2.441-2.914c0.114-0.137,0.188-0.244,0.242-0.338
			c-0.004-0.007-0.008-0.013-0.012-0.02C415.932,394.108,416.022,393.981,416.095,393.972z"/>
		<path fill="#773D3C" d="M446.517,446.449c-0.379-0.161-0.756-0.324-1.138-0.482c1.202,2.117,2.404,4.234,3.606,6.352
			c0.239,0.42,0.888,0.042,0.648-0.379C448.595,450.109,447.556,448.279,446.517,446.449z"/>
		<path fill="#F88063" d="M416.455,393.511c-0.069-0.122-0.219-0.184-0.36-0.176c0,0.223,0,0.434,0,0.637
			c0.061-0.008,0.096,0.072,0,0.272c0,0.051,0,0.102,0,0.151c2.251,3.966,4.504,7.931,6.755,11.896
			c7.51,13.225,15.02,26.45,22.529,39.675c0.382,0.158,0.759,0.321,1.138,0.482C436.496,428.804,426.476,411.157,416.455,393.511z"
			/>
		<g>
			<path fill="#542F2A" d="M257.837,473.597c-0.323,0.357,0.206,0.89,0.53,0.529c17.408-19.348,34.815-38.696,52.223-58.044
				c-0.478,0.161-0.951,0.332-1.436,0.476C292.049,435.57,274.943,454.583,257.837,473.597z"/>
			<path fill="#7A483F" d="M329.283,394.186c-6.709,7.457-13.418,14.915-20.127,22.372c0.485-0.144,0.958-0.314,1.436-0.476
				c6.407-7.122,12.815-14.243,19.222-21.365C330.136,394.358,329.607,393.826,329.283,394.186z"/>
		</g>
		<path fill="#6D5867" d="M416.131,394.658c0,0,19.795,52.573,21.795,60.64l-16.671,3.42L416.131,394.658z"/>
		<polygon fill="#604A58" points="404.394,462.451 367.144,470.25 416.131,394.583 		"/>
		<path opacity="0.2" fill="#772211" d="M415.688,395.081l-11.295,67.238c0,0-20.541,0.955-23.708-7.8
			C380.686,454.52,405.844,426.609,415.688,395.081z"/>
		<path fill="#F88063" d="M416.292,394.451l-11.898,67.868c0,0-13.917,0-16.417-5.701
			C387.977,456.618,407.792,426.368,416.292,394.451z"/>
	</g>
	<polygon fill="#1B243A" points="420,457.5 407.167,453.52 406,459.256 	"/>
</g>
</svg>
