<?xml version="1.0" encoding="utf-8"?>
<!-- Generator: Adobe Illustrator 19.0.0, SVG Export Plug-In . SVG Version: 6.00 Build 0)  -->
<svg version="1.1" xmlns="http://www.w3.org/2000/svg" xmlns:xlink="http://www.w3.org/1999/xlink" x="0px" y="0px" width="1400px"
	 height="1400px" viewBox="0 0 1400 1400" enable-background="new 0 0 1400 1400" xml:space="preserve">
<g id="BG">
	<rect id="XMLID_495_" x="0" fill="#FFCC00" width="1400" height="1400"/>
	<path id="XMLID_494_" fill="#FF9FC5" d="M1403,1103c-445.6-47.3-914.2-42.9-1400,0l0,297h1400V1103z"/>
	<ellipse id="XMLID_997_" fill="#004396" cx="703" cy="1159.7" rx="564.5" ry="54.1"/>
</g>
<g id="OBJ">
	<g id="XMLID_1354_">
		<polygon id="XMLID_1362_" fill="#004396" points="449.6,1040.9 490.6,1122.5 604.4,1122.5 591.3,1093.2 553.4,1084.8 557.9,934.9 
					"/>
		<polygon id="XMLID_371_" fill="#004396" points="1171.4,1093 1116.4,1077.3 1025.2,851.1 948.7,822.8 899.3,972 1042.6,1121.3 
			1179.4,1121.3 		"/>
		<polygon id="XMLID_397_" fill="#FFFFFF" points="1275.4,792 1243.4,849.6 973.2,824 973.2,842.5 877,840.6 905.6,863.8 
			814,1078.5 814,1186.6 758.1,1186.6 726.4,1151.1 726.4,904.3 705.3,934.8 476.3,934.8 494.3,958.2 309.7,1142.8 309.7,1201.6 
			279.1,1201.6 251.4,1095.6 318.2,957.7 279.1,911.4 251.4,767.6 484,624.4 461,607 1105.8,686.1 1101,653.5 		"/>
		<polygon id="XMLID_241_" fill="#004396" points="726.4,904.3 726.4,965.2 556.5,979.7 347.4,1144 385.3,1180.1 377.3,1201.6 
			309.7,1201.6 309.7,1142.8 494.3,958.2 476.3,934.8 705.3,934.8 		"/>
		<path id="XMLID_439_" fill="#004396" d="M1243.4,849.6h-206.9V879l-15-13.7c-11.5,12.1-27.1,28.9-31.3,33.4
			c-0.2,0.2-0.3,0.3-0.4,0.4l-0.7,0.7l-6.9-24.3l-43,67.3l-3.8-33.1l-96.7,190.1v44.1l42.7,18.5l14.2,24.2H814v-108.2l91.6-214.7
			L877,840.6l96.2,1.9V824L1243.4,849.6z"/>
		<path id="XMLID_1358_" fill="#A8ABAD" d="M466.3,1074.2"/>
		<polygon id="XMLID_1356_" fill="#004396" points="473.2,1087.9 555.7,1008.2 556.5,979.7 457.8,1057.2 		"/>
		<circle id="XMLID_943_" fill="#004396" cx="1142.1" cy="749" r="7.3"/>
		<polygon id="XMLID_623_" fill="#004396" points="1249.9,771.7 1243.4,799.1 1265.7,809.5 1275.4,792 		"/>
	</g>
</g>
<g id="FG">
	<g id="XMLID_249_">
		<g id="XMLID_250_">
			<circle id="XMLID_277_" fill="#FFFFFF" cx="335" cy="233.3" r="13.5"/>
			<circle id="XMLID_276_" fill="#FFFFFF" cx="132" cy="426.8" r="13.5"/>
			<circle id="XMLID_275_" fill="#FFFFFF" cx="555" cy="555.1" r="9"/>
			<circle id="XMLID_274_" fill="#FFFFFF" cx="849.4" cy="300.8" r="14.6"/>
			<circle id="XMLID_273_" fill="#FFFFFF" cx="535.3" cy="340.8" r="14.6"/>
			<circle id="XMLID_272_" fill="#FFFFFF" cx="995.7" cy="934.7" r="14.6"/>
			<circle id="XMLID_271_" fill="#FFFFFF" cx="649.5" cy="68.8" r="8.3"/>
			<circle id="XMLID_270_" fill="#FFFFFF" cx="112.2" cy="100" r="6.3"/>
			<circle id="XMLID_269_" fill="#FFFFFF" cx="1308.8" cy="100" r="6.3"/>
			<circle id="XMLID_268_" fill="#FFFFFF" cx="75" cy="1049.2" r="6.3"/>
			<circle id="XMLID_267_" fill="#FFFFFF" cx="641.2" cy="576.4" r="21.3"/>
			<circle id="XMLID_266_" fill="#FFFFFF" cx="795.3" cy="793.1" r="10.7"/>
			<circle id="XMLID_263_" fill="#FFFFFF" cx="629.4" cy="886.1" r="7.1"/>
			<circle id="XMLID_262_" fill="#FFFFFF" cx="255.6" cy="793.1" r="9.5"/>
			<circle id="XMLID_261_" fill="#FFFFFF" cx="525.8" cy="1140.9" r="9.5"/>
			<circle id="XMLID_260_" fill="#FFFFFF" cx="995.7" cy="1333.7" r="16.1"/>
			<circle id="XMLID_259_" fill="#FFFFFF" cx="757.7" cy="1201.6" r="16.1"/>
			<circle id="XMLID_258_" fill="#FFFFFF" cx="1188" cy="187.5" r="9.5"/>
			<circle id="XMLID_257_" fill="#FFFFFF" cx="1179" cy="761.7" r="6.7"/>
			<circle id="XMLID_256_" fill="#FFFFFF" cx="1297.1" cy="980.7" r="5.4"/>
			<circle id="XMLID_255_" fill="#FFFFFF" cx="705.4" cy="1262.6" r="5.4"/>
			<circle id="XMLID_254_" fill="#FFFFFF" cx="1111.6" cy="1147.3" r="12.3"/>
			<circle id="XMLID_253_" fill="#FFFFFF" cx="1232.1" cy="1268.1" r="7.9"/>
			<circle id="XMLID_252_" fill="#FFFFFF" cx="1339.5" cy="622.3" r="13.9"/>
			<circle id="XMLID_251_" fill="#FFFFFF" cx="272.5" cy="1262.6" r="20.4"/>
		</g>
	</g>
</g>
</svg>
