<?xml version="1.0" encoding="utf-8"?>
<!-- Generator: Adobe Illustrator 21.0.0, SVG Export Plug-In . SVG Version: 6.00 Build 0)  -->
<svg version="1.1" id="Layer_1" xmlns="http://www.w3.org/2000/svg" xmlns:xlink="http://www.w3.org/1999/xlink" x="0px" y="0px"
	 width="1400px" height="980px" viewBox="0 0 1400 980" enable-background="new 0 0 1400 980" xml:space="preserve">
<g>
	<g>
		<g>
			<linearGradient id="XMLID_13_" gradientUnits="userSpaceOnUse" x1="700" y1="87" x2="700" y2="837.733">
				<stop  offset="8.108108e-03" style="stop-color:#895881"/>
				<stop  offset="1" style="stop-color:#D6562B"/>
			</linearGradient>
			<rect id="XMLID_7_" fill="url(#XMLID_13_)" width="1400" height="980"/>
		</g>
	</g>
	<g id="XMLID_357_">
		<polygon id="XMLID_359_" fill="#824737" points="1358.3,643 1358.3,600.6 1343.4,606.5 1342.2,687.1 1314,687.1 1314,654.3 
			1297,650 1297,581.6 1269.9,581.6 1269.9,520.7 1248.5,529.1 1246.8,644.8 1235.3,644.8 1235.3,643 1216.4,643 1216.4,600.6 
			1206.3,604.6 1206.3,597.7 1172.7,589.3 1172.7,630.7 1155.9,630.7 1155.9,562.7 1133.6,562.7 1133.6,581.6 1128,581.6 
			1128,520.7 1106.6,529.1 1104.9,644.8 1064.4,644.8 1064.4,597.7 1030.8,589.3 1030.8,630.7 1014,630.7 1014,562.7 991.7,562.7 
			991.7,630.7 983,630.7 983,588.2 956.8,588.2 956.8,529.4 936.1,537.5 934.5,649.4 895.3,649.4 895.3,603.8 871.6,597.9 
			871.6,502.9 834,502.9 834,418.3 804.3,430 802,590.7 785.9,590.7 785.9,588.2 759.7,588.2 759.7,529.4 745.7,534.9 745.7,525.3 
			699,513.7 699,571.1 675.7,571.1 675.7,476.7 644.8,476.7 644.8,502.9 637,502.9 637,418.3 607.2,430 604.9,590.7 549.5,590.7 
			549.5,580.2 548.6,580.5 548.6,525.3 501.9,513.7 501.9,571.1 478.6,571.1 478.6,476.7 447.7,476.7 447.7,559 426.7,559 
			426.7,491.4 397,500.7 394.7,629.3 378.6,629.3 378.6,627.3 352.5,627.3 352.5,580.2 338.4,584.6 338.4,577 291.7,567.6 
			291.7,613.6 268.4,613.6 268.4,538 237.5,538 237.5,559 229.7,559 229.7,491.4 199.9,500.7 197.6,629.3 141.3,629.3 141.3,577 
			94.6,567.6 94.6,613.6 71.3,613.6 71.3,538 40.4,538 40.4,613.6 28.3,613.6 28.3,775 212.2,775 225.3,775 267.3,775 378.6,775 
			409.3,775 435.6,775 464.4,775 575.7,775 619.5,775 632.6,775 674.6,775 708.1,775 717.6,775 747.8,775 785.9,775 816.6,775 
			828,775 850,775 871.6,775 889.7,775 969.9,775 983,775 1115.4,775 1124.9,775 1155.1,775 1235.3,775 1257.3,775 1297,775 
			1377.2,775 1377.2,643 		"/>
	</g>
	<g>
		<path fill="#ED6A56" d="M1168.1,449.1l-15-43.4l-21,11.9l-63-69c0,0,19.5-67.5,4.5-109.5s-117-52.5-117-52.5l-52.4,38.1
			c-19.4-3.3-37.9-5.3-55.4-6.2L839,183c-79-46-119,25-119,25l6.1,21.2c-2.4,0.6-4.7,1.2-7,1.7c-10.3-11.2-24.5-23-38.8-22.6l-74,16
			c0,0-26,75.3-3.3,117.3l18,14l-6.4,75.4l-56.8,37.5c0,0,29.8,96.2-35.3,135c11.1,57,97.1,60,97.1,60L700,533.1l0-55.5l14.4-17.1
			c39.4,20.4,79.4,21.6,79.4,21.6l16.3,53.7l-16.3,6.3v51.5h12.8l-3,32.1l-109.4,37.9c0,0,117,52.5,123,52.5c6,0,250.5-35,250.5-35
			l-3.2-51.1l37.7,12.6L1168.1,449.1z M1019.3,503l-11.1-9.7l-8.1-48.8l12.9-24.1l29.1,15.5L1019.3,503z"/>
		<path fill="#542E50" d="M1085,614.3l65.3-157.3l-12-8.7l-34,72.7l-14.7-7.3l27.3-90l-28-4.7l-38-38l18-11.3l-23.3-25.4l-16,2.8
			v-12.7l23.3-2.7c9.3-24-6-48-6-48c-13.3,14-50,15.3-56.7-19.3c-6.7-34.7,22.7-38,22.7-38c-52.7-27.3-81.3,21.3-81.3,21.3l-58.7,10
			l17.3,70.7l44-7.3l18.7,68l60,31.5l29.1,15.5l-22.8,67.1L999,521h-33l-9-14l36.7-5.7l-20-48.3l-55.3,16l5.3,28l-39.3,4.3l-2.7-6.3
			l28-5l-15.3-32.3l-59.7,8l-27.7-40l13.3-3.3l48.7,29.3l82-12.7l-23.3-34l13.3-12l-6.7-23.3L889.7,385l-2.7-10l43.3-15.3l-8.7-28.7
			l-73.3,20.7l-34.7,26.7l-4-16.7l25.3-16l-6.7-29.3L839,301l-10.7-57.3l-4.7,11.3l4.7,33.3h-8.7l-8.7-50.7l8.7-12.7l-8.7-31.3
			l-43.3,20v24H739l-4.7-23.3L720,208l6.1,21.2c-2.4,0.6-4.7,1.2-7,1.7c-10.3-11.2-24.5-23-38.8-22.6l-74,16c0,0-26,75.3-3.3,117.3
			l18,14l-6.4,75.4l-56.8,37.5c0,0-36.8,110.4-52.8,150.4c18.9,46.4,58,52.5,85.3,50.4c-0.7-2.6-1.3-4.8-1.3-4.8l23.1-8.8l53.4-86.7
			l-1.5-4.2l-21.5,33l-4-8.8l29.5-42l4.5,11l19-30.5c2.1-22.8-13-48.3-13-48.3l9-7.8l-15-5.5l19-14.5l22.9,9
			c39.4,20.4,79.4,21.6,79.4,21.6l16.3,53.7l-16.3,6.3v51.5h12.8l-3,32.1l-109.4,37.9c0,0,117,52.5,123,52.5c6,0,250.5-35,250.5-35
			l-3.2-51.1l37.7,12.6L1085,614.3z"/>
		<g>
			<polygon fill="#271427" points="835,345.7 834.9,345.2 832.5,347.2 			"/>
			<path fill="#271427" d="M1150.3,457l-12-8.7l-34,72.7l-14.7-7.3l27.3-90l-28-4.7l-38-38l18-11.3l-23.3-25.4l-16,2.8v-12.7
				l23.3-2.7c9.3-24-6-48-6-48c-13.3,14-50,15.3-56.7-19.3c-6.7-34.7,22.7-38,22.7-38c-52.7-27.3-81.3,21.3-81.3,21.3l-58.7,10
				l17.3,70.7l44-7.3l18.7,68l60,31.5l29.1,15.5l-22.8,67.1L999,521h-33l-9-14l18.9-2.9l-9.6-21.7H949l-9.5-19.4l-21.1,6.1l5.3,28
				l-39.3,4.3l-2.7-6.3l28-5l-15.3-32.3l-59.7,8l-27.7-40l13.3-3.3l48.7,29.3l60.4-9.3l-17.7-36l-22.7,9.5l-16.7-50.2l-12,6.7
				l-2.8-23.3l-9.2,2.6l-34.7,26.7l-4-16.7l8.4-5.3l-3.7-10.7l14-29.3L839,301l-10.7-57.3l-4.7,11.3l4.7,33.3h-8.7l-12,31l-2.3-23
				l4.3-16.5l-14.3-79l-7.3,3.4l12.2,64.4l-5,2.3L784,206.1l-16.3,7.5v24H739l-4.7-23.3L720,208l6.1,21.2l15.6,57.5l6,7L759,337
				l-11.3,30L695,341l-5.3,26l-5.3-38.7c0,0-13.3-4-22.7-27.3c-9.3-23.3-5.3-70.7-5.3-70.7l-50-6c0,0-26,75.3-3.3,117.3l18,14
				l-6.4,75.4l-56.8,37.5c0,0-36.8,110.4-52.8,150.4c18.9,46.4,58,52.5,85.3,50.4c-0.7-2.6-1.3-4.8-1.3-4.8l23.1-8.8l4.1-6.7
				c-7.1-6-13.9-12-13.9-12l26.7-28.7l-9.3-16.7l62-76l-6-17.3l-93.2,131.1h-8.1L671,490l-12-25.7l8-9.5l-8-13.1l12-30.1l20.5,39.8
				l22.9,9c39.4,20.4,79.4,21.6,79.4,21.6l16.3,53.7l-16.3,6.3v51.5h12.8l-3,32.1l-109.4,37.9c0,0,117,52.5,123,52.5
				c6,0,203.4-30,203.4-30l11.2-67l70.4,23.5l-17.1-28.2L1150.3,457z"/>
		</g>
		<rect x="832.7" y="326.3" fill="#ED6A56" width="21.7" height="298"/>
		<rect x="865" y="326.3" fill="#ED6A56" width="9.1" height="298"/>
		<rect x="687.3" y="536" fill="#ED6A56" width="7.7" height="145.1"/>
		<rect x="1001.6" y="277.7" fill="#ED6A56" width="12.9" height="355.7"/>
		<rect x="1021.3" y="277.7" fill="#ED6A56" width="3.7" height="355.7"/>
		<rect x="788.3" y="197.7" fill="#ED6A56" width="5.3" height="465.3"/>
		<circle fill="#00BBD6" cx="768" cy="277.7" r="9"/>
		<polygon fill="#00BBD6" points="624.3,301 624.3,318.3 656.3,344.3 656.3,336.3 		"/>
		<polygon fill="#00BBD6" points="971.7,257.5 945,277.9 947,279.9 970.5,269.2 		"/>
		<polygon fill="#00BBD6" points="720.3,406.3 756.7,418 756.7,425.3 722.3,418.3 		"/>
		
			<ellipse transform="matrix(0.4365 -0.8997 0.8997 0.4365 -250.922 866.1318)" fill="#D6562B" cx="566" cy="633.4" rx="30.8" ry="51.2"/>
		<path fill="#F4BB3A" d="M579.4,605.7c-22.1-10.7-45.1-10.3-55.6,0l18,1l-20.3,1.8c-0.5,0.7-1,1.5-1.4,2.3l21.2-2v4l-23,4
			c-0.3,2-0.3,4,0,6.1l24.5-6.1c0,0,7.3,15.8,24.5,19.3c0,0-14.3-7.5-11.3-14s3.8,1.8,11.3,6s15.3-1.6,15.3-1.6v8.6l6.3,2.5h-12.3
			l-5.8,29.9c1.2,0.3,2.4,0.5,3.6,0.7l4.4-27.1l1.8,1l1.8,26.9c2.6,0.1,5.1,0,7.5-0.2l-5.3-27.2l3.5-0.8l7.5,26.9
			c3.8-0.9,7.2-2.4,10-4.4l-9-21.8l12.8,18.3c1.1-1.2,2-2.6,2.7-4.1C619.5,640.4,604.9,618.1,579.4,605.7z"/>
	</g>
	<path fill="#ED7C31" d="M987.9,564.8L1400,683v277H0l0-321.9C520,771.8,987.9,564.8,987.9,564.8z"/>
	<path fill="#F09B36" d="M412.1,694.3L0,773.7V960h1400V743.5C880,833.5,412.1,694.3,412.1,694.3z"/>
	<path fill="#F4BB3A" d="M503.8,757.6l23.5-10.6l-19.9-53h-2.8l-5.9-15.1l2.3-2.5l-11.8-33.1l-21,11.9l-4.5-12.3l3.7-2l-2.2-10.8
		l-4.1-0.2c0,0-0.6-17.9-1.7-22.4c-1.1-4.5,3.9-7.3,3.9-7.3l-0.4-27.8L442.7,559v-7c-1.8-1.5-3.6-2.8-5.5-3.9l-0.1-2.5l4.4-0.3
		l0.4-15.4l2.6-0.4l-2.6-10.3l0.6-4.7l-1.6-4c0,0,6.8-1.9,0.9-6.5c-3.9-3-7.8-2.6-7.8-2.6l2.7,2c0,0-19.2-0.6-27,12.2l4.2,6.4
		l2.6,10.4l0,8.5c-4.3-0.6-7-0.4-7-0.4l-2.1,11.2L388,563.9l0.1,1.4L370,610.6l-3.7,1.8l1,9.7l2.8,0.3l11.7,25.8l1,2.6l1.9,15.4
		l4.9-2.4l-2.7,20.5l10.6,10.6l3,16.9l-14.8,39.1l0.7,12.5l-14.2,42.6l-6,14.9h22.4h20.9c-3-11.6-14.6-9.7-14.6-9.7l-4.5-6.7
		L404,770h10.5c-1.9-9.3,17.6-28.2,17.6-28.2l0.5-11.9l33.2,33.1l-4.1,23.2l4.5,8.6l-7.8,66.1h42.6c1.9-13.1-6.7-10.2-6.7-10.2
		l-13.5-9.9l5.8-37.4l6.5-6.4c-5.2-7.5,3.4-52.3,3.4-52.3l-16.9-22.9l13.2-8.6l7,19.3l-4.2,3.9L503.8,757.6z M382.4,621.3l2.2-0.9
		l1.6-6.8l-1.8-0.7l4.7-6.1l-1.8,32.7L382.4,621.3z M471.6,711.1l-30-40.6l1.1-11.5l4.5-6.2c-1.8-1.1-2.9-3.5-3.6-6.1l4.9,4.3
		l1.1-0.6l19.2,32.2l-6.5,1.6l8.2,16.2l3-1.2l-1.1-2.4l3-0.8l2.2,4.6l3.3-1.4l0.8-1.8l5.3-2.7l1.2,0.2l1,3L471.6,711.1z"/>
	<path fill="#5E2B1F" d="M385.7,750.8l0.7,12.5l-14.2,42.6l-6,14.9h22.4h20.9c-3-11.6-14.6-9.7-14.6-9.7l-4.5-6.7L404,770h10.5
		c-1.9-9.3,17.6-28.2,17.6-28.2l0.5-11.9l-40.5,4.3L385.7,750.8z"/>
	<path d="M522.5,746.8l-3.6-8.3l0.7-1.7l-3.9-9.9l1.8-2.8l-8.2-22.3l-0.7,0.2l3.7,10h-0.8l-6-15.1l-1.8-0.8l-5.8-15.6l-1.1,0.8l2,4
		h-1.5l-4.7-11.8l2.8-3.1l-4.9-12.8l0.8-2.2l-3.5-8.9l-19.5,8.9l-0.4,1.7l-0.9-1.3l-1.5,6.4l-2.4-18.3l-2,0.5l-0.4-1
		c0,0,3.8-2.1,3.4-3s-3.2,0.2-3.3-1.5s1.4-5.5,1.4-5.5l-6.6-1.6l3.6-1l-3.4-3.1c0,0,3.1-1.7,2.9-3.1c-0.2-1.5-4.6-5.3-4.6-5.3
		s4.7-13.6,3.9-15.4c-0.8-1.9-3.9,6-3.9,6s-6,4.9-5.6,1.7c0.4-3.2,10.2-10.8,10.2-10.8s3.4-7.5,1.6-10.2s-4,4.7-4,4.7
		s-4-0.4-3.6-2.5s8.8-16.3,8-18s-0.9,0.7-3.8,0c-2.8-0.7-4.3-2.4-4.3-2.4s4.6,0.3,3.3-2.2s-18.8-5.6-18.7-7.7
		c0.1-2.1,4.8-2.9,4.8-2.9l-4.9-2.5l-0.2-3.1l3.9,2.3c0.1-4.1-4.3-3.9-4.3-3.9l-1.1-4.5l0.3-3.4l-2.2-4.8l6.3,4.1l-0.7-15.1l0.9,2.5
		l1.3-4.5l-1.7-8.1l1.1-2.1l-0.8-4.4l-3.4-4.9c3.4-0.2,3.1,1.8,3.1,1.8s2.5-0.4,2.5-2.6c0-2.2-8-4.6-8-4.6l2.7,2
		c0,0-19.2-0.6-27,12.2l4.2,6.4l2.6,10.4l0,8.5c-4.3-0.6-7-0.4-7-0.4l-2.1,11.2L388,563.9l0.1,1.4L370,610.6l-3.7,1.8l1,9.7l2.8,0.3
		l11.1,26.4l-0.8,3.9l4.2,13.4l4.9-2.4l-2.7,20.5l10.6,10.6l3,16.9l-14.8,39.1l46.8-21l33.2,33.1l-4.1,23.2l4.5,8.6l-7.8,66.1h42.6
		c-1.3-9.3-8.1-7.6-8.1-7.6s-8.5-6.9-11.5-7.9c-2.9-1-0.8,8.5-4.6,6.9c-3.8-1.7-0.6-4.2-0.6-4.2s-3.3,0.8-3.3-1.9
		c0-2.7,4.4-4.8,4.4-4.8l7.5-37.7h-3.1c0,0,8.8-5.6,7.3-8.6c-1.5-3-6.9,5.9-6.9,5.9s-5-1-4.8-3.1s9.8-9.8,9.8-9.8s3.8-17.5,1.8-19.6
		c-2-2.1-7.6,17.9-8.4,13.1s11.9-23.6,11.7-26.5s-3.1-2.9-3.3-6.3c-0.2-3.3,7.9-4.2,7.9-4.2l-16.9-22.9l13.2-8.6l7,19.3l-4.2,3.9
		l8.4,21.3l9.7-4.4l-2.3-1L522.5,746.8z M387.2,639.5l-4.1-18.5l1.5-0.6l1.6-6.8l-1.8-0.7l4.7-6.1L387.2,639.5z M471.6,711.1
		l-4.3,2.1l-7-4.2c0,0,1.7-6.5-1.7-10c-3.3-3.5-7.7-0.3-10.5-2.9c-2.8-2.6-4.7-10.3-4.7-10.3s5.3,0.5,2.7-3.4
		c-2.6-4-6.9-2.7-9.6-4.7c-2.7-2-4.5-9-4.5-9l7.2,1.3l1.3-11.2l-1.8-0.3l-1.3,7.6l-1.7-0.6l1.3-7.6l-5-2l11.5-9.2l4.9,4.3l1.1-0.6
		l19.2,32.2l-6.5,1.6l8.2,16.2l3-1.2l-1.1-2.4l3-0.8l2.2,4.6l3.3-1.4l0.8-1.8l5.3-2.7l1.2,0.2l1,3L471.6,711.1z"/>
	<path d="M406.5,820.8c-2.7-8-12.2-7.2-12.2-7.2l-6.7-8.3l-4,3.1c0,0-5.2-0.8-3.8-3.3c1.5-2.5,7.9-4.4,7.9-4.4l13.6-32.9l-10.8-3.5
		c2.3-8.3,15.6,2.1,15.6,2.1l4.8-15.6l-6.9-12.5l-15.9,6l-2.5,6.6l0.7,12.5l-14.2,42.6l-6,14.9h22.4H406.5z"/>
	<path d="M369.7,818L10.7,878.5L27,972h305l168.8-111.2l-35.3-1.8c0,0-197.6,40.1-296.8,45.1l240.9-83.3L369.7,818z"/>
	<polygon points="1318.7,622.1 1300.8,527.5 1241.7,513 1188.2,720.3 1158.1,686.9 1128,711.5 1138,755.7 1114.8,765.5 1068,701.8 
		1036.5,755.7 1077.9,847.5 1058,859.6 1042.1,889.4 998.6,889.4 933.2,972 1385.6,972 1385.6,669.3 	"/>
	<path fill="#FFFFFF" d="M0,0v980h1400V0H0z M1371.7,891.9c0,37.8-30.6,68.4-68.4,68.4H96.6c-37.8,0-68.4-30.6-68.4-68.4V88.1
		c0-37.8,30.6-68.4,68.4-68.4h1206.7c37.8,0,68.4,30.6,68.4,68.4V891.9z"/>
</g>
</svg>
