<svg id="Layer" xmlns="http://www.w3.org/2000/svg" xmlns:xlink="http://www.w3.org/1999/xlink" viewBox="0 0 336.31 235.26"><defs><style>.cls-1{fill:url(#Névtelen_színátmenet_20);}.cls-2{fill:url(#Névtelen_színátmenet_47);}.cls-16,.cls-17,.cls-18,.cls-19,.cls-20,.cls-3,.cls-4{fill:#fff;}.cls-3,.cls-7{opacity:0.8;}.cls-5{opacity:0.6;}.cls-6{fill:#f6f8f9;}.cls-8{fill:url(#Névtelen_színátmenet_543);}.cls-9{fill:url(#Névtelen_színátmenet_543-2);}.cls-10,.cls-20{opacity:0.7;}.cls-11{fill:url(#Névtelen_színátmenet_543-3);}.cls-12{fill:url(#Névtelen_színátmenet_543-4);}.cls-13{fill:#502461;}.cls-14{fill:url(#Névtelen_színátmenet_13);}.cls-15{fill:#6e437e;}.cls-15,.cls-23{opacity:0.3;}.cls-16{opacity:0.4;}.cls-17,.cls-21{opacity:0.2;}.cls-18,.cls-33{opacity:0.5;}.cls-19,.cls-22{opacity:0.1;}.cls-21,.cls-22,.cls-26{fill:#3d1c54;}.cls-23{fill:url(#Névtelen_színátmenet_543-5);}.cls-24{fill:#d75a81;}.cls-25{fill:url(#Névtelen_színátmenet_64);}.cls-27,.cls-30{fill:#28275b;}.cls-28,.cls-31{fill:#1e2045;}.cls-29,.cls-32{fill:#372974;}.cls-30,.cls-31,.cls-32{fill-rule:evenodd;}.cls-33{fill:url(#Névtelen_színátmenet_27);}.cls-34{fill:url(#Névtelen_színátmenet_3);}.cls-35{fill:url(#Névtelen_színátmenet_3-2);}</style><linearGradient id="Névtelen_színátmenet_20" x1="168.07" y1="235.19" x2="168.07" y2="180.97" gradientUnits="userSpaceOnUse"><stop offset="0.06" stop-color="#99357d"/><stop offset="0.66" stop-color="#d75a81"/></linearGradient><linearGradient id="Névtelen_színátmenet_47" x1="168.07" y1="85.74" x2="168.07" gradientUnits="userSpaceOnUse"><stop offset="0.44" stop-color="#f7c7d5"/><stop offset="0.56" stop-color="#f5b9cb"/><stop offset="0.79" stop-color="#f193b2"/><stop offset="1" stop-color="#ec6c97"/></linearGradient><linearGradient id="Névtelen_színátmenet_543" x1="865.39" y1="351.93" x2="1110.85" y2="263.11" gradientTransform="translate(-790.69 -117.16)" gradientUnits="userSpaceOnUse"><stop offset="0" stop-color="#fff" stop-opacity="0"/><stop offset="1" stop-color="#fff"/></linearGradient><linearGradient id="Névtelen_színátmenet_543-2" x1="-599.02" y1="349.78" x2="-412.83" y2="282.41" gradientTransform="matrix(-1, 0, 0, 1, -400.69, -117.16)" xlink:href="#Névtelen_színátmenet_543"/><linearGradient id="Névtelen_színátmenet_543-3" x1="947.8" y1="354.88" x2="1116.01" y2="294.02" xlink:href="#Névtelen_színátmenet_543"/><linearGradient id="Névtelen_színátmenet_543-4" x1="810.83" y1="383.99" x2="1107.4" y2="276.67" xlink:href="#Névtelen_színátmenet_543"/><linearGradient id="Névtelen_színátmenet_13" x1="168.07" y1="180.97" x2="168.07" y2="85.74" gradientUnits="userSpaceOnUse"><stop offset="0" stop-color="#99357d"/><stop offset="0.09" stop-color="#a73d7e"/><stop offset="0.26" stop-color="#bc4a7f"/><stop offset="0.45" stop-color="#cb5380"/><stop offset="0.67" stop-color="#d45881"/><stop offset="1" stop-color="#d75a81"/></linearGradient><linearGradient id="Névtelen_színátmenet_543-5" x1="30.46" y1="211.55" x2="320.56" y2="211.55" gradientTransform="matrix(1, 0, 0, 1, 0, 0)" xlink:href="#Névtelen_színátmenet_543"/><linearGradient id="Névtelen_színátmenet_64" x1="225.88" y1="78.29" x2="225.89" y2="78.33" gradientUnits="userSpaceOnUse"><stop offset="0" stop-color="#fff" stop-opacity="0.2"/><stop offset="0.16" stop-color="#fff" stop-opacity="0.22"/><stop offset="0.34" stop-color="#fff" stop-opacity="0.27"/><stop offset="0.53" stop-color="#fff" stop-opacity="0.36"/><stop offset="0.74" stop-color="#fff" stop-opacity="0.49"/><stop offset="0.94" stop-color="#fff" stop-opacity="0.65"/><stop offset="1" stop-color="#fff" stop-opacity="0.7"/></linearGradient><linearGradient id="Névtelen_színátmenet_27" x1="167.99" y1="95.13" x2="167.99" y2="85.74" gradientUnits="userSpaceOnUse"><stop offset="0.11" stop-color="#fff" stop-opacity="0"/><stop offset="0.26" stop-color="#fff" stop-opacity="0.01"/><stop offset="0.38" stop-color="#fff" stop-opacity="0.05"/><stop offset="0.48" stop-color="#fefefe" stop-opacity="0.12"/><stop offset="0.58" stop-color="#fdfdfe" stop-opacity="0.21"/><stop offset="0.68" stop-color="#fcfdfd" stop-opacity="0.34"/><stop offset="0.77" stop-color="#fbfcfc" stop-opacity="0.49"/><stop offset="0.86" stop-color="#f9fafb" stop-opacity="0.67"/><stop offset="0.95" stop-color="#f7f9fa" stop-opacity="0.87"/><stop offset="1" stop-color="#f6f8f9"/></linearGradient><linearGradient id="Névtelen_színátmenet_3" x1="74.69" y1="95.46" x2="74.69" y2="85.74" gradientUnits="userSpaceOnUse"><stop offset="0.11" stop-color="#fff" stop-opacity="0"/><stop offset="0.35" stop-color="#fff" stop-opacity="0.01"/><stop offset="0.55" stop-color="#fdfefe" stop-opacity="0.05"/><stop offset="0.72" stop-color="#fbfcfd" stop-opacity="0.12"/><stop offset="0.88" stop-color="#f9fafb" stop-opacity="0.21"/><stop offset="1" stop-color="#f6f8f9" stop-opacity="0.3"/></linearGradient><linearGradient id="Névtelen_színátmenet_3-2" x1="250.75" y1="95.46" x2="250.75" y2="85.74" gradientTransform="matrix(-1, 0, 0, 1, 512.21, 0)" xlink:href="#Névtelen_színátmenet_3"/></defs><title>eezy_02</title><rect class="cls-1" x="0.08" y="180.97" width="335.99" height="54.22"/><rect class="cls-2" x="0.08" width="335.99" height="85.74"/><path class="cls-3" d="M0,85.74l142.21-.12c-.31-1.47-3.49-8.7-10.8-8.7a4.47,4.47,0,0,0-1.33.22,5.24,5.24,0,0,0-4.67-2.65,6.4,6.4,0,0,0-.88.08C123.18,71.87,119.88,70,116,70a11.72,11.72,0,0,0-1.33.09s0-.06,0-.09a8,8,0,0,0-7.75-8.07c-.6-3.94-4.36-7-8.91-7A9.61,9.61,0,0,0,92,57,4.73,4.73,0,0,0,88.2,54.2,5.75,5.75,0,0,0,77.27,54a1.78,1.78,0,0,0-.82-.21,1.94,1.94,0,0,0-1.76,1.24,1.22,1.22,0,0,0-.59-.2,2.55,2.55,0,0,0-2.29-2.47c0-.06,0-.12,0-.18a5.29,5.29,0,0,0-5.49-5.07,5.88,5.88,0,0,0-1.2.13,2.36,2.36,0,0,0-1.35-1.4,2.79,2.79,0,0,0,.54-1.65,3,3,0,0,0-3-2.87,3.38,3.38,0,0,0-.72.09A2.74,2.74,0,0,0,58,39a2.64,2.64,0,0,0-2.29,1.39,2.82,2.82,0,0,0-1.31-.35,2.92,2.92,0,0,0-2.82,2.62H51.4a1.9,1.9,0,0,0-2,1.84,1.35,1.35,0,0,0,0,.28,7.63,7.63,0,0,0-2-.28,6.68,6.68,0,0,0-6.88,5.65,4.2,4.2,0,0,0-3.92,3.09l-.72.41a7.82,7.82,0,0,0-5.63-2.28,7.31,7.31,0,0,0-7.18,4.9,2.94,2.94,0,0,0-2.6,2.83,2.83,2.83,0,0,0-.78-.13,2.2,2.2,0,0,0-2.26,1.79,8.09,8.09,0,0,0-4.35-1.27,8.27,8.27,0,0,0-2.07.27,4.16,4.16,0,0,0-5.93-.71,10.49,10.49,0,0,0-3.92-.76,11.7,11.7,0,0,0-1.2.08Z" transform="translate(0.08)"/><path id="_Csoport_" data-name="&lt;Csoport&gt;" class="cls-4" d="M209.11,25.73a.68.68,0,0,1,.59-.59l.1-2.05.1,2.05a.7.7,0,0,1,.6.59l2,.1-2,.1a.72.72,0,0,1-.6.6l-.1,2-.1-2a.7.7,0,0,1-.59-.6l-14.66-.1Z" transform="translate(0.08)"/><circle class="cls-4" cx="312.82" cy="57.31" r="0.57"/><circle class="cls-4" cx="280.2" cy="57.31" r="0.57"/><g id="snowflakes" class="cls-5"><g class="cls-5"><path class="cls-4" d="M270.22,63.79a.67.67,0,1,0-.67.65A.66.66,0,0,0,270.22,63.79Z" transform="translate(0.08)"/><path class="cls-4" d="M212.9,52.21a.66.66,0,0,0-.67-.65.65.65,0,1,0,0,1.3A.66.66,0,0,0,212.9,52.21Z" transform="translate(0.08)"/><path class="cls-4" d="M135.78,68.09a.66.66,0,0,0-.67-.65.65.65,0,1,0,0,1.3A.66.66,0,0,0,135.78,68.09Z" transform="translate(0.08)"/><path class="cls-4" d="M182,72.35a.66.66,0,0,0-.67-.65.65.65,0,1,0,0,1.3A.67.67,0,0,0,182,72.35Z" transform="translate(0.08)"/><path class="cls-4" d="M201.32,28.8a.67.67,0,1,0-.67.65A.66.66,0,0,0,201.32,28.8Z" transform="translate(0.08)"/><path class="cls-4" d="M247.51,33.05a.67.67,0,1,0-.67.65A.66.66,0,0,0,247.51,33.05Z" transform="translate(0.08)"/><path class="cls-4" d="M308.45,46a.67.67,0,1,0-.67.65A.66.66,0,0,0,308.45,46Z" transform="translate(0.08)"/><path class="cls-4" d="M150.74,46.88a.67.67,0,1,0-.67.65A.66.66,0,0,0,150.74,46.88Z" transform="translate(0.08)"/><path class="cls-4" d="M166.29,29.45a.65.65,0,0,0-.66-.65.65.65,0,1,0,0,1.3A.65.65,0,0,0,166.29,29.45Z" transform="translate(0.08)"/><path class="cls-4" d="M257.43,21.89a.65.65,0,0,0-.66-.65.65.65,0,1,0,0,1.3A.65.65,0,0,0,257.43,21.89Z" transform="translate(0.08)"/><path class="cls-4" d="M287.54,71.7a.67.67,0,0,0-1.33,0,.67.67,0,0,0,1.33,0Z" transform="translate(0.08)"/><path class="cls-4" d="M130.62,100.16a.67.67,0,1,0-.66.65A.66.66,0,0,0,130.62,100.16Z" transform="translate(0.08)"/><path class="cls-4" d="M100.54,74a.67.67,0,1,0-.67.65A.66.66,0,0,0,100.54,74Z" transform="translate(0.08)"/></g><g class="cls-5"><path class="cls-4" d="M307.78,77.21a.66.66,0,0,0-.67-.65.65.65,0,1,0,0,1.29A.66.66,0,0,0,307.78,77.21Z" transform="translate(0.08)"/><path class="cls-4" d="M296.26,29.9a.67.67,0,1,0-.67.65A.66.66,0,0,0,296.26,29.9Z" transform="translate(0.08)"/><path class="cls-4" d="M247.15,78.87a.67.67,0,1,0-.67.65A.66.66,0,0,0,247.15,78.87Z" transform="translate(0.08)"/><path class="cls-4" d="M219.14,45.79a.67.67,0,1,0-.67.65A.66.66,0,0,0,219.14,45.79Z" transform="translate(0.08)"/><path class="cls-4" d="M265.33,50a.67.67,0,1,0-.67.65A.66.66,0,0,0,265.33,50Z" transform="translate(0.08)"/><path class="cls-4" d="M326.78,91.33a.67.67,0,1,0-.67.65A.66.66,0,0,0,326.78,91.33Z" transform="translate(0.08)"/><path class="cls-4" d="M234.1,24.58a.67.67,0,1,0-.67.65A.66.66,0,0,0,234.1,24.58Z" transform="translate(0.08)"/><path class="cls-4" d="M249.66,7.14a.67.67,0,0,0-1.34,0,.67.67,0,0,0,1.34,0Z" transform="translate(0.08)"/><path class="cls-4" d="M52.33,25a.67.67,0,1,0-.66.65A.66.66,0,0,0,52.33,25Z" transform="translate(0.08)"/><path class="cls-4" d="M214,77.85a.67.67,0,1,0-.67.65A.66.66,0,0,0,214,77.85Z" transform="translate(0.08)"/><path class="cls-4" d="M183.9,51.66a.66.66,0,0,0-.66-.65.65.65,0,1,0,0,1.3A.65.65,0,0,0,183.9,51.66Z" transform="translate(0.08)"/><path class="cls-4" d="M193.52,5.85a.66.66,0,0,0-.66-.66.67.67,0,0,0-.67.66.66.66,0,0,0,.67.64A.65.65,0,0,0,193.52,5.85Z" transform="translate(0.08)"/></g><g class="cls-5"><path class="cls-4" d="M157.89,70.87a.28.28,0,0,0-.28-.28.29.29,0,0,0-.28.28.28.28,0,0,0,.28.27A.27.27,0,0,0,157.89,70.87Z" transform="translate(0.08)"/><path class="cls-4" d="M122.47,40.68a.27.27,0,0,0-.28-.27.27.27,0,1,0,0,.54A.27.27,0,0,0,122.47,40.68Z" transform="translate(0.08)"/><path class="cls-4" d="M94.15,89a.28.28,0,1,0-.28.27A.27.27,0,0,0,94.15,89Z" transform="translate(0.08)"/><ellipse class="cls-4" cx="220.01" cy="79.48" rx="0.28" ry="0.27"/><path class="cls-4" d="M179,44.62a.28.28,0,1,0-.27.27A.27.27,0,0,0,179,44.62Z" transform="translate(0.08)"/><path class="cls-4" d="M65.84,34a.28.28,0,0,0-.28-.27.27.27,0,1,0,0,.54A.28.28,0,0,0,65.84,34Z" transform="translate(0.08)"/><path class="cls-4" d="M125.93,85.92a.28.28,0,1,0-.28.27A.28.28,0,0,0,125.93,85.92Z" transform="translate(0.08)"/><path class="cls-4" d="M8.92,54.9a.27.27,0,0,0-.27-.27.27.27,0,1,0,0,.54A.27.27,0,0,0,8.92,54.9Z" transform="translate(0.08)"/><path class="cls-4" d="M23.56,17.59a.28.28,0,1,0-.28.27A.28.28,0,0,0,23.56,17.59Z" transform="translate(0.08)"/><path class="cls-4" d="M295.84,31.28a.28.28,0,1,0-.28.27A.28.28,0,0,0,295.84,31.28Z" transform="translate(0.08)"/><path class="cls-4" d="M329.22,102.37a.28.28,0,1,0-.27.27A.27.27,0,0,0,329.22,102.37Z" transform="translate(0.08)"/><path class="cls-4" d="M183.24,81.35a.28.28,0,0,0-.28-.27.27.27,0,1,0,0,.54A.28.28,0,0,0,183.24,81.35Z" transform="translate(0.08)"/><path class="cls-4" d="M239.66,7.92a.28.28,0,1,0-.28.27A.28.28,0,0,0,239.66,7.92Z" transform="translate(0.08)"/><path class="cls-4" d="M206.6,39.29a.27.27,0,0,0-.28-.27.28.28,0,0,0-.28.27.29.29,0,0,0,.28.28A.28.28,0,0,0,206.6,39.29Z" transform="translate(0.08)"/><path class="cls-4" d="M245.64,41.23a.28.28,0,1,0-.56,0,.28.28,0,0,0,.56,0Z" transform="translate(0.08)"/><path class="cls-4" d="M250.18,76.12a.28.28,0,0,0-.28-.27.27.27,0,1,0,0,.54A.28.28,0,0,0,250.18,76.12Z" transform="translate(0.08)"/><path class="cls-4" d="M145.86,19.91a.28.28,0,1,0-.27.27A.27.27,0,0,0,145.86,19.91Z" transform="translate(0.08)"/><path class="cls-4" d="M83.43,13.65a.28.28,0,1,0-.28.28A.28.28,0,0,0,83.43,13.65Z" transform="translate(0.08)"/><path class="cls-4" d="M169,83.22a.28.28,0,1,0-.55,0,.28.28,0,0,0,.55,0Z" transform="translate(0.08)"/></g><g class="cls-5"><path class="cls-4" d="M106.71,69.85a.28.28,0,0,0-.28-.27.27.27,0,1,0,0,.54A.28.28,0,0,0,106.71,69.85Z" transform="translate(0.08)"/><path class="cls-4" d="M71.29,39.67A.28.28,0,0,0,71,39.4a.27.27,0,1,0,0,.54A.28.28,0,0,0,71.29,39.67Z" transform="translate(0.08)"/><path class="cls-4" d="M43,88a.28.28,0,0,0-.28-.27.27.27,0,1,0,0,.54A.28.28,0,0,0,43,88Z" transform="translate(0.08)"/><path class="cls-4" d="M169,78.47a.28.28,0,0,0-.55,0,.28.28,0,0,0,.55,0Z" transform="translate(0.08)"/><path class="cls-4" d="M127.84,43.6a.28.28,0,0,0-.56,0,.28.28,0,0,0,.56,0Z" transform="translate(0.08)"/><path class="cls-4" d="M14.65,33a.28.28,0,0,0-.56,0,.28.28,0,0,0,.56,0Z" transform="translate(0.08)"/><path class="cls-4" d="M244.65,30.27a.28.28,0,1,0-.27.27A.27.27,0,0,0,244.65,30.27Z" transform="translate(0.08)"/><path class="cls-4" d="M278,101.36a.27.27,0,0,0-.28-.27.27.27,0,1,0,0,.54A.27.27,0,0,0,278,101.36Z" transform="translate(0.08)"/><path class="cls-4" d="M132.05,80.34a.28.28,0,1,0-.28.27A.28.28,0,0,0,132.05,80.34Z" transform="translate(0.08)"/><path class="cls-4" d="M188.48,6.9a.28.28,0,0,0-.28-.27.27.27,0,1,0,0,.54A.28.28,0,0,0,188.48,6.9Z" transform="translate(0.08)"/><path class="cls-4" d="M155.42,38.28a.28.28,0,0,0-.28-.27.27.27,0,1,0,0,.54A.28.28,0,0,0,155.42,38.28Z" transform="translate(0.08)"/><path class="cls-4" d="M194.46,40.21a.28.28,0,1,0-.28.27A.28.28,0,0,0,194.46,40.21Z" transform="translate(0.08)"/><path class="cls-4" d="M199,75.1a.28.28,0,1,0-.28.27A.27.27,0,0,0,199,75.1Z" transform="translate(0.08)"/><path class="cls-4" d="M94.68,18.9a.27.27,0,0,0-.28-.27.27.27,0,1,0,0,.54A.27.27,0,0,0,94.68,18.9Z" transform="translate(0.08)"/><path class="cls-4" d="M32.25,12.64a.28.28,0,0,0-.28-.27.27.27,0,1,0,0,.54A.28.28,0,0,0,32.25,12.64Z" transform="translate(0.08)"/><path class="cls-4" d="M281.34,42.32a.28.28,0,0,0-.28-.27.27.27,0,1,0,0,.54A.28.28,0,0,0,281.34,42.32Z" transform="translate(0.08)"/><path class="cls-4" d="M302.51,65.37a.29.29,0,0,0-.28-.28.28.28,0,0,0-.28.28.27.27,0,0,0,.28.27A.28.28,0,0,0,302.51,65.37Z" transform="translate(0.08)"/><path class="cls-4" d="M117.81,82.2a.27.27,0,0,0-.28-.27.27.27,0,1,0,0,.54A.27.27,0,0,0,117.81,82.2Z" transform="translate(0.08)"/></g></g><circle class="cls-4" cx="318.73" cy="19.92" r="0.57"/><circle class="cls-4" cx="255.22" cy="95.46" r="0.57"/><circle class="cls-4" cx="255.22" cy="4.05" r="0.57"/><circle class="cls-4" cx="309.29" cy="4.05" r="0.57"/><circle class="cls-4" cx="224.51" cy="68.94" r="0.57"/><path id="star" class="cls-4" d="M228.58,73.16a.7.7,0,0,1,.6-.61l.1-2.08.1,2.08a.7.7,0,0,1,.61.61l2.08.1-2.08.1a.72.72,0,0,1-.6.61L229.28,76l-.1-2.07a.72.72,0,0,1-.6-.61l-2.08-.1Z" transform="translate(0.08)"/><path id="star-2" data-name="star" class="cls-4" d="M288.57,25.58a.73.73,0,0,1,.61-.61l.1-2.07.1,2.07a.74.74,0,0,1,.61.61l2.07.1-2.07.1a.72.72,0,0,1-.61.61l-.1,2.08-.1-2.08a.72.72,0,0,1-.61-.61l-2.08-.1Z" transform="translate(0.08)"/><circle class="cls-4" cx="128.21" cy="26.26" r="0.57"/><circle class="cls-4" cx="60.55" cy="57.31" r="0.57"/><circle class="cls-4" cx="22.02" cy="19.92" r="0.57"/><circle class="cls-4" cx="39.95" cy="95.46" r="0.57"/><circle class="cls-4" cx="85.53" cy="46.24" r="0.57"/><circle class="cls-4" cx="85.53" cy="4.05" r="0.57"/><circle class="cls-4" cx="121.58" cy="95.46" r="0.57"/><circle class="cls-4" cx="116.24" cy="68.94" r="0.57"/><path id="star-3" data-name="star" class="cls-4" d="M112,73.16a.71.71,0,0,0-.61-.61l-.1-2.08-.1,2.08a.71.71,0,0,0-.61.61l-2.08.1,2.08.1a.73.73,0,0,0,.61.61l.1,2.07.1-2.07a.74.74,0,0,0,.61-.61l2.07-.1Z" transform="translate(0.08)"/><path id="star-4" data-name="star" class="cls-4" d="M169.58,15.65A.72.72,0,0,0,169,15l-.1-2.08-.1,2.08a.73.73,0,0,0-.61.61l-2.07.1,2.07.1a.74.74,0,0,0,.61.61l.1,2.07.1-2.07a.73.73,0,0,0,.61-.61l2.08-.1Z" transform="translate(0.08)"/><path id="star-5" data-name="star" class="cls-4" d="M52,25.58a.72.72,0,0,0-.61-.61l-.1-2.07L51.21,25a.72.72,0,0,0-.6.61l-2.08.1,2.08.1a.71.71,0,0,0,.6.61l.1,2.08.1-2.08a.71.71,0,0,0,.61-.61l2.08-.1Z" transform="translate(0.08)"/><circle class="cls-6" cx="168.43" cy="69.02" r="26.14"/><g class="cls-7"><polygon class="cls-8" points="336.06 190.93 58.47 189.91 336.06 189.91 336.06 190.93"/></g><polygon class="cls-9" points="0.29 198.83 210.44 199.13 0.29 197.99 0.29 198.83"/><g class="cls-10"><polygon class="cls-11" points="336.06 207.33 146.12 207.33 336.06 206.56 336.06 207.33"/></g><g class="cls-7"><polygon class="cls-12" points="336.06 213.77 0.79 213.34 0.79 212.56 336.06 213 336.06 213.77"/></g><rect class="cls-13" x="0.08" y="85.74" width="335.99" height="97.4"/><path class="cls-14" d="M149.53,85.74h37.08A6.22,6.22,0,0,1,192.83,92v89a0,0,0,0,1,0,0H143.32a0,0,0,0,1,0,0V92A6.22,6.22,0,0,1,149.53,85.74Z"/><path class="cls-15" d="M143.4,124.24a4.13,4.13,0,0,0-3.31-2.08,4,4,0,0,0-.17-2,4.1,4.1,0,0,0-5.25-2.49,2.48,2.48,0,0,0-.37.17,4.1,4.1,0,0,0-4.86-6,4,4,0,0,0-.83.41,4.1,4.1,0,0,0-4.83-1.65,3,3,0,0,0-.41.19,4,4,0,0,0-.14-.57,4.94,4.94,0,0,0-9.53,2.5,3.43,3.43,0,0,0-1.08.17,3.33,3.33,0,0,0-.74.41,1.85,1.85,0,0,0-1.06,1.25,3.12,3.12,0,0,0-2.44-.14,3.09,3.09,0,0,0-2,2.62h-.07a2.94,2.94,0,0,0-2.52.36,3.76,3.76,0,0,0-1.07,5.85,3.18,3.18,0,0,0-1.36.16,3.11,3.11,0,0,0-1.77,1.6c0-.1-.09-.2-.14-.29a1.56,1.56,0,0,0-.78-.94,4,4,0,0,0-1.54-.89,4.07,4.07,0,0,0-2.88-5.51,4.57,4.57,0,0,0-.21-1.09,4.12,4.12,0,0,0-5.26-2.49,4.39,4.39,0,0,0-1,.51,4.93,4.93,0,0,0-9.29,2.85,3.11,3.11,0,0,0-3.17,3.23,4,4,0,0,0-1.48.23,3.23,3.23,0,0,0-.42.2,1.28,1.28,0,0,0-.42.17l-.17.18a4.08,4.08,0,0,0-1.65,4,3.12,3.12,0,0,0-1.68.11,2.93,2.93,0,0,0-.76.41,4.58,4.58,0,0,0-.21-1.08,4.09,4.09,0,0,0-3.36-2.68,5.42,5.42,0,0,0-5.88-8.31,4.09,4.09,0,0,0-5.19-5.37,3.85,3.85,0,0,0-.79.38,5.4,5.4,0,0,0-8.66,2.34,4.16,4.16,0,0,0-2.44.1,4.12,4.12,0,0,0-2.49,5.26c.05.14.13.27.19.4a2,2,0,0,0-1.1.08,2.67,2.67,0,0,0-.87.16,3.11,3.11,0,0,0-2.07,2.86,3.11,3.11,0,0,0-3.41-.91l-.22.11a4.31,4.31,0,0,0-.23-1.36,4.12,4.12,0,0,0-4.47-2.69c0-.16.08-.31.11-.46A3.11,3.11,0,0,0,23.88,110a3.08,3.08,0,0,0-1.9,2,2.93,2.93,0,0,1-.05-.29,7.9,7.9,0,0,0,.18-6c-1.35-3.78-5-5.93-8.21-4.79a5.87,5.87,0,0,0-3.62,4.35l-.09-.12c0-.1,0-.21-.08-.31a5.32,5.32,0,0,0-6.27-3.38,2.11,2.11,0,0,0-.48.12l-.08,0-.07,0a.52.52,0,0,0-.13.06,5.28,5.28,0,0,0-3,3.07.85.85,0,0,0-.17-.06V182.6l.14.75,143.34.09ZM36.8,122.07a.69.69,0,0,0,.13.11c0,.08,0,.16,0,.23A3.45,3.45,0,0,0,36.8,122.07Z" transform="translate(0.08)"/><path class="cls-15" d="M335.69,94.25a4.07,4.07,0,0,0-1.26-.22c-1.57,0-2.9.36-3.52,1.69-.5-1.1-1.51-1.37-2.73-1.62a3.82,3.82,0,0,0,.07-.68,3.86,3.86,0,0,0-6.66-2.68,5.08,5.08,0,0,0-3.69-1.81h-.28a1.74,1.74,0,0,0-.47,0A5.09,5.09,0,0,0,312.58,94c0,.1,0,.2,0,.3s0,.09,0,.14a5.6,5.6,0,0,0-4.66-2.76c-3.23,0-5.85,3.12-5.85,7a7.53,7.53,0,0,0,2.08,5.31c0,.09,0,.19.05.28a3,3,0,1,0-4.31,4.06,4,4,0,0,0,.24.38,3.94,3.94,0,0,0-3.16,3.86,3.75,3.75,0,0,0,.24,1.3,2,2,0,0,0-.24,0,3,3,0,0,0-2.78,1.92,2.9,2.9,0,0,0-3.62-1.78,1.84,1.84,0,0,0-1,.29c0-.14,0-.28,0-.43a3.93,3.93,0,0,0-6.16-3.24,5.16,5.16,0,0,0-8.55.68,3.85,3.85,0,0,0-.83-.1,3.92,3.92,0,0,0-3,6.51,5.17,5.17,0,0,0-2.62,9.37,3.94,3.94,0,0,0-2.16,3.5,3.64,3.64,0,0,0,.16,1,2.87,2.87,0,0,0-.82-.13,3,3,0,0,0-1.55.44,3.92,3.92,0,0,0-2.79-3.1l-.2-.11a1.25,1.25,0,0,0-.43,0,3.44,3.44,0,0,0-.45-.05,3.89,3.89,0,0,0-1.41.27,3,3,0,0,0-2.83-2.09,2.86,2.86,0,0,0-1.06.21,4.71,4.71,0,0,0-9.28.41,3.88,3.88,0,0,0-1-.15,3.93,3.93,0,0,0-3.93,3.93,3.66,3.66,0,0,0,.16,1,3.89,3.89,0,0,0-.83,5.89,3.84,3.84,0,0,0-1.1,1.3,1.52,1.52,0,0,0-.4,1.09,3,3,0,0,0,0,.31,3,3,0,0,0-2.11-.87,3,3,0,0,0-1.28.29,3.57,3.57,0,0,0,.27-1.35,3.61,3.61,0,0,0-3.11-3.57,2.8,2.8,0,0,0-2.39.48l-.05,0a3,3,0,0,0-4.83-.79,1.8,1.8,0,0,0-1.36-.79,3,3,0,0,0-.8-.12,2.9,2.9,0,0,0-1,.19,4.72,4.72,0,0,0-9.38.8,5.07,5.07,0,0,0,.05.56c-.14,0-.28,0-.43,0a3.92,3.92,0,0,0-3.82,3,4.14,4.14,0,0,0-.87-.1,3.92,3.92,0,0,0-2.45,7c-.12,0-.25,0-.38,0a3.94,3.94,0,0,0-3.93,3.94,4,4,0,0,0,.49,1.88,3.9,3.9,0,0,0-1.45,6.09,5.27,5.27,0,0,0-4.8,5.43,4.44,4.44,0,0,0-2.08,1.68v18.86l143.13-.29V94.28Zm-41.63,24.21-.06-.21a.64.64,0,0,0,.08-.14C294.08,118.23,294.06,118.33,294.06,118.46Z" transform="translate(0.08)"/><g id="_Csoport_2" data-name="&lt;Csoport&gt;"><path id="_Görbe_" data-name="&lt;Görbe&gt;" class="cls-16" d="M185,131.39c-.57,5.54-.27,11.12-.3,16.67s-.15,11.12.19,16.67c0,.07.24.07.25,0,.34-5.55.21-11.12.19-16.67s.27-11.13-.3-16.67Z" transform="translate(0.08)"/><path id="_Görbe_2" data-name="&lt;Görbe&gt;" class="cls-4" d="M178.71,163.29c0,2.1-.49,4.21-.05,6.31,0,0,.24,0,.24,0,.44-2.1,0-4.21-.05-6.31C178.85,163.27,178.71,163.27,178.71,163.29Z" transform="translate(0.08)"/><path id="_Görbe_3" data-name="&lt;Görbe&gt;" class="cls-17" d="M162.82,144.34c0,7.64-.73,15.3,0,22.93,0,.06.17.06.17,0,.72-7.63,0-15.29,0-22.93C163,144.29,162.82,144.29,162.82,144.34Z" transform="translate(0.08)"/><path id="_Görbe_4" data-name="&lt;Görbe&gt;" class="cls-17" d="M157.35,141.45c-.12,8.33-.38,16.66,0,25,0,.09.28.09.29,0,.41-8.32.15-16.65,0-25C157.7,141.34,157.35,141.34,157.35,141.45Z" transform="translate(0.08)"/><path id="_Görbe_5" data-name="&lt;Görbe&gt;" class="cls-18" d="M150.68,131.48c-.1,10.1-.42,20.23,0,30.33,0,.11.24.11.24,0,.43-10.1.11-20.23,0-30.33C150.94,131.36,150.68,131.36,150.68,131.48Z" transform="translate(0.08)"/><path id="_Görbe_6" data-name="&lt;Görbe&gt;" class="cls-4" d="M154.48,146.89a47.45,47.45,0,0,0-.09,9.68c0,.07.22.07.23,0a47.45,47.45,0,0,0-.09-9.68Z" transform="translate(0.08)"/><path id="_Görbe_7" data-name="&lt;Görbe&gt;" class="cls-18" d="M181.11,146.89a47.45,47.45,0,0,0-.09,9.68c0,.07.22.07.22,0a47.45,47.45,0,0,0-.08-9.68Z" transform="translate(0.08)"/><path id="_Görbe_8" data-name="&lt;Görbe&gt;" class="cls-19" d="M146.07,135.17c-.43,9.2-.94,18.49-.12,27.69,0,.11.32.11.33,0,.82-9.2.31-18.49-.13-27.69Z" transform="translate(0.08)"/><path id="_Görbe_9" data-name="&lt;Görbe&gt;" class="cls-20" d="M188.86,131.43c-.22,11.38-.4,22.76-.1,34.15,0,.12.38.12.38,0,.3-11.39.12-22.77-.1-34.15C189,131.37,188.86,131.37,188.86,131.43Z" transform="translate(0.08)"/></g><g id="_Csoport_3" data-name="&lt;Csoport&gt;"><path id="_Görbe_10" data-name="&lt;Görbe&gt;" class="cls-4" d="M156.67,97.08c0-2.11.49-4.21.05-6.32a.49.49,0,0,0-.24,0c-.44,2.11,0,4.21.05,6.32A.33.33,0,0,0,156.67,97.08Z" transform="translate(0.08)"/><path id="_Görbe_11" data-name="&lt;Görbe&gt;" class="cls-19" d="M180.62,97.08c0-2.11.49-4.21,0-6.32a.49.49,0,0,0-.24,0c-.44,2.11,0,4.21,0,6.32A.33.33,0,0,0,180.62,97.08Z" transform="translate(0.08)"/><path id="_Görbe_12" data-name="&lt;Görbe&gt;" class="cls-17" d="M172.56,116c0-7.63.73-15.3,0-22.93,0-.06-.17-.06-.17,0-.72,7.63,0,15.3,0,22.93C172.41,116.07,172.56,116.07,172.56,116Z" transform="translate(0.08)"/><path id="_Görbe_13" data-name="&lt;Görbe&gt;" class="cls-21" d="M175.56,157.33c0-17.71.73-35.49,0-53.19a.09.09,0,1,0-.17,0c-.72,17.7,0,35.48,0,53.19A.08.08,0,1,0,175.56,157.33Z" transform="translate(0.08)"/><path id="_Görbe_14" data-name="&lt;Görbe&gt;" class="cls-22" d="M160.05,128.91c0-12.62.73-25.3,0-37.93,0-.09-.16-.09-.17,0-.72,12.62,0,25.31,0,37.93A.08.08,0,0,0,160.05,128.91Z" transform="translate(0.08)"/><path id="_Görbe_15" data-name="&lt;Görbe&gt;" class="cls-22" d="M172,148.87c0,6.13-.73,12.29,0,18.41,0,.05.17.05.17,0,.72-6.12,0-12.28,0-18.41C172.15,148.83,172,148.83,172,148.87Z" transform="translate(0.08)"/><path id="_Görbe_16" data-name="&lt;Görbe&gt;" class="cls-17" d="M178,118.91c.13-8.32.38-16.65,0-25,0-.09-.28-.1-.28,0-.41,8.32-.15,16.65,0,25C177.68,119,178,119,178,118.91Z" transform="translate(0.08)"/><path id="_Görbe_17" data-name="&lt;Görbe&gt;" class="cls-4" d="M180.9,113.47c.53-3.2.21-6.47.08-9.68,0-.07-.21-.07-.22,0-.13,3.21-.45,6.48.08,9.68Z" transform="translate(0.08)"/><path id="_Görbe_18" data-name="&lt;Görbe&gt;" class="cls-18" d="M154.27,113.47c.53-3.2.21-6.47.08-9.68,0-.07-.21-.07-.22,0a47.45,47.45,0,0,0,.09,9.68Z" transform="translate(0.08)"/><path id="_Görbe_19" data-name="&lt;Görbe&gt;" class="cls-17" d="M189.3,125.19c.44-9.2.95-18.49.13-27.69,0-.1-.32-.1-.33,0-.82,9.2-.31,18.49.12,27.69Z" transform="translate(0.08)"/><path id="_Görbe_20" data-name="&lt;Görbe&gt;" class="cls-20" d="M146.52,128.93c.22-11.38.39-22.76.1-34.14,0-.13-.38-.13-.39,0-.29,11.38-.11,22.76.11,34.14C146.34,129,146.52,129,146.52,128.93Z" transform="translate(0.08)"/></g><path class="cls-23" d="M31.1,195.19c54.3,1.05,109.43.43,163.78.09,1.19,0,1.2-.61,0-.61-54.35-.35-109.48-1-163.78.08C30.24,194.77,30.24,195.17,31.1,195.19ZM77.33,205c68.17.41,136.56.67,204.73,0,1,0,1-.5,0-.51-68.17-.65-136.56-.4-204.73,0C76.4,204.52,76.4,205,77.33,205ZM61.24,217.45c43,.65,86.38.18,129.42.17s86.31.21,129.42-.17c.64,0,.64-.32,0-.32-43.11-.38-86.3-.16-129.42-.17s-86.41-.49-129.42.17C60.63,217.14,60.63,217.44,61.24,217.45Zm49.09-7.08c17.58.12,35.07.09,52.64-.12.69,0,.69-.34,0-.35-17.57-.21-35.06-.23-52.64-.12C109.18,209.79,109.18,210.36,110.33,210.37ZM223.56,202c20.41.43,41,.16,61.42,0,.51,0,.51-.25,0-.26-20.42-.16-41-.43-61.42,0C223,201.74,223,202,223.56,202Zm-35.09,19.41c27.27.19,54.62.27,81.89,0,.92,0,.92-.46,0-.47-27.27-.3-54.62-.22-81.89,0C187.43,220.89,187.43,221.4,188.47,221.41Zm-39.71,7.19c32,0,64.63.74,96.51,0,.84,0,.84-.41,0-.43-31.88-.74-64.54,0-96.51,0C147.9,228.16,147.9,228.6,148.76,228.6Z" transform="translate(0.08)"/><g id="_Group_" data-name="&lt;Group&gt;"><path class="cls-13" d="M40.45,37.53a14.14,14.14,0,0,0-4.83-1.12s3.59,1,4.82,3.15c1.23-2.2,4.82-3.15,4.82-3.15A14,14,0,0,0,40.45,37.53Z" transform="translate(0.08)"/><path class="cls-24" d="M221.26,34.77a14.32,14.32,0,0,0-4.82-1.13s3.58,1,4.81,3.15c1.23-2.19,4.82-3.15,4.82-3.15A14.17,14.17,0,0,0,221.26,34.77Z" transform="translate(0.08)"/><path class="cls-24" d="M76.93,30.07a14.08,14.08,0,0,0-4.83-1.13s3.59.95,4.82,3.15c1.23-2.2,4.81-3.15,4.81-3.15A13.92,13.92,0,0,0,76.93,30.07Z" transform="translate(0.08)"/><path class="cls-24" d="M123.27,61.89a14.13,14.13,0,0,0-4.82-1.12s3.58.95,4.81,3.15c1.23-2.2,4.82-3.15,4.82-3.15A14,14,0,0,0,123.27,61.89Z" transform="translate(0.08)"/><path class="cls-13" d="M240.2,51.76a14.08,14.08,0,0,0-4.83-1.13s3.59.95,4.82,3.15c1.23-2.2,4.81-3.15,4.81-3.15A13.92,13.92,0,0,0,240.2,51.76Z" transform="translate(0.08)"/><path class="cls-13" d="M209.62,73.37a14.32,14.32,0,0,0-4.82-1.13s3.58,1,4.81,3.15c1.23-2.19,4.82-3.15,4.82-3.15A14.24,14.24,0,0,0,209.62,73.37Z" transform="translate(0.08)"/></g><path class="cls-24" d="M336,85.76l0-18.59c-71.3-1.52-137.2,17.21-137.2,18.59Z" transform="translate(0.08)"/><path class="cls-25" d="M226.3,78.21a7.54,7.54,0,0,0-1.09.26l1.36-.29A2.48,2.48,0,0,0,226.3,78.21Z" transform="translate(0.08)"/><path class="cls-24" d="M0,85.74-.08,66.87c71.3-1.53,137.13,17.21,137.13,18.87Z" transform="translate(0.08)"/><path class="cls-26" d="M113.12,178.05a34.43,34.43,0,0,1-3.44-2.22l-.15-.15a6.82,6.82,0,0,0,3.59.47,35.11,35.11,0,0,1-5.56-3.88l.21,0-1.11-1.12a5.54,5.54,0,0,0,2.93.39,29.13,29.13,0,0,1-3.45-2.3,4.69,4.69,0,0,0,1.63.06l-1.11-1.12a5.58,5.58,0,0,0,2.93.38c-.65-.36-1.27-.75-1.86-1.15h0l-1.11-1.12a5.54,5.54,0,0,0,2.93.39,29.09,29.09,0,0,1-4.73-3.34,4.29,4.29,0,0,0,2,.21,24.72,24.72,0,0,1-4-2.8,4,4,0,0,0,2.45.44l-.92-.93a4.66,4.66,0,0,0,2.43.32,22.59,22.59,0,0,1-2-1.25,3.9,3.9,0,0,0,.45,0l-.92-.93a4.52,4.52,0,0,0,2.43.32,24.23,24.23,0,0,1-6.17-5,2.91,2.91,0,0,0,1.77.29l-.69-.7a3.42,3.42,0,0,0,1.82.24,17.85,17.85,0,0,1-2.22-1.48,2.79,2.79,0,0,0,1.09,0l-.69-.69a3.42,3.42,0,0,0,1.82.24,17.4,17.4,0,0,1-2.78-2H101l-.49-.3A19,19,0,0,1,98.3,147a2.27,2.27,0,0,0,.58.1l-.32-.5a2.14,2.14,0,0,0,1.59.4l-.51-.51a2.54,2.54,0,0,0,1.33.18,14.09,14.09,0,0,1-2.11-1.48l-.3-.49a2.08,2.08,0,0,0,1.59.4l-.51-.5a2.58,2.58,0,0,0,1.33.17c-6.1-3.43-7-10.3-7.11-11h0c-.08.72-1,7.59-7.1,11a2.54,2.54,0,0,0,1.32-.17l-.5.5a2.09,2.09,0,0,0,1.59-.4l-.31.49a14,14,0,0,1-2.1,1.48,2.5,2.5,0,0,0,1.32-.18l-.5.51a2.14,2.14,0,0,0,1.59-.4l-.32.5a2.17,2.17,0,0,0,.57-.1,17.6,17.6,0,0,1-2.18,2.34l-.06,0-.35-.2.18,0a32.17,32.17,0,0,1-4.92-3.41l.18,0-.26-.24-.48-.49-.13-.19a7.43,7.43,0,0,0,2.15.33,4.94,4.94,0,0,0,1.4,0l-1.26-1.26a6.26,6.26,0,0,0,3.32.43,32.73,32.73,0,0,1-2.94-1.86,4.51,4.51,0,0,0,.88-.06l-1.26-1.27a6.23,6.23,0,0,0,3.32.44,33.37,33.37,0,0,1-3.18-2.05l-.14-.14a6.36,6.36,0,0,0,3.32.44,32.65,32.65,0,0,1-5.15-3.6l.2,0-1-1a5.12,5.12,0,0,0,2.71.36,27.73,27.73,0,0,1-3.2-2.12,4.49,4.49,0,0,0,1.52,0l-1-1a5.12,5.12,0,0,0,2.71.36c-.6-.34-1.17-.7-1.73-1.07h0l-1-1a5.12,5.12,0,0,0,2.71.36,28,28,0,0,1-4.38-3.09,4.12,4.12,0,0,0,1.9.19,23.1,23.1,0,0,1-3.67-2.6,3.62,3.62,0,0,0,2.28.41L79,125a4.25,4.25,0,0,0,2.25.29c-.64-.36-1.24-.75-1.82-1.15a3.51,3.51,0,0,0,.43,0l-.86-.86a4.21,4.21,0,0,0,2.25.3,22.35,22.35,0,0,1-5.71-4.61,2.66,2.66,0,0,0,1.64.27l-.64-.64a3.25,3.25,0,0,0,1.68.22,17.13,17.13,0,0,1-2.06-1.37,2.67,2.67,0,0,0,1,0l-.64-.65a3.12,3.12,0,0,0,1.68.22,17,17,0,0,1-2.57-1.79l.1,0-.45-.28a16.29,16.29,0,0,1-2-2.16,2.1,2.1,0,0,0,.53.09l-.29-.47a1.94,1.94,0,0,0,1.47.38l-.47-.47a2.39,2.39,0,0,0,1.23.16,12,12,0,0,1-2-1.37l-.28-.45A2,2,0,0,0,75,111l-.47-.47a2.25,2.25,0,0,0,1.23.16c-5.65-3.18-6.51-9.53-6.58-10.21h0c-.08.68-.94,7-6.58,10.21a2.25,2.25,0,0,0,1.23-.16l-.47.47a2,2,0,0,0,1.47-.37l-.28.45a12.5,12.5,0,0,1-2,1.37,2.38,2.38,0,0,0,1.23-.16l-.47.47a1.94,1.94,0,0,0,1.47-.38l-.29.47a2.1,2.1,0,0,0,.53-.09,17,17,0,0,1-2,2.16l-.45.28.09,0A16,16,0,0,1,60.1,117a3.16,3.16,0,0,0,1.69-.22l-.64.65a2.62,2.62,0,0,0,1,0,16.37,16.37,0,0,1-2.06,1.37,3.29,3.29,0,0,0,1.69-.22l-.64.64a2.66,2.66,0,0,0,1.64-.27,22.24,22.24,0,0,1-5.72,4.61,4.25,4.25,0,0,0,2.26-.3l-.86.86a3.47,3.47,0,0,0,.42,0,20.19,20.19,0,0,1-1.82,1.15,4.29,4.29,0,0,0,2.26-.29l-.86.86a3.6,3.6,0,0,0,2.27-.41,22.22,22.22,0,0,1-3.67,2.6,4.13,4.13,0,0,0,1.9-.19A27.86,27.86,0,0,1,54.6,131a5.12,5.12,0,0,0,2.71-.36l-1,1h0c-.55.37-1.12.73-1.72,1.07a5.12,5.12,0,0,0,2.71-.36l-1,1a4.43,4.43,0,0,0,1.51,0,27.59,27.59,0,0,1-3.19,2.12,5.12,5.12,0,0,0,2.71-.36l-1,1,.19,0a32.56,32.56,0,0,1-5.14,3.6,6.36,6.36,0,0,0,3.32-.44l-.14.14a34.68,34.68,0,0,1-3.18,2.05,6.22,6.22,0,0,0,3.32-.44l-1.26,1.27a4.35,4.35,0,0,0,.87.06,34,34,0,0,1-2.93,1.86,6.26,6.26,0,0,0,3.32-.43l-1.26,1.26a4.85,4.85,0,0,0,1.39,0,7.39,7.39,0,0,0,2.15-.33l-.12.19-.49.49-.25.24.18,0a32.67,32.67,0,0,1-4.92,3.41l.17,0c-.67.41-1.36.8-2.08,1.18a7.43,7.43,0,0,0,3.45-.39c-.5.32-1,.64-1.54.94l.17,0c-.67.4-1.36.8-2.08,1.17a7.6,7.6,0,0,0,3.68-.44L51.7,153s.27,0,.7.06c-.35.21-.7.43-1.07.64l.16,0c-.67.4-1.35.8-2.07,1.17a7.44,7.44,0,0,0,3.68-.44l-1.4,1.29a6.42,6.42,0,0,0,2.3-.11,43.51,43.51,0,0,1-4.57,3.48c-.39-.24-.77-.49-1.15-.74h0l-1.25-1.25a6.33,6.33,0,0,0,3.3.43,32.29,32.29,0,0,1-5.32-3.75,4.92,4.92,0,0,0,2.31.23,27.26,27.26,0,0,1-4.46-3.15,4.4,4.4,0,0,0,2.76.49l-1-1a5.23,5.23,0,0,0,2.74.36c-.78-.44-1.51-.92-2.21-1.41a2.87,2.87,0,0,0,.51,0l-1-1a5.09,5.09,0,0,0,2.74.36,26.88,26.88,0,0,1-6.94-5.59,3.31,3.31,0,0,0,2,.32l-.78-.78a3.87,3.87,0,0,0,2,.27,19.07,19.07,0,0,1-2.5-1.67,3.18,3.18,0,0,0,1.23.05l-.78-.78a3.87,3.87,0,0,0,2,.27,20.34,20.34,0,0,1-3.12-2.19h.11l-.54-.34a21.52,21.52,0,0,1-2.46-2.63,2.59,2.59,0,0,0,.65.11L38,135a2.4,2.4,0,0,0,1.79.46l-.57-.57a2.81,2.81,0,0,0,1.49.19,14.46,14.46,0,0,1-2.37-1.66l-.34-.55a2.36,2.36,0,0,0,1.79.45l-.57-.56a2.81,2.81,0,0,0,1.49.19c-6.86-3.86-7.9-11.58-8-12.4h0c-.1.82-1.14,8.54-8,12.4a2.78,2.78,0,0,0,1.48-.19l-.56.56a2.36,2.36,0,0,0,1.79-.45l-.35.55a14.37,14.37,0,0,1-2.36,1.66,2.78,2.78,0,0,0,1.48-.19l-.56.57A2.4,2.4,0,0,0,27.4,135l-.36.57a2.48,2.48,0,0,0,.64-.11,20.67,20.67,0,0,1-2.45,2.63l-.54.34h.11a20,20,0,0,1-3.13,2.19,3.87,3.87,0,0,0,2-.27l-.77.78a3.17,3.17,0,0,0,1.23-.05,21.66,21.66,0,0,1-1.79,1.23c-.76-.4-1.51-.82-2.22-1.25l.21,0a37.17,37.17,0,0,1-5.73-4l.2,0-.29-.27-.57-.57-.14-.23a7.86,7.86,0,0,0,2.5.38,5.93,5.93,0,0,0,1.63,0l-1.47-1.48a7.29,7.29,0,0,0,3.87.51A38.38,38.38,0,0,1,17,133.15a5.41,5.41,0,0,0,1-.07l-1.47-1.47a7.42,7.42,0,0,0,3.87.51,40,40,0,0,1-3.71-2.39l-.16-.17a7.29,7.29,0,0,0,3.87.51,37.53,37.53,0,0,1-6-4.19l.23,0-1.2-1.21a6,6,0,0,0,3.16.42,30.83,30.83,0,0,1-3.72-2.48,4.85,4.85,0,0,0,1.76.06l-1.2-1.2a6,6,0,0,0,3.16.41c-.7-.39-1.37-.81-2-1.24h0l-1.2-1.21a6,6,0,0,0,3.16.42,31.71,31.71,0,0,1-5.1-3.6,4.57,4.57,0,0,0,2.21.22,26,26,0,0,1-4.27-3,4.21,4.21,0,0,0,2.65.47l-1-1a5,5,0,0,0,2.62.35c-.75-.43-1.45-.88-2.12-1.35a4.81,4.81,0,0,0,.5,0l-1-1a5,5,0,0,0,2.62.34A26,26,0,0,1,7,105.82a3.18,3.18,0,0,0,1.91.31l-.75-.75a3.75,3.75,0,0,0,2,.26,19.25,19.25,0,0,1-2.4-1.6,3.16,3.16,0,0,0,1.18,0l-.75-.76a3.75,3.75,0,0,0,2,.26,18.75,18.75,0,0,1-3-2.09l.11,0c-.18-.1-.35-.22-.52-.33a19.76,19.76,0,0,1-2.36-2.51,3.11,3.11,0,0,0,.62.11l-.34-.55a2.26,2.26,0,0,0,1.71.43l-.54-.54a2.63,2.63,0,0,0,1.43.18A13.27,13.27,0,0,1,5,96.68l-.33-.52a2.26,2.26,0,0,0,1.71.43L5.84,96a2.73,2.73,0,0,0,1.43.19A15.7,15.7,0,0,1,.06,86.54v96.81H108.74c-.32-.25-.63-.49-.93-.75l.19,0-.28-.25-.52-.53-.13-.21a7.66,7.66,0,0,0,2.32.35,5.45,5.45,0,0,0,1.5,0l-1.36-1.37a6.82,6.82,0,0,0,3.59.47,34.32,34.32,0,0,1-3.17-2,4.69,4.69,0,0,0,.94-.05l-1.36-1.37A6.82,6.82,0,0,0,113.12,178.05Zm-92.95-35,.21,0c-.62-.35-1.22-.72-1.8-1.09a10.76,10.76,0,0,0,3.53.51l-.44.26a3.87,3.87,0,0,0,2-.27l-.77.78a3.31,3.31,0,0,0,2-.32,27.26,27.26,0,0,1-4.13,3.74l-.62-.37.19,0c-.43-.24-.84-.49-1.26-.75a6.74,6.74,0,0,0,.82-.06l-1.62-1.51a8.81,8.81,0,0,0,4.28.52C21.76,144,21,143.56,20.17,143.08Z" transform="translate(0.08)"/><path class="cls-26" d="M226.45,177.29l-1.36,1.37a5.16,5.16,0,0,0,.95.06,35.71,35.71,0,0,1-3.17,2,6.75,6.75,0,0,0,3.58-.48l-1.36,1.37a5.24,5.24,0,0,0,1.51,0,7.85,7.85,0,0,0,2.32-.36l-.13.21-.53.53-.27.25.19,0-.94.75H335.92V86.26A15.66,15.66,0,0,1,328.71,96a2.73,2.73,0,0,0,1.43-.19l-.54.55a2.29,2.29,0,0,0,1.71-.44l-.33.53A14.49,14.49,0,0,1,328.71,98a2.73,2.73,0,0,0,1.43-.19l-.54.55a2.26,2.26,0,0,0,1.71-.43l-.34.54a2.56,2.56,0,0,0,.62-.1,20.41,20.41,0,0,1-2.36,2.51c-.17.11-.33.22-.52.33h.11a19.15,19.15,0,0,1-3,2.1,3.71,3.71,0,0,0,2-.26l-.74.75a2.92,2.92,0,0,0,1.18,0,18.89,18.89,0,0,1-2.4,1.6,3.71,3.71,0,0,0,2-.26l-.74.76a3.11,3.11,0,0,0,1.9-.32,25.78,25.78,0,0,1-6.65,5.37,5,5,0,0,0,2.62-.35l-1,1a3.13,3.13,0,0,0,.49,0,24.68,24.68,0,0,1-2.12,1.34,5,5,0,0,0,2.62-.34l-1,1a4.23,4.23,0,0,0,2.64-.48,25.45,25.45,0,0,1-4.27,3,4.73,4.73,0,0,0,2.21-.22,31,31,0,0,1-5.09,3.59,5.89,5.89,0,0,0,3.16-.41l-1.2,1.21h0c-.64.43-1.3.85-2,1.25a6,6,0,0,0,3.16-.42l-1.2,1.21a5.13,5.13,0,0,0,1.76-.06,31.18,31.18,0,0,1-3.72,2.47,5.89,5.89,0,0,0,3.16-.41l-1.2,1.2.22,0a37.93,37.93,0,0,1-6,4.2,7.28,7.28,0,0,0,3.87-.51l-.17.16a36.72,36.72,0,0,1-3.7,2.39,7.28,7.28,0,0,0,3.87-.51L318,132.8a4.92,4.92,0,0,0,1,.06,37.64,37.64,0,0,1-3.42,2.18,7.28,7.28,0,0,0,3.87-.51L318,136a5.84,5.84,0,0,0,1.62,0,8.26,8.26,0,0,0,2.51-.38l-.15.23-.56.57-.3.27.21,0a38.21,38.21,0,0,1-5.73,4l.2,0c-.71.43-1.45.85-2.22,1.25a19.92,19.92,0,0,1-1.78-1.23,3.18,3.18,0,0,0,1.23.05l-.78-.78a3.87,3.87,0,0,0,2.05.27,20.44,20.44,0,0,1-3.13-2.19l.12,0c-.19-.1-.36-.22-.55-.34a20.6,20.6,0,0,1-2.45-2.62,2.55,2.55,0,0,0,.64.11l-.35-.57a2.34,2.34,0,0,0,1.78.45l-.56-.57a2.77,2.77,0,0,0,1.49.2,14.65,14.65,0,0,1-2.37-1.66l-.34-.55a2.34,2.34,0,0,0,1.78.45l-.56-.57a2.77,2.77,0,0,0,1.49.2c-6.86-3.87-7.9-11.59-8-12.4,0,0,0,0,0,0-.09.81-1.13,8.53-8,12.4a2.77,2.77,0,0,0,1.49-.2l-.56.57a2.34,2.34,0,0,0,1.78-.45l-.34.55a14.65,14.65,0,0,1-2.37,1.66,2.77,2.77,0,0,0,1.49-.2l-.56.57a2.34,2.34,0,0,0,1.78-.45l-.35.57a2.55,2.55,0,0,0,.64-.11,20,20,0,0,1-2.46,2.62,6.1,6.1,0,0,1-.54.34l.12,0a20.44,20.44,0,0,1-3.13,2.19,3.87,3.87,0,0,0,2-.27l-.78.78a3.18,3.18,0,0,0,1.23-.05,20.13,20.13,0,0,1-2.5,1.67,3.87,3.87,0,0,0,2-.27l-.78.78a3.27,3.27,0,0,0,2-.33,26.65,26.65,0,0,1-6.93,5.6,5.19,5.19,0,0,0,2.73-.36l-1,1a3.43,3.43,0,0,0,.51.05c-.7.49-1.43,1-2.2,1.4a5.19,5.19,0,0,0,2.73-.36l-1,1.05a4.45,4.45,0,0,0,2.76-.5,26.62,26.62,0,0,1-4.45,3.16,4.83,4.83,0,0,0,2.3-.24,32.67,32.67,0,0,1-5.31,3.76,6.25,6.25,0,0,0,3.29-.44l-1.25,1.26h.05c-.37.25-.75.49-1.14.73a42.58,42.58,0,0,1-4.58-3.47,6.42,6.42,0,0,0,2.3.11l-1.39-1.29a7.56,7.56,0,0,0,3.67.44c-.72-.37-1.4-.77-2.07-1.17l.17,0c-.37-.21-.72-.43-1.08-.65a4.87,4.87,0,0,0,.7-.06l-1.39-1.29a7.52,7.52,0,0,0,3.67.45c-.72-.38-1.41-.77-2.08-1.18l.18,0c-.54-.3-1.05-.61-1.55-.93a7.3,7.3,0,0,0,3.45.38c-.72-.37-1.41-.76-2.08-1.17l.18,0a31.72,31.72,0,0,1-4.92-3.42l.17,0-.25-.23-.49-.49-.12-.19a6.94,6.94,0,0,0,2.15.32,4.76,4.76,0,0,0,1.4,0l-1.27-1.27a6.26,6.26,0,0,0,3.33.44,30.7,30.7,0,0,1-2.94-1.87,5.17,5.17,0,0,0,.88-.05l-1.27-1.27a6.4,6.4,0,0,0,3.33.44,33.54,33.54,0,0,1-3.19-2.05l-.14-.14a6.3,6.3,0,0,0,3.33.43,32,32,0,0,1-5.15-3.6l.19,0-1-1a5.16,5.16,0,0,0,2.72.36,25.78,25.78,0,0,1-3.2-2.13,4.14,4.14,0,0,0,1.51,0l-1-1a5.16,5.16,0,0,0,2.72.36c-.61-.34-1.17-.7-1.73-1.07h0l-1-1a5.16,5.16,0,0,0,2.72.36,26.28,26.28,0,0,1-4.38-3.09,4,4,0,0,0,1.9.19,21.61,21.61,0,0,1-3.67-2.59,3.63,3.63,0,0,0,2.27.4l-.85-.86a4.21,4.21,0,0,0,2.25.3c-.64-.36-1.24-.75-1.82-1.15a3.18,3.18,0,0,0,.42,0l-.85-.86a4.35,4.35,0,0,0,2.25.3,22.18,22.18,0,0,1-5.71-4.61,2.75,2.75,0,0,0,1.64.27l-.65-.65a3.25,3.25,0,0,0,1.69.23,18.47,18.47,0,0,1-2.06-1.38,2.68,2.68,0,0,0,1,0l-.65-.64a3.15,3.15,0,0,0,1.69.22,16.51,16.51,0,0,1-2.57-1.8h.09l-.44-.28a16.88,16.88,0,0,1-2-2.16,2.1,2.1,0,0,0,.53.09l-.3-.47a2,2,0,0,0,1.47.37l-.46-.47a2.31,2.31,0,0,0,1.22.17,13,13,0,0,1-1.95-1.37l-.28-.45a2,2,0,0,0,1.47.37l-.46-.47a2.35,2.35,0,0,0,1.22.16c-5.64-3.18-6.5-9.54-6.57-10.21,0,0,0,0,0,0-.07.67-.93,7-6.57,10.21a2.35,2.35,0,0,0,1.22-.16l-.46.47a2,2,0,0,0,1.47-.37l-.28.45a13,13,0,0,1-1.95,1.37,2.31,2.31,0,0,0,1.22-.17l-.46.47a2,2,0,0,0,1.47-.37l-.3.47a2.1,2.1,0,0,0,.53-.09,16.88,16.88,0,0,1-2,2.16l-.44.28h.09a16.51,16.51,0,0,1-2.57,1.8,3.15,3.15,0,0,0,1.69-.22l-.65.64a2.68,2.68,0,0,0,1,0,18.47,18.47,0,0,1-2.06,1.38,3.25,3.25,0,0,0,1.69-.23l-.65.65a2.75,2.75,0,0,0,1.64-.27,22.18,22.18,0,0,1-5.71,4.61A4.35,4.35,0,0,0,257,123l-.85.86a3.18,3.18,0,0,0,.42,0c-.58.4-1.18.79-1.82,1.15a4.21,4.21,0,0,0,2.25-.3l-.85.86a3.63,3.63,0,0,0,2.27-.4,21.61,21.61,0,0,1-3.67,2.59,4,4,0,0,0,1.9-.19,26.28,26.28,0,0,1-4.38,3.09,5.16,5.16,0,0,0,2.72-.36l-1,1h0c-.56.37-1.12.73-1.73,1.07a5.16,5.16,0,0,0,2.72-.36l-1,1a4.14,4.14,0,0,0,1.51,0,25.78,25.78,0,0,1-3.2,2.13,5.16,5.16,0,0,0,2.72-.36l-1,1,.19,0a32,32,0,0,1-5.15,3.6,6.3,6.3,0,0,0,3.33-.43l-.14.14a33.54,33.54,0,0,1-3.19,2.05,6.4,6.4,0,0,0,3.33-.44L251,142.07a5.17,5.17,0,0,0,.88.05A30.7,30.7,0,0,1,249,144a6.26,6.26,0,0,0,3.33-.44L251,144.82a4.76,4.76,0,0,0,1.4,0,6.94,6.94,0,0,0,2.15-.32l-.12.19-.49.49-.25.23.17,0a31.72,31.72,0,0,1-4.92,3.42l.18,0-.35.2-.06,0a17.53,17.53,0,0,1-2.18-2.33,2.17,2.17,0,0,0,.57.1l-.32-.51a2.09,2.09,0,0,0,1.59.4l-.5-.5a2.41,2.41,0,0,0,1.32.17,12.68,12.68,0,0,1-2.1-1.48l-.31-.48a2.14,2.14,0,0,0,1.59.4l-.5-.51a2.5,2.5,0,0,0,1.32.18c-6.09-3.44-7-10.3-7.1-11h0c-.08.73-1,7.59-7.1,11a2.5,2.5,0,0,0,1.32-.18l-.5.51a2.11,2.11,0,0,0,1.58-.4l-.3.48a12.68,12.68,0,0,1-2.1,1.48,2.41,2.41,0,0,0,1.32-.17l-.5.5a2.06,2.06,0,0,0,1.58-.4l-.31.51a2.24,2.24,0,0,0,.57-.1,19,19,0,0,1-2.18,2.33l-.48.31h.1a18,18,0,0,1-2.78,1.94,3.42,3.42,0,0,0,1.82-.24l-.69.7a2.7,2.7,0,0,0,1.09-.05,17.18,17.18,0,0,1-2.22,1.49,3.42,3.42,0,0,0,1.82-.24l-.69.69a2.91,2.91,0,0,0,1.77-.29,23.88,23.88,0,0,1-6.17,5,4.66,4.66,0,0,0,2.43-.32l-.92.93a3.9,3.9,0,0,0,.45,0c-.62.43-1.27.85-2,1.24a4.52,4.52,0,0,0,2.43-.32l-.92.93a3.87,3.87,0,0,0,2.45-.44,24.14,24.14,0,0,1-4,2.81,4.29,4.29,0,0,0,2.05-.21,29,29,0,0,1-4.72,3.34,5.53,5.53,0,0,0,2.93-.39l-1.12,1.12h0c-.6.39-1.21.78-1.86,1.15a5.53,5.53,0,0,0,2.93-.39L228.21,169a4.88,4.88,0,0,0,1.64,0,29.08,29.08,0,0,1-3.45,2.29,5.57,5.57,0,0,0,2.93-.38L228.21,172l.21,0a35.52,35.52,0,0,1-5.55,3.89,6.79,6.79,0,0,0,3.58-.47l-.15.15a33.6,33.6,0,0,1-3.43,2.21A6.65,6.65,0,0,0,226.45,177.29Zm86.93-33.12a8.85,8.85,0,0,0,4.29-.52l-1.63,1.5a5.51,5.51,0,0,0,.82.07c-.41.25-.82.51-1.25.75l.19,0-.63.37a27.18,27.18,0,0,1-4.12-3.75,3.27,3.27,0,0,0,2,.33l-.78-.78a3.87,3.87,0,0,0,2.05.27l-.43-.27a10.64,10.64,0,0,0,3.52-.5c-.58.37-1.17.74-1.79,1.08l.2,0C315,143.27,314.23,143.73,313.38,144.17Z" transform="translate(0.08)"/><g id="_Csoport_4" data-name="&lt;Csoport&gt;"><g id="_Csoport_5" data-name="&lt;Csoport&gt;"><path id="_Görbe_21" data-name="&lt;Görbe&gt;" class="cls-4" d="M115.44,166.17v.17a.57.57,0,0,0,.4.53h.29a.55.55,0,0,0,.4-.53l0-.17C116.6,165.46,115.39,165.46,115.44,166.17Z" transform="translate(0.08)"/><path id="_Görbe_22" data-name="&lt;Görbe&gt;" class="cls-18" d="M120.07,159.55a.86.86,0,0,0,0,1.71A.86.86,0,0,0,120.07,159.55Z" transform="translate(0.08)"/><path id="_Görbe_23" data-name="&lt;Görbe&gt;" class="cls-4" d="M130.6,159.23a.5.5,0,0,0,0,1A.5.5,0,0,0,130.6,159.23Z" transform="translate(0.08)"/><path id="_Görbe_24" data-name="&lt;Görbe&gt;" class="cls-4" d="M136,163.67a.47.47,0,0,0,0,.93A.47.47,0,0,0,136,163.67Z" transform="translate(0.08)"/><path id="_Görbe_25" data-name="&lt;Görbe&gt;" class="cls-18" d="M145.19,163.86a1,1,0,0,0,0,1.91A1,1,0,0,0,145.19,163.86Z" transform="translate(0.08)"/><path id="_Görbe_26" data-name="&lt;Görbe&gt;" class="cls-4" d="M139.76,169a1.56,1.56,0,0,0,0,3.12A1.56,1.56,0,0,0,139.76,169Z" transform="translate(0.08)"/><path id="_Görbe_27" data-name="&lt;Görbe&gt;" class="cls-4" d="M112.6,167.88a1,1,0,0,0,0,2A1,1,0,0,0,112.6,167.88Z" transform="translate(0.08)"/><path id="_Görbe_28" data-name="&lt;Görbe&gt;" class="cls-4" d="M108.53,175a1.71,1.71,0,0,0,0,3.41A1.71,1.71,0,0,0,108.53,175Z" transform="translate(0.08)"/><path id="_Görbe_29" data-name="&lt;Görbe&gt;" class="cls-4" d="M98,169.24a1,1,0,0,0,0,2A1,1,0,0,0,98,169.24Z" transform="translate(0.08)"/><path id="_Görbe_30" data-name="&lt;Görbe&gt;" class="cls-18" d="M110.23,155.12a1.21,1.21,0,0,0,0,2.42A1.21,1.21,0,0,0,110.23,155.12Z" transform="translate(0.08)"/><path id="_Görbe_31" data-name="&lt;Görbe&gt;" class="cls-4" d="M148.25,171.83a1.14,1.14,0,0,0,0,2.27A1.14,1.14,0,0,0,148.25,171.83Z" transform="translate(0.08)"/><path id="_Görbe_32" data-name="&lt;Görbe&gt;" class="cls-4" d="M156,168.41a1,1,0,0,0-1.3,0l-.1.08a1.05,1.05,0,1,0,1.49,0Z" transform="translate(0.08)"/><path id="_Görbe_33" data-name="&lt;Görbe&gt;" class="cls-4" d="M153.34,161.53a.91.91,0,0,0,0,1.82A.91.91,0,0,0,153.34,161.53Z" transform="translate(0.08)"/><path id="_Görbe_34" data-name="&lt;Görbe&gt;" class="cls-4" d="M166.92,167.69a.18.18,0,0,0,0,.36A.18.18,0,0,0,166.92,167.69Z" transform="translate(0.08)"/><path id="_Görbe_35" data-name="&lt;Görbe&gt;" class="cls-18" d="M162.5,165.74a.78.78,0,0,0,0,1.55A.78.78,0,0,0,162.5,165.74Z" transform="translate(0.08)"/><path id="_Görbe_36" data-name="&lt;Görbe&gt;" class="cls-4" d="M167.26,168.21a.34.34,0,0,0,0,.68A.34.34,0,0,0,167.26,168.21Z" transform="translate(0.08)"/><path id="_Görbe_37" data-name="&lt;Görbe&gt;" class="cls-4" d="M173.71,172a.93.93,0,0,0,0,1.85A.93.93,0,0,0,173.71,172Z" transform="translate(0.08)"/><path id="_Görbe_38" data-name="&lt;Görbe&gt;" class="cls-4" d="M185.59,156.45a.56.56,0,0,0,0,1.12A.56.56,0,0,0,185.59,156.45Z" transform="translate(0.08)"/><path id="_Görbe_39" data-name="&lt;Görbe&gt;" class="cls-18" d="M194.07,158.93a1.14,1.14,0,0,0,0,2.27A1.14,1.14,0,0,0,194.07,158.93Z" transform="translate(0.08)"/><path id="_Görbe_40" data-name="&lt;Görbe&gt;" class="cls-4" d="M197.81,168.74a.83.83,0,0,0,0,1.65A.83.83,0,0,0,197.81,168.74Z" transform="translate(0.08)"/><path id="_Görbe_41" data-name="&lt;Görbe&gt;" class="cls-4" d="M202.22,170a.56.56,0,0,0,0,1.11A.56.56,0,0,0,202.22,170Z" transform="translate(0.08)"/><path id="_Görbe_42" data-name="&lt;Görbe&gt;" class="cls-4" d="M204.26,156.73a1.64,1.64,0,0,0,0,3.27A1.64,1.64,0,0,0,204.26,156.73Z" transform="translate(0.08)"/><path id="_Görbe_43" data-name="&lt;Görbe&gt;" class="cls-4" d="M217.12,146.69l-.09.21a1.54,1.54,0,0,0,2.09,2.09l.21-.1a1.61,1.61,0,1,0-2.21-2.2Z" transform="translate(0.08)"/><path id="_Görbe_44" data-name="&lt;Görbe&gt;" class="cls-4" d="M224.63,160.94a.82.82,0,0,0,0,1.64A.82.82,0,0,0,224.63,160.94Z" transform="translate(0.08)"/><path id="_Görbe_45" data-name="&lt;Görbe&gt;" class="cls-4" d="M230.06,167.46a1.09,1.09,0,0,0,0,2.18A1.09,1.09,0,0,0,230.06,167.46Z" transform="translate(0.08)"/><path id="_Görbe_46" data-name="&lt;Görbe&gt;" class="cls-18" d="M216.82,158a1.1,1.1,0,0,0,0,2.19A1.1,1.1,0,0,0,216.82,158Z" transform="translate(0.08)"/><path id="_Görbe_47" data-name="&lt;Görbe&gt;" class="cls-4" d="M237.19,166.27a1.8,1.8,0,0,0,0-3.59A1.8,1.8,0,0,0,237.19,166.27Z" transform="translate(0.08)"/><path id="_Görbe_48" data-name="&lt;Görbe&gt;" class="cls-4" d="M235.83,177.25a1.15,1.15,0,0,0,0,2.29A1.15,1.15,0,0,0,235.83,177.25Z" transform="translate(0.08)"/><path id="_Görbe_49" data-name="&lt;Görbe&gt;" class="cls-18" d="M237.87,170.94a1.35,1.35,0,0,0,0,2.69A1.35,1.35,0,0,0,237.87,170.94Z" transform="translate(0.08)"/></g></g><path class="cls-6" d="M239.1,183.15a8.38,8.38,0,0,0-7-7.88,8.52,8.52,0,0,0-14-9.58h-.09a9.48,9.48,0,0,0-18.49,4l-.11,0a9.42,9.42,0,0,0-2.61,1,11.31,11.31,0,0,0-20.93,6.11,9.19,9.19,0,0,0-4.58,3.85,7.43,7.43,0,0,0-.05-2.93,7.34,7.34,0,0,0-8.75-5.59,8.37,8.37,0,0,0-1.31.43,8.69,8.69,0,0,0-7.4-1.76,9.88,9.88,0,0,0-1.06.31,8.53,8.53,0,0,0-12.75-.63,4.89,4.89,0,1,0-3.34,2.64,4.94,4.94,0,0,0,2.12-1.06,8.5,8.5,0,0,0-1,6.26h0a13.48,13.48,0,0,0-2.11,1.55,4.51,4.51,0,0,0-5.09-5.89,8.54,8.54,0,0,0-15.13-3.2,3.31,3.31,0,0,0,0-1.17,3.27,3.27,0,1,0-1.1,3.18,8.46,8.46,0,0,0-.4,5,9.41,9.41,0,0,0,.31,1.07,4.61,4.61,0,0,0-1.81.05,4.72,4.72,0,0,0-2.29,1.22,4.37,4.37,0,0,0-2.46-.94,3.34,3.34,0,0,0,0-1.37,3.54,3.54,0,0,0-6.89-.09,4.62,4.62,0,0,0-5.29,5.43Z" transform="translate(0.08)"/><path class="cls-24" d="M198.34,183.44h32.27a3.72,3.72,0,0,0-.08-.66,4,4,0,0,0-3.24-3.11,4,4,0,0,0,.39-2.81,4.07,4.07,0,0,0-7.07-1.77h0a4.53,4.53,0,0,0-8.84,1.89h0a4.38,4.38,0,0,0-1.25.48,5.4,5.4,0,0,0-10,2.92,4.45,4.45,0,0,0-2.09,1.68Z" transform="translate(0.08)"/><path class="cls-27" d="M250.19,180.15l-1.42,1.42a5.68,5.68,0,0,0,1.57,0,8.23,8.23,0,0,0,2.42-.37l-.14.22-.54.55-.29.26.2,0-1,.78h31c-.33-.26-.66-.52-1-.78l.19,0L281,182l-.55-.55-.14-.22a8.23,8.23,0,0,0,2.42.37,5.68,5.68,0,0,0,1.57,0l-1.42-1.42a7.16,7.16,0,0,0,3.74.49,35.77,35.77,0,0,1-3.3-2.1,5.58,5.58,0,0,0,1-.06l-1.42-1.43a7,7,0,0,0,3.74.49,35.46,35.46,0,0,1-3.58-2.31l-.16-.15a7.16,7.16,0,0,0,3.74.49,37.14,37.14,0,0,1-5.79-4l.22,0-1.16-1.17a5.76,5.76,0,0,0,3.05.41,30.71,30.71,0,0,1-3.59-2.4,4.8,4.8,0,0,0,1.7.06l-1.16-1.16a5.8,5.8,0,0,0,3.05.4c-.68-.38-1.32-.79-1.94-1.2h0l-1.16-1.17a5.67,5.67,0,0,0,3.05.4,29.34,29.34,0,0,1-4.92-3.47,4.45,4.45,0,0,0,2.13.21,24.63,24.63,0,0,1-4.12-2.92,4,4,0,0,0,2.55.46l-1-1a4.81,4.81,0,0,0,2.53.34c-.72-.41-1.39-.85-2-1.3a4,4,0,0,0,.47,0l-1-1a4.71,4.71,0,0,0,2.53.33,25.09,25.09,0,0,1-6.42-5.18,3,3,0,0,0,1.84.3l-.72-.72a3.67,3.67,0,0,0,1.9.25,19.91,19.91,0,0,1-2.32-1.55,3,3,0,0,0,1.14.05l-.72-.73a3.54,3.54,0,0,0,1.9.25,18.4,18.4,0,0,1-2.9-2l.11,0c-.18-.1-.33-.21-.5-.31a18.44,18.44,0,0,1-2.28-2.43,2.42,2.42,0,0,0,.6.1l-.33-.53a2.19,2.19,0,0,0,1.65.42l-.52-.53a2.68,2.68,0,0,0,1.38.19,14,14,0,0,1-2.19-1.55l-.32-.5a2.19,2.19,0,0,0,1.65.42l-.52-.53a2.58,2.58,0,0,0,1.38.18c-6.35-3.58-7.32-10.73-7.4-11.49h0c-.09.76-1,7.91-7.41,11.49a2.58,2.58,0,0,0,1.38-.18l-.52.53a2.22,2.22,0,0,0,1.66-.42l-.32.5a14.1,14.1,0,0,1-2.2,1.55,2.68,2.68,0,0,0,1.38-.19l-.52.53a2.22,2.22,0,0,0,1.66-.42l-.34.53a2.42,2.42,0,0,0,.6-.1,19,19,0,0,1-2.27,2.43l-.51.31.11,0a18.3,18.3,0,0,1-2.89,2,3.5,3.5,0,0,0,1.89-.25l-.72.73a3,3,0,0,0,1.14-.05,19,19,0,0,1-2.31,1.55,3.63,3.63,0,0,0,1.89-.25l-.72.72a3,3,0,0,0,1.85-.3,25,25,0,0,1-6.43,5.18,4.72,4.72,0,0,0,2.53-.33l-1,1a4.37,4.37,0,0,0,.48,0c-.65.45-1.33.89-2.05,1.3a4.81,4.81,0,0,0,2.53-.34l-1,1a4.06,4.06,0,0,0,2.56-.46,24.72,24.72,0,0,1-4.13,2.92,4.49,4.49,0,0,0,2.14-.21,29.43,29.43,0,0,1-4.93,3.47,5.7,5.7,0,0,0,3.06-.4L252,166.42h0c-.62.41-1.26.82-1.94,1.2a5.84,5.84,0,0,0,3.06-.4L252,168.39a4.79,4.79,0,0,0,1.7-.06,30.85,30.85,0,0,1-3.6,2.4,5.8,5.8,0,0,0,3.06-.41L252,171.49l.22,0a37.62,37.62,0,0,1-5.79,4,7.12,7.12,0,0,0,3.73-.49l-.15.15a36.62,36.62,0,0,1-3.58,2.31,7,7,0,0,0,3.73-.49l-1.42,1.43a5.65,5.65,0,0,0,1,.06,38.68,38.68,0,0,1-3.3,2.1A7.12,7.12,0,0,0,250.19,180.15Z" transform="translate(0.08)"/><path class="cls-27" d="M7.6,181.39l-.95,1a3.92,3.92,0,0,0,1,0,5.18,5.18,0,0,0,1.63-.25l-.09.15-.37.37-.19.18.13,0-.65.52H29l-.66-.52.14,0-.2-.18-.36-.37-.1-.15a5.21,5.21,0,0,0,1.63.25,4,4,0,0,0,1.06,0l-1-1a4.81,4.81,0,0,0,2.52.33,25.75,25.75,0,0,1-2.23-1.42,3.46,3.46,0,0,0,.67,0l-1-1a4.81,4.81,0,0,0,2.52.33,23.14,23.14,0,0,1-2.41-1.55l-.11-.11a4.68,4.68,0,0,0,2.52.33,24.73,24.73,0,0,1-3.9-2.72l.15,0-.78-.79a3.87,3.87,0,0,0,2.05.27,20.29,20.29,0,0,1-2.42-1.6,3.23,3.23,0,0,0,1.15,0l-.78-.78a3.87,3.87,0,0,0,2.05.27c-.45-.26-.89-.53-1.3-.81h0l-.78-.79a3.87,3.87,0,0,0,2.05.27,20.13,20.13,0,0,1-3.31-2.34,3.11,3.11,0,0,0,1.44.15,17.22,17.22,0,0,1-2.78-2,2.76,2.76,0,0,0,1.72.31l-.65-.65a3.23,3.23,0,0,0,1.71.22,13.48,13.48,0,0,1-1.38-.87l.32,0L26,165.8a3.33,3.33,0,0,0,1.71.23,16.82,16.82,0,0,1-4.33-3.49,2,2,0,0,0,1.24.2l-.48-.49a2.36,2.36,0,0,0,1.27.17,13.64,13.64,0,0,1-1.56-1,2,2,0,0,0,.77,0l-.48-.49a2.36,2.36,0,0,0,1.27.17,12.85,12.85,0,0,1-1.94-1.36h.07l-.34-.21a12.31,12.31,0,0,1-1.53-1.64,1.52,1.52,0,0,0,.4.07l-.22-.35a1.49,1.49,0,0,0,1.11.28l-.35-.36a1.72,1.72,0,0,0,.93.12,9.69,9.69,0,0,1-1.48-1l-.21-.34a1.49,1.49,0,0,0,1.11.28l-.35-.36a1.81,1.81,0,0,0,.93.13,10.61,10.61,0,0,1-5-7.73s0,0,0,0a10.68,10.68,0,0,1-5,7.73,1.81,1.81,0,0,0,.93-.13l-.36.36a1.51,1.51,0,0,0,1.12-.28l-.22.34a9.12,9.12,0,0,1-1.47,1,1.71,1.71,0,0,0,.93-.12l-.36.36a1.51,1.51,0,0,0,1.12-.28l-.23.35a1.62,1.62,0,0,0,.41-.07A13,13,0,0,1,14,159.51l-.34.21h.07a12.46,12.46,0,0,1-1.95,1.36,2.39,2.39,0,0,0,1.28-.17l-.49.49a2,2,0,0,0,.77,0,12.81,12.81,0,0,1-1.56,1,2.39,2.39,0,0,0,1.28-.17l-.49.49a2,2,0,0,0,1.24-.2A16.93,16.93,0,0,1,9.44,166a3.29,3.29,0,0,0,1.7-.23l-.64.65.32,0a14.67,14.67,0,0,1-1.38.87,3.19,3.19,0,0,0,1.7-.22l-.64.65a2.77,2.77,0,0,0,1.72-.31,17.22,17.22,0,0,1-2.78,2,3.11,3.11,0,0,0,1.44-.15,20.23,20.23,0,0,1-3.32,2.34,3.91,3.91,0,0,0,2.06-.27l-.78.79h0c-.42.28-.85.55-1.31.81a3.91,3.91,0,0,0,2.06-.27l-.78.78a3.16,3.16,0,0,0,1.14,0A19.51,19.51,0,0,1,7.56,175a3.91,3.91,0,0,0,2.06-.27l-.78.79.14,0a24.18,24.18,0,0,1-3.89,2.72A4.64,4.64,0,0,0,7.6,178l-.1.11a24.24,24.24,0,0,1-2.41,1.55,4.78,4.78,0,0,0,2.51-.33l-.95,1a3.4,3.4,0,0,0,.66,0c-.7.5-1.44,1-2.22,1.42A4.78,4.78,0,0,0,7.6,181.39Z" transform="translate(0.08)"/><path class="cls-28" d="M80.59,181.39l-1,1a4,4,0,0,0,1.06,0,5.13,5.13,0,0,0,1.62-.25l-.09.15-.37.37-.19.18.13,0-.65.52H102l-.65-.52.13,0-.19-.18-.37-.37-.09-.15a5.13,5.13,0,0,0,1.62.25,4,4,0,0,0,1.06,0l-1-1a4.81,4.81,0,0,0,2.52.33,24.12,24.12,0,0,1-2.22-1.42,3.4,3.4,0,0,0,.66,0l-1-1a4.81,4.81,0,0,0,2.52.33,23.14,23.14,0,0,1-2.41-1.55l-.11-.11a4.68,4.68,0,0,0,2.52.33,24.73,24.73,0,0,1-3.9-2.72l.15,0-.78-.79a3.87,3.87,0,0,0,2,.27,20.15,20.15,0,0,1-2.41-1.6,3.16,3.16,0,0,0,1.14,0l-.78-.78a3.87,3.87,0,0,0,2,.27c-.45-.26-.88-.53-1.3-.81h0l-.78-.79a3.87,3.87,0,0,0,2,.27,20.13,20.13,0,0,1-3.31-2.34,3.11,3.11,0,0,0,1.44.15,17.22,17.22,0,0,1-2.78-2,2.76,2.76,0,0,0,1.72.31l-.65-.65a3.23,3.23,0,0,0,1.71.22,14.67,14.67,0,0,1-1.38-.87l.32,0L99,165.8a3.33,3.33,0,0,0,1.71.23,16.82,16.82,0,0,1-4.33-3.49,2,2,0,0,0,1.24.2l-.48-.49a2.39,2.39,0,0,0,1.28.17,12.08,12.08,0,0,1-1.56-1,1.92,1.92,0,0,0,.76,0l-.48-.49a2.39,2.39,0,0,0,1.28.17,12.46,12.46,0,0,1-2-1.36h.07l-.34-.21a13,13,0,0,1-1.53-1.64,1.58,1.58,0,0,0,.4.07l-.22-.35a1.49,1.49,0,0,0,1.11.28l-.35-.36a1.72,1.72,0,0,0,.93.12,9.69,9.69,0,0,1-1.48-1l-.21-.34a1.49,1.49,0,0,0,1.11.28l-.35-.36a1.81,1.81,0,0,0,.93.13,10.68,10.68,0,0,1-5-7.73s0,0,0,0a10.68,10.68,0,0,1-5,7.73,1.81,1.81,0,0,0,.93-.13l-.35.36a1.49,1.49,0,0,0,1.11-.28l-.21.34a9.69,9.69,0,0,1-1.48,1,1.72,1.72,0,0,0,.93-.12l-.35.36a1.49,1.49,0,0,0,1.11-.28l-.22.35a1.58,1.58,0,0,0,.4-.07,13,13,0,0,1-1.53,1.64l-.34.21h.07a12.46,12.46,0,0,1-2,1.36,2.39,2.39,0,0,0,1.28-.17l-.48.49a1.92,1.92,0,0,0,.76,0,12.08,12.08,0,0,1-1.56,1,2.39,2.39,0,0,0,1.28-.17l-.48.49a2,2,0,0,0,1.24-.2A16.82,16.82,0,0,1,82.42,166a3.33,3.33,0,0,0,1.71-.23l-.65.65.32,0a14.67,14.67,0,0,1-1.38.87,3.23,3.23,0,0,0,1.71-.22l-.65.65a2.76,2.76,0,0,0,1.72-.31,17.22,17.22,0,0,1-2.78,2,3.11,3.11,0,0,0,1.44-.15,20.13,20.13,0,0,1-3.31,2.34,3.87,3.87,0,0,0,2-.27l-.78.79h0c-.42.28-.85.55-1.3.81a3.87,3.87,0,0,0,2-.27l-.78.78a3.21,3.21,0,0,0,1.15,0,21.13,21.13,0,0,1-2.42,1.6,3.87,3.87,0,0,0,2-.27l-.78.79.15,0a24.73,24.73,0,0,1-3.9,2.72,4.68,4.68,0,0,0,2.52-.33l-.11.11a23.14,23.14,0,0,1-2.41,1.55,4.81,4.81,0,0,0,2.52-.33l-1,1a3.4,3.4,0,0,0,.66,0,24.12,24.12,0,0,1-2.22,1.42A4.81,4.81,0,0,0,80.59,181.39Z" transform="translate(0.08)"/><path class="cls-28" d="M275.18,181l-1.13,1.13a4.62,4.62,0,0,0,1.25,0,6.44,6.44,0,0,0,1.91-.29l-.11.17-.43.44-.23.2.16,0-.77.62h24.55l-.77-.62.15,0-.22-.2-.44-.44-.11-.17a6.45,6.45,0,0,0,1.92.29,4.53,4.53,0,0,0,1.24,0L301,181a5.61,5.61,0,0,0,3,.39,30.59,30.59,0,0,1-2.61-1.66,4.07,4.07,0,0,0,.78-.05L301,178.59a5.61,5.61,0,0,0,3,.39,32,32,0,0,1-2.83-1.83L301,177a5.61,5.61,0,0,0,3,.39,29.78,29.78,0,0,1-4.58-3.21l.18,0-.92-.93a4.58,4.58,0,0,0,2.41.32,23.74,23.74,0,0,1-2.84-1.89,4.13,4.13,0,0,0,1.35.05l-.92-.93a4.58,4.58,0,0,0,2.41.32c-.53-.3-1-.62-1.53-.95h0l-.92-.92a4.58,4.58,0,0,0,2.41.32,24.29,24.29,0,0,1-3.89-2.75,3.53,3.53,0,0,0,1.69.17,20.25,20.25,0,0,1-3.27-2.31,3.26,3.26,0,0,0,2,.36l-.76-.77a3.86,3.86,0,0,0,2,.27,18.64,18.64,0,0,1-1.62-1l.37,0-.76-.77a3.76,3.76,0,0,0,2,.26,19.73,19.73,0,0,1-5.09-4.1,2.38,2.38,0,0,0,1.46.24l-.57-.57a3,3,0,0,0,1.5.2,15.36,15.36,0,0,1-1.83-1.23,2.3,2.3,0,0,0,.9,0l-.57-.57a2.85,2.85,0,0,0,1.5.19,14.53,14.53,0,0,1-2.29-1.6H294l-.4-.25a15.32,15.32,0,0,1-1.8-1.92,2.59,2.59,0,0,0,.47.08l-.26-.42a1.76,1.76,0,0,0,1.31.33l-.42-.42a2.08,2.08,0,0,0,1.1.15,11,11,0,0,1-1.74-1.22l-.25-.4a1.76,1.76,0,0,0,1.31.33l-.42-.42a2.08,2.08,0,0,0,1.1.15c-5-2.84-5.79-8.5-5.86-9.1h0c-.07.6-.83,6.26-5.86,9.1a2,2,0,0,0,1.09-.15l-.41.42a1.77,1.77,0,0,0,1.31-.33l-.25.4a11.43,11.43,0,0,1-1.74,1.22,2,2,0,0,0,1.09-.15l-.41.42a1.77,1.77,0,0,0,1.31-.33l-.26.42a2.74,2.74,0,0,0,.47-.08,16.1,16.1,0,0,1-1.8,1.92l-.4.25h.08a14.08,14.08,0,0,1-2.29,1.6,2.89,2.89,0,0,0,1.51-.19l-.58.57a2.35,2.35,0,0,0,.91,0,14.72,14.72,0,0,1-1.84,1.23,3,3,0,0,0,1.51-.2l-.58.57a2.38,2.38,0,0,0,1.46-.24,19.67,19.67,0,0,1-5.08,4.1,3.73,3.73,0,0,0,2-.26l-.76.77.38,0c-.52.36-1,.71-1.62,1a3.82,3.82,0,0,0,2-.27l-.76.77a3.25,3.25,0,0,0,2-.36,20.15,20.15,0,0,1-3.26,2.31,3.53,3.53,0,0,0,1.69-.17,24,24,0,0,1-3.9,2.75,4.62,4.62,0,0,0,2.42-.32l-.92.92h0c-.5.33-1,.65-1.54.95a4.62,4.62,0,0,0,2.42-.32l-.92.93a4.12,4.12,0,0,0,1.35-.05,24.71,24.71,0,0,1-2.85,1.89,4.62,4.62,0,0,0,2.42-.32l-.92.93.17,0a29.3,29.3,0,0,1-4.58,3.21,5.65,5.65,0,0,0,3-.39l-.13.12a29.28,29.28,0,0,1-2.83,1.83,5.65,5.65,0,0,0,3-.39l-1.13,1.13a4.13,4.13,0,0,0,.79.05,30.79,30.79,0,0,1-2.62,1.66A5.65,5.65,0,0,0,275.18,181Z" transform="translate(0.08)"/><path class="cls-29" d="M55.77,180.43l-1.42,1.43a5.49,5.49,0,0,0,1.57,0,7.9,7.9,0,0,0,2.42-.37l-.13.22-.55.55-.29.27.2,0-1,.78h31c-.33-.26-.66-.52-1-.78l.19,0-.28-.27-.55-.55-.14-.22a7.9,7.9,0,0,0,2.42.37,5.49,5.49,0,0,0,1.57,0l-1.42-1.43a7,7,0,0,0,3.74.49,35.77,35.77,0,0,1-3.3-2.1,5.58,5.58,0,0,0,1-.06l-1.42-1.43a7.12,7.12,0,0,0,3.74.5,38.57,38.57,0,0,1-3.58-2.31l-.16-.16a7,7,0,0,0,3.74.49,36.29,36.29,0,0,1-5.79-4l.22,0-1.16-1.16a5.8,5.8,0,0,0,3,.4,29.45,29.45,0,0,1-3.59-2.39,5.1,5.1,0,0,0,1.7.06l-1.16-1.17a5.8,5.8,0,0,0,3,.4c-.68-.38-1.32-.79-1.94-1.2h0l-1.16-1.16a5.8,5.8,0,0,0,3,.4,30,30,0,0,1-4.92-3.48,4.4,4.4,0,0,0,2.13.22,25,25,0,0,1-4.12-2.92,4.06,4.06,0,0,0,2.55.45l-1-1a4.85,4.85,0,0,0,2.53.33c-.72-.41-1.39-.84-2-1.3a4,4,0,0,0,.47,0l-1-1a4.81,4.81,0,0,0,2.53.34,25.12,25.12,0,0,1-6.42-5.19,3.05,3.05,0,0,0,1.84.31L80.4,152a3.54,3.54,0,0,0,1.9.25A17.67,17.67,0,0,1,80,150.7a3,3,0,0,0,1.14.05L80.4,150a3.67,3.67,0,0,0,1.9.25,19.13,19.13,0,0,1-2.9-2h.11c-.18-.1-.33-.22-.5-.32a19.88,19.88,0,0,1-2.28-2.43,2.42,2.42,0,0,0,.6.1l-.33-.52a2.18,2.18,0,0,0,1.66.41l-.53-.52a2.58,2.58,0,0,0,1.38.18,13.33,13.33,0,0,1-2.19-1.54l-.32-.51a2.22,2.22,0,0,0,1.66.42l-.53-.53a2.68,2.68,0,0,0,1.38.19c-6.35-3.58-7.31-10.74-7.4-11.49,0,0,0,0,0,0-.09.75-1,7.91-7.4,11.49a2.68,2.68,0,0,0,1.38-.19l-.53.53a2.22,2.22,0,0,0,1.66-.42l-.32.51a13.77,13.77,0,0,1-2.19,1.54,2.58,2.58,0,0,0,1.38-.18l-.53.52a2.18,2.18,0,0,0,1.66-.41l-.33.52a2.38,2.38,0,0,0,.59-.1,19,19,0,0,1-2.27,2.43l-.5.32h.1a19,19,0,0,1-2.89,2,3.67,3.67,0,0,0,1.9-.25l-.73.72a3,3,0,0,0,1.15-.05,17.67,17.67,0,0,1-2.32,1.55,3.53,3.53,0,0,0,1.9-.25l-.73.73a3.08,3.08,0,0,0,1.85-.31,25,25,0,0,1-6.43,5.19,4.85,4.85,0,0,0,2.54-.34l-1,1a4.37,4.37,0,0,0,.48,0,23.1,23.1,0,0,1-2,1.3,4.89,4.89,0,0,0,2.54-.33l-1,1a4.09,4.09,0,0,0,2.56-.45,24.72,24.72,0,0,1-4.13,2.92,4.44,4.44,0,0,0,2.14-.22,30.4,30.4,0,0,1-4.92,3.48,5.8,5.8,0,0,0,3.05-.4l-1.16,1.16h0c-.62.41-1.26.82-1.93,1.2a5.8,5.8,0,0,0,3.05-.4l-1.16,1.17a5.09,5.09,0,0,0,1.7-.06A29.45,29.45,0,0,1,55.72,171a5.8,5.8,0,0,0,3.05-.4l-1.16,1.16.22,0a36.29,36.29,0,0,1-5.79,4,7,7,0,0,0,3.73-.49l-.15.16A38.57,38.57,0,0,1,52,177.83a7.08,7.08,0,0,0,3.73-.5l-1.42,1.43a5.65,5.65,0,0,0,1,.06,38.68,38.68,0,0,1-3.3,2.1A7,7,0,0,0,55.77,180.43Z" transform="translate(0.08)"/><path class="cls-28" d="M14.11,231.26c-.64.37-1.25.74-1.85,1.1q2.09-1.8,4.45-3.81a251.33,251.33,0,0,1,30.53-22.47c9.55-5.9,17-9.32,16.95-9.35a138.63,138.63,0,0,0-18.25,6.91,146.29,146.29,0,0,0-32.8,20.68c-1.55,1.32-3,2.6-4.32,3.84,1.43-1.6,3-3.32,4.7-5.17a164.88,164.88,0,0,1,24.22-21.83,123.36,123.36,0,0,1,14.11-8.83,96.87,96.87,0,0,0-15.22,7.09,112.58,112.58,0,0,0-26.14,20.75c-1.08,1.18-2.08,2.32-3,3.42,1.33-2.24,2.78-4.63,4.38-7.18,3.61-5.75,7.67-11.78,12-17.45a183.92,183.92,0,0,1,13-15.36,153.67,153.67,0,0,1,15.56-14.25,116.67,116.67,0,0,0-17.66,12,131.54,131.54,0,0,0-14.94,14.31A133.25,133.25,0,0,0,6.6,213.11c-.55.87-1.06,1.72-1.56,2.56,1.29-3.43,2.72-7.33,4.3-11.78C13.76,191.42,19,177.26,24,166.51s9.27-18.21,9.23-18.22a155.61,155.61,0,0,0-11.95,16.76A195.08,195.08,0,0,0,3.5,201.8c-1.43,4-2.56,7.64-3.5,10.91v22.55H17.52c9.85-5.68,21.57-11.31,30.72-16,9.43-4.78,15.95-8.74,15.94-8.75s-7.06,2.81-17,6.39S24.54,225.19,14.11,231.26Z" transform="translate(0.08)"/><path class="cls-30" d="M63.24,231.42A45.47,45.47,0,0,1,78.62,220.1c-8.86.56-15.58,2.92-20.72,6.33a35,35,0,0,1,15.6-15C61.14,213,52.12,219.44,47,229.6c-.76-9.14-2.3-16.77-4.84-21.62-2.48,4.89-4,12.59-4.73,21.83-5.07-10.29-14.12-16.75-26.56-18.42A35.07,35.07,0,0,1,26.26,226c-5.05-3.17-11.55-5.34-20-5.88a45.41,45.41,0,0,1,15.39,11.33C15.82,229,8.8,227.83.71,228.21a44.46,44.46,0,0,1,13.82,7h55.8a44.46,44.46,0,0,1,13.82-7C76.07,227.84,69.05,229,63.24,231.42ZM22,231.86h0Z" transform="translate(0.08)"/><path class="cls-31" d="M115.12,235.16c.72-1,1.48-2,2.31-2.91a36.79,36.79,0,0,1,16.12-2.48,34.06,34.06,0,0,0-10.64,5.39Z" transform="translate(0.08)"/><path class="cls-32" d="M115.11,235.16H106.5c4.16-6,11-10.88,22.79-11.63A35.3,35.3,0,0,0,115.11,235.16Z" transform="translate(0.08)"/><path class="cls-30" d="M113.35,228.41a25.14,25.14,0,0,0-6.84,6.75h-3.26v0c3.34-10.32,11-16.82,22.1-18.31A27,27,0,0,0,113.35,228.41Z" transform="translate(0.08)"/><path class="cls-30" d="M103.25,235.13h0a30.9,30.9,0,0,1,1.75-4.28c-.58-7-1.76-12.92-3.72-16.65C99.37,218,98.2,223.9,97.63,231a31.65,31.65,0,0,1,1.71,4.21l0-.06h3.9Zm-3.88,0" transform="translate(0.08)"/><path class="cls-31" d="M80,235.16a34.12,34.12,0,0,0-10.63-5.39,36.79,36.79,0,0,1,16.12,2.48c.83.94,1.59,1.92,2.31,2.91Z" transform="translate(0.08)"/><path class="cls-31" d="M87.8,235.16a35.16,35.16,0,0,0-14.18-11.63c11.76.75,18.62,5.61,22.78,11.63Z" transform="translate(0.08)"/><path class="cls-32" d="M96.4,235.16A25.19,25.19,0,0,0,89,228.07,27,27,0,0,0,77.2,216.83c11.15,1.49,18.78,8,22.12,18.33Z" transform="translate(0.08)"/><path class="cls-31" d="M222.7,235.16a36.81,36.81,0,0,0-2.31-2.91,36.79,36.79,0,0,0-16.12-2.48,34.06,34.06,0,0,1,10.64,5.39Z" transform="translate(0.08)"/><path class="cls-32" d="M222.71,235.16h8.61c-4.16-6-11-10.88-22.79-11.63A35.23,35.23,0,0,1,222.71,235.16Z" transform="translate(0.08)"/><path class="cls-30" d="M224.48,228.41a25.24,25.24,0,0,1,6.83,6.75h3.26v0c-3.34-10.32-11-16.82-22.1-18.31A27.06,27.06,0,0,1,224.48,228.41Z" transform="translate(0.08)"/><path class="cls-30" d="M234.57,235.16h3.9l0,.06a30.33,30.33,0,0,1,1.7-4.21c-.57-7.11-1.74-13-3.65-16.8-1.95,3.73-3.14,9.61-3.72,16.65a30.9,30.9,0,0,1,1.75,4.28h0Zm3.88,0" transform="translate(0.08)"/><path class="cls-31" d="M257.83,235.16a34.12,34.12,0,0,1,10.63-5.39,36.79,36.79,0,0,0-16.12,2.48c-.83.94-1.58,1.92-2.31,2.91Z" transform="translate(0.08)"/><path class="cls-31" d="M250,235.16a35.23,35.23,0,0,1,14.18-11.63c-11.76.75-18.62,5.61-22.78,11.63Z" transform="translate(0.08)"/><path class="cls-32" d="M241.42,235.16a25.19,25.19,0,0,1,7.38-7.09,27,27,0,0,1,11.82-11.24c-11.15,1.49-18.78,8-22.11,18.33Z" transform="translate(0.08)"/><path class="cls-28" d="M321.88,231.26c.64.37,1.25.74,1.85,1.1-1.4-1.2-2.87-2.47-4.45-3.81a251.33,251.33,0,0,0-30.53-22.47c-9.55-5.9-17-9.32-17-9.35a137.81,137.81,0,0,1,18.26,6.91,146,146,0,0,1,32.79,20.68c1.56,1.32,3,2.6,4.33,3.84-1.43-1.6-3-3.32-4.7-5.17a165.39,165.39,0,0,0-24.22-21.83,121.89,121.89,0,0,0-14.12-8.83,96.7,96.7,0,0,1,15.23,7.09,112.74,112.74,0,0,1,26.13,20.75c1.09,1.18,2.09,2.32,3,3.42-1.33-2.24-2.78-4.63-4.38-7.18-3.61-5.75-7.67-11.78-12-17.45a182,182,0,0,0-13-15.36,153.67,153.67,0,0,0-15.56-14.25,116.67,116.67,0,0,1,17.66,12,131.54,131.54,0,0,1,14.94,14.31,133.17,133.17,0,0,1,13.16,17.47c.55.87,1.07,1.72,1.56,2.56-1.29-3.43-2.71-7.33-4.29-11.78-4.42-12.47-9.64-26.63-14.62-37.38s-9.27-18.21-9.23-18.22a159.05,159.05,0,0,1,11.95,16.76,195.67,195.67,0,0,1,17.73,36.75c1.44,4,2.57,7.64,3.51,10.91v22.55H318.47c-9.85-5.68-21.57-11.31-30.72-16-9.44-4.78-15.95-8.74-15.94-8.75s7.06,2.81,17,6.39S311.45,225.19,321.88,231.26Z" transform="translate(0.08)"/><path class="cls-30" d="M253,228.31a43.78,43.78,0,0,1,13.63,6.91h55a43.67,43.67,0,0,1,13.63-6.91c-8-.37-14.91.74-20.65,3.17a44.9,44.9,0,0,1,15.19-11.17c-8.34.53-14.76,2.68-19.74,5.79a34.66,34.66,0,0,1,15.14-14.38c-12.26,1.64-21.2,8-26.19,18.16-.73-9.11-2.22-16.7-4.67-21.52-2.51,4.78-4,12.3-4.77,21.32-5-10-13.91-16.33-26.09-18a34.6,34.6,0,0,1,15.38,14.83c-5.07-3.36-11.7-5.68-20.43-6.24a44.78,44.78,0,0,1,15.17,11.17C267.89,229.05,261,227.94,253,228.31Zm61.25,3.6Z" transform="translate(0.08)"/><path class="cls-33" d="M186.53,85.74H149.45A6.22,6.22,0,0,0,143.24,92v3.17c0-3.43,2.78-5.37,6.21-5.37h37.08c3.44,0,6.22,1.94,6.22,5.37V92A6.22,6.22,0,0,0,186.53,85.74Z" transform="translate(0.08)"/><path class="cls-28" d="M47,85.74H92.08a2.87,2.87,0,0,0-.67-1.39,3.21,3.21,0,0,0-2.38-1c-.9,0-1.48.74-2.2.82-.3,0-.6-.15-1-.23.18-1.43-1.45-2.46-2.78-2.24a2.4,2.4,0,0,0-1.11.5,2.8,2.8,0,0,0-3-1.34,4.63,4.63,0,0,0-3.28,2.46,1.69,1.69,0,0,0-2.07-.84,1.32,1.32,0,0,0-1.14-1.23c.43-1.5-1.19-2.85-2.63-2.81a2.38,2.38,0,0,0-1.23.36,2.34,2.34,0,0,0-1.7-1.61,2,2,0,0,0-1,.14,2.22,2.22,0,0,0-1.8-1.18,2.05,2.05,0,0,0-3.24-1.59,2.12,2.12,0,0,0-4.1.52,3,3,0,0,0-4.37,3.09,2.09,2.09,0,0,0-2.41,0c-1.27.88-.92,2.45-.36,3.68a2.69,2.69,0,0,0-2.28.93C46.56,83.82,47,84.8,47,85.74Z" transform="translate(0.08)"/><path class="cls-29" d="M.06,82.41v3.33H57.22a3.76,3.76,0,0,0-1.11-1.67,3.92,3.92,0,0,0-2.79-.74,3.11,3.11,0,0,0-3.86-1.8A1.84,1.84,0,0,0,47.6,80a2.73,2.73,0,0,0-2.43,1.61,1.45,1.45,0,0,0-2.23.09,2.49,2.49,0,0,0-2.63-1.28c-.5-2.18-2.73-3.09-4.79-2.75.39-3.21-3.47-5.54-6.52-5.22a8.11,8.11,0,0,0-2.51.86c-.76-1.76-3.56-1.22-5.46.21,0,0,0,0,0,0a2.47,2.47,0,0,0-3-.32l-.07,0a2.68,2.68,0,0,0-4.5-1,2.56,2.56,0,0,0-3.05-.46c-1.71.8-2.13,2.81-2.34,4.54a2.29,2.29,0,0,0-2.16,1.38,1.84,1.84,0,0,0-2.26.74,2.56,2.56,0,0,0-.31,2.13A3.93,3.93,0,0,0,.06,82.41Z" transform="translate(0.08)"/><path class="cls-27" d="M289.24,85.74H244.12a2.87,2.87,0,0,1,.67-1.39,3.21,3.21,0,0,1,2.39-1c.89,0,1.47.74,2.19.82.3,0,.6-.15.95-.23-.18-1.43,1.45-2.46,2.78-2.24a2.4,2.4,0,0,1,1.11.5,2.8,2.8,0,0,1,3-1.34,4.63,4.63,0,0,1,3.28,2.46,1.69,1.69,0,0,1,2.07-.84,1.32,1.32,0,0,1,1.15-1.23c-.43-1.5,1.18-2.85,2.62-2.81a2.38,2.38,0,0,1,1.23.36,2.34,2.34,0,0,1,1.7-1.61,2,2,0,0,1,1,.14,2.22,2.22,0,0,1,1.8-1.18,2.05,2.05,0,0,1,3.24-1.59,2.12,2.12,0,0,1,4.1.52,3,3,0,0,1,4.37,3.09,2.09,2.09,0,0,1,2.41,0c1.27.88.92,2.45.36,3.68a2.69,2.69,0,0,1,2.28.93C289.64,83.82,289.19,84.8,289.24,85.74Z" transform="translate(0.08)"/><path class="cls-26" d="M336.14,82.41v3.33H279a3.76,3.76,0,0,1,1.11-1.67,3.92,3.92,0,0,1,2.79-.74,3.11,3.11,0,0,1,3.86-1.8A1.84,1.84,0,0,1,288.6,80,2.73,2.73,0,0,1,291,81.59a1.45,1.45,0,0,1,2.23.09,2.49,2.49,0,0,1,2.63-1.28c.5-2.18,2.73-3.09,4.79-2.75-.39-3.21,3.47-5.54,6.52-5.22a8.11,8.11,0,0,1,2.51.86c.76-1.76,3.56-1.22,5.46.21,0,0,0,0,0,0a2.47,2.47,0,0,1,3-.32l.07,0a2.68,2.68,0,0,1,4.5-1,2.56,2.56,0,0,1,3-.46c1.71.8,2.13,2.81,2.34,4.54a2.29,2.29,0,0,1,2.16,1.38,1.84,1.84,0,0,1,2.26.74,2.56,2.56,0,0,1,.31,2.13A3.93,3.93,0,0,1,336.14,82.41Z" transform="translate(0.08)"/><path class="cls-34" d="M143.24,95.13V92a6.22,6.22,0,0,1,6.21-6.22H-.08v9.72H143.24Z" transform="translate(0.08)"/><path class="cls-35" d="M192.91,95.13V92a6.22,6.22,0,0,0-6.21-6.22H336.23v9.72H192.91Z" transform="translate(0.08)"/></svg>