<svg id="value-desktop" xmlns="http://www.w3.org/2000/svg" viewBox="0 0 1095 256"><rect x="0.77" width="4.37" height="54.61" style="fill:#414252"/><rect x="5.14" width="60.44" height="16.39" style="fill:#f2f2f1"/><rect x="62.42" width="4.37" height="54.61" style="fill:#414252"/><rect x="64.61" width="2.19" height="54.61" style="opacity:0.07999999821186066;isolation:isolate"/><rect x="3" width="2.19" height="54.61" style="opacity:0.07999999821186066;isolation:isolate"/><path d="M8.21,0H5.14V16.39h7.25Z" style="fill:#414252;opacity:0.12999999523162842;isolation:isolate"/><path d="M58.06,0l2.32,16.39h2V0Z" style="fill:#414252;opacity:0.12999999523162842;isolation:isolate"/><rect x="1010.68" width="4.37" height="54.61" style="fill:#414252"/><rect x="1015.04" width="60.44" height="16.39" style="fill:#f2f2f1"/><path d="M1076.7,54.61h-66l5,8.19h15.09v55.78a6.59,6.59,0,0,1-6.58,6.58H935.42a23.27,23.27,0,0,0-32.72-3.47,22.77,22.77,0,0,0-3.47,3.47H743.82a23.27,23.27,0,0,0-32.74-3.46,23.58,23.58,0,0,0-3.46,3.46H552.26a23.27,23.27,0,0,0-36.19,0H360.71A23.27,23.27,0,0,0,328,121.69a22.77,22.77,0,0,0-3.47,3.47H169.16a23.27,23.27,0,0,0-32.72-3.47,22.77,22.77,0,0,0-3.47,3.47H57.51a6.58,6.58,0,0,1-6.57-6.58V62.8H71.77l-5-8.19H.77l5,8.19H21.61v55.78a36,36,0,0,0,36,36H133A23.28,23.28,0,0,0,165.77,158a23.73,23.73,0,0,0,3.44-3.43H324.52A23.28,23.28,0,0,0,357.27,158a22.77,22.77,0,0,0,3.44-3.43H516a23.29,23.29,0,0,0,36.19,0h155.4a23.3,23.3,0,0,0,36.2,0H899.17A23.28,23.28,0,0,0,931.92,158a22.77,22.77,0,0,0,3.44-3.43h88.8a36,36,0,0,0,35.95-35.95V62.8h21.61Z" style="fill:#414252;opacity:0.3400000035762787;isolation:isolate"/><rect x="1015.04" width="4.09" height="4.09" style="fill:#6a7397"/><rect x="1019.13" y="4.09" width="4.09" height="4.09" style="fill:#6a7397"/><rect x="1015.04" y="8.19" width="4.09" height="4.09" style="fill:#6a7397"/><rect x="1019.13" y="12.28" width="4.09" height="4.09" style="fill:#6a7397"/><rect x="1023.22" width="4.09" height="4.09" style="fill:#6a7397"/><rect x="1027.32" y="4.09" width="4.09" height="4.09" style="fill:#6a7397"/><rect x="1023.22" y="8.19" width="4.09" height="4.09" style="fill:#6a7397"/><rect x="1027.32" y="12.28" width="4.09" height="4.09" style="fill:#6a7397"/><rect x="1031.41" width="4.09" height="4.09" style="fill:#6a7397"/><rect x="1035.5" y="4.09" width="4.09" height="4.09" style="fill:#6a7397"/><rect x="1031.41" y="8.19" width="4.09" height="4.09" style="fill:#6a7397"/><rect x="1035.5" y="12.28" width="4.09" height="4.09" style="fill:#6a7397"/><rect x="1039.6" width="4.09" height="4.09" style="fill:#6a7397"/><rect x="1043.68" y="4.09" width="4.09" height="4.09" style="fill:#6a7397"/><rect x="1039.6" y="8.19" width="4.09" height="4.09" style="fill:#6a7397"/><rect x="1043.68" y="12.28" width="4.09" height="4.09" style="fill:#6a7397"/><rect x="1047.78" width="4.09" height="4.09" style="fill:#6a7397"/><rect x="1051.87" y="4.09" width="4.09" height="4.09" style="fill:#6a7397"/><rect x="456.39" y="204.41" width="155.56" height="34.39" rx="16.98" style="fill:#34446b;opacity:0.20999999344348907;isolation:isolate"/><rect x="456.39" y="202.4" width="155.56" height="34.39" rx="16.98" style="fill:#6a7397"/><g style="isolation:isolate"><path d="M480.9,225.12l-.78-2.55h-3.89l-.78,2.55H473l3.77-10.74h2.77l3.79,10.74Zm-1.32-4.45c-.71-2.31-1.12-3.61-1.21-3.91s-.15-.55-.19-.72c-.16.62-.62,2.17-1.38,4.63Z" style="fill:#fff"/><path d="M493.56,219.67a5.27,5.27,0,0,1-1.5,4,6.13,6.13,0,0,1-4.34,1.41h-3v-10.7H488a5.65,5.65,0,0,1,4.07,1.38A5.09,5.09,0,0,1,493.56,219.67Zm-2.36.05q0-3.43-3-3.44H487v7h1Q491.2,223.24,491.2,219.72Z" style="fill:#fff"/><path d="M502.32,225.12l-.77-2.55h-3.9l-.78,2.55h-2.44l3.77-10.74H501l3.78,10.74ZM501,220.67c-.71-2.31-1.12-3.61-1.21-3.91s-.15-.55-.19-.72c-.16.62-.62,2.17-1.38,4.63Z" style="fill:#fff"/><path d="M513.5,217.76a3.27,3.27,0,0,1-1.08,2.64,4.61,4.61,0,0,1-3.07.91h-1v3.81h-2.27v-10.7h3.41a4.52,4.52,0,0,1,3,.84A3,3,0,0,1,513.5,217.76Zm-5.12,1.69h.74a2.47,2.47,0,0,0,1.57-.41,1.46,1.46,0,0,0,.52-1.2,1.49,1.49,0,0,0-.44-1.18,2,2,0,0,0-1.36-.38h-1Z" style="fill:#fff"/><path d="M519.64,225.12h-2.27v-8.81h-2.9v-1.89h8.07v1.89h-2.9Z" style="fill:#fff"/><path d="M530.73,225.12l-.77-2.55h-3.9l-.77,2.55h-2.45l3.78-10.74h2.77l3.79,10.74Zm-1.31-4.45c-.72-2.31-1.12-3.61-1.21-3.91s-.16-.55-.2-.72c-.16.62-.62,2.17-1.38,4.63Z" style="fill:#fff"/><path d="M534.52,214.42h3.33a6.39,6.39,0,0,1,3.3.65,2.25,2.25,0,0,1,1,2.06,2.58,2.58,0,0,1-.45,1.57,1.79,1.79,0,0,1-1.2.74v.07a2.38,2.38,0,0,1,1.47.85,2.78,2.78,0,0,1,.45,1.65,2.73,2.73,0,0,1-1.06,2.29,4.6,4.6,0,0,1-2.87.82h-4Zm2.27,4.24h1.32a2.38,2.38,0,0,0,1.33-.29,1,1,0,0,0,.41-.94.94.94,0,0,0-.45-.88,2.85,2.85,0,0,0-1.42-.27h-1.19Zm0,1.8v2.78h1.48a2.19,2.19,0,0,0,1.38-.36,1.29,1.29,0,0,0,.45-1.09c0-.89-.64-1.33-1.91-1.33Z" style="fill:#fff"/><path d="M544.59,225.12v-10.7h2.26v10.7Z" style="fill:#fff"/><path d="M549.54,225.12v-10.7h2.27v8.82h4.34v1.88Z" style="fill:#fff"/><path d="M558,225.12v-10.7h2.26v10.7Z" style="fill:#fff"/><path d="M571.84,219.67a5.24,5.24,0,0,1-1.51,4,6.09,6.09,0,0,1-4.34,1.41h-3v-10.7h3.35a5.67,5.67,0,0,1,4.07,1.38A5.13,5.13,0,0,1,571.84,219.67Zm-2.36.05q0-3.43-3-3.44h-1.21v7h1Q569.48,223.24,569.48,219.72Z" style="fill:#fff"/><path d="M580.6,225.12l-.78-2.55h-3.9l-.77,2.55h-2.44l3.77-10.74h2.77L583,225.12Zm-1.32-4.45c-.71-2.31-1.12-3.61-1.21-3.91s-.15-.55-.19-.72c-.16.62-.62,2.17-1.38,4.63Z" style="fill:#fff"/><path d="M593.26,219.67a5.27,5.27,0,0,1-1.5,4,6.13,6.13,0,0,1-4.34,1.41h-3v-10.7h3.36a5.64,5.64,0,0,1,4.06,1.38A5.09,5.09,0,0,1,593.26,219.67Zm-2.36.05q0-3.43-3-3.44h-1.2v7h1Q590.9,223.24,590.9,219.72Z" style="fill:#fff"/></g><rect x="255.84" y="48.91" width="173.55" height="34.39" rx="16.98" style="fill:#34446b;opacity:0.20999999344348907;isolation:isolate"/><path d="M272.82,46.93h139.6a17,17,0,0,1,17,17h0a17,17,0,0,1-17,17H272.82a17,17,0,0,1-17-17h0A17,17,0,0,1,272.82,46.93Z" style="fill:#6a7397"/><rect x="638.94" y="31.71" width="173.55" height="51.58" rx="25.46" style="fill:#34446b;opacity:0.20999999344348907;isolation:isolate"/><path d="M666.4,26.69H785A27.48,27.48,0,0,1,812.5,54.15h0A27.46,27.46,0,0,1,785,81.61H666.4a27.45,27.45,0,0,1-27.46-27.46h0A27.47,27.47,0,0,1,666.4,26.69Z" style="fill:#6a7397"/><rect x="827.24" y="204.41" width="186.59" height="51.58" rx="25.46" style="fill:#34446b;opacity:0.20999999344348907;isolation:isolate"/><path d="M854.7,199.4H986.35a27.47,27.47,0,0,1,27.46,27.46h0a27.46,27.46,0,0,1-27.46,27.46H854.7a27.45,27.45,0,0,1-27.46-27.46h0A27.46,27.46,0,0,1,854.7,199.4Z" style="fill:#6a7397"/><g style="isolation:isolate"><path d="M866,216.35a2.32,2.32,0,0,0-2,1,4.52,4.52,0,0,0-.7,2.68q0,3.57,2.69,3.57a8.27,8.27,0,0,0,2.72-.56v1.9a7.44,7.44,0,0,1-2.94.55,4.51,4.51,0,0,1-3.57-1.41A6,6,0,0,1,861,220a6.57,6.57,0,0,1,.61-2.92,4.28,4.28,0,0,1,1.74-1.92,5.14,5.14,0,0,1,2.67-.67,7.25,7.25,0,0,1,3.13.75l-.74,1.84a12.11,12.11,0,0,0-1.2-.49A3.64,3.64,0,0,0,866,216.35Z" style="fill:#fff"/><path d="M880.73,219.94a5.83,5.83,0,0,1-1.31,4.08,5.7,5.7,0,0,1-7.55,0,7,7,0,0,1,0-8.17,5.76,5.76,0,0,1,7.56,0A5.83,5.83,0,0,1,880.73,219.94Zm-7.8,0a4.47,4.47,0,0,0,.68,2.7,2.36,2.36,0,0,0,2,.91q2.72,0,2.72-3.61c0-2.4-.9-3.61-2.7-3.61a2.37,2.37,0,0,0-2,.91A4.44,4.44,0,0,0,872.93,219.94Z" style="fill:#fff"/><path d="M883,225.3V214.61h2.27v8.82h4.33v1.87Z" style="fill:#fff"/><path d="M898,225.3l-.78-2.54h-3.9l-.77,2.54h-2.44l3.77-10.73h2.77l3.79,10.73Zm-1.32-4.44c-.72-2.31-1.12-3.61-1.21-3.91s-.15-.55-.19-.72c-.16.62-.63,2.17-1.39,4.63Z" style="fill:#fff"/><path d="M901.75,214.61h3.32a6.46,6.46,0,0,1,3.31.65,2.26,2.26,0,0,1,1,2.06,2.58,2.58,0,0,1-.45,1.57,1.79,1.79,0,0,1-1.19.74v.07a2.38,2.38,0,0,1,1.46.85,3.11,3.11,0,0,1-.6,3.94,4.61,4.61,0,0,1-2.87.81h-4Zm2.26,4.24h1.32a2.38,2.38,0,0,0,1.33-.29,1,1,0,0,0,.42-.94.94.94,0,0,0-.45-.88,2.89,2.89,0,0,0-1.43-.27H904Zm0,1.8v2.78h1.48a2.19,2.19,0,0,0,1.38-.36,1.31,1.31,0,0,0,.45-1.09c0-.89-.64-1.33-1.9-1.33Z" style="fill:#fff"/><path d="M921.51,219.94A5.79,5.79,0,0,1,920.2,224a5.7,5.7,0,0,1-7.55,0,7,7,0,0,1,0-8.17,5.76,5.76,0,0,1,7.56,0A5.83,5.83,0,0,1,921.51,219.94Zm-7.8,0a4.47,4.47,0,0,0,.68,2.7,2.36,2.36,0,0,0,2,.91q2.72,0,2.72-3.61c0-2.4-.9-3.61-2.7-3.61a2.39,2.39,0,0,0-2,.91A4.44,4.44,0,0,0,913.71,219.94Z" style="fill:#fff"/><path d="M926,221.2v4.1h-2.27V214.61h3.11a5.33,5.33,0,0,1,3.23.8,2.81,2.81,0,0,1,1,2.41,2.87,2.87,0,0,1-.52,1.67,3.51,3.51,0,0,1-1.47,1.16c1.61,2.4,2.65,3.95,3.14,4.65h-2.51l-2.56-4.1Zm0-1.84h.73a2.81,2.81,0,0,0,1.59-.36,1.28,1.28,0,0,0,.51-1.13,1.18,1.18,0,0,0-.53-1.08,3.18,3.18,0,0,0-1.62-.32H926Z" style="fill:#fff"/><path d="M940.16,225.3l-.77-2.54h-3.9l-.78,2.54h-2.44l3.78-10.73h2.77l3.79,10.73Zm-1.31-4.44c-.72-2.31-1.12-3.61-1.21-3.91s-.16-.55-.2-.72c-.16.62-.62,2.17-1.38,4.63Z" style="fill:#fff"/><path d="M948.49,216.35a2.31,2.31,0,0,0-2,1,4.45,4.45,0,0,0-.7,2.68q0,3.57,2.68,3.57a8.32,8.32,0,0,0,2.73-.56v1.9a7.51,7.51,0,0,1-2.94.55,4.51,4.51,0,0,1-3.57-1.41,6,6,0,0,1-1.23-4.07,6.71,6.71,0,0,1,.6-2.92,4.36,4.36,0,0,1,1.75-1.92,5.1,5.1,0,0,1,2.66-.67,7.19,7.19,0,0,1,3.13.75l-.73,1.84a12.11,12.11,0,0,0-1.2-.49A3.7,3.7,0,0,0,948.49,216.35Z" style="fill:#fff"/><path d="M953.5,225.3V214.61h2.26V225.3Z" style="fill:#fff"/><path d="M968.16,219.94a5.79,5.79,0,0,1-1.32,4.08,5.68,5.68,0,0,1-7.54,0,7,7,0,0,1,0-8.17,5.74,5.74,0,0,1,7.55,0A5.79,5.79,0,0,1,968.16,219.94Zm-7.8,0a4.41,4.41,0,0,0,.68,2.7,2.36,2.36,0,0,0,2,.91q2.71,0,2.71-3.61c0-2.4-.9-3.61-2.7-3.61a2.39,2.39,0,0,0-2,.91A4.52,4.52,0,0,0,960.36,219.94Zm1.56-6.18v-.2a21.66,21.66,0,0,0,1.72-2.2h2.5v.15c-.25.25-.68.63-1.3,1.13s-1.09.87-1.43,1.12Z" style="fill:#fff"/><path d="M979.86,225.3H977l-4.65-8.08h-.07c.1,1.42.14,2.44.14,3.05v5h-2V214.61h2.86l4.64,8h0c-.07-1.39-.11-2.37-.11-3v-5.06h2Z" style="fill:#fff"/></g><g style="isolation:isolate"><path d="M842.5,235l2.23-4.4h2.45l-3.55,6.53v4.16h-2.25v-4.09l-3.55-6.6h2.46Z" style="fill:#fff"/><path d="M856.54,241.28h-2.27v-8.8h-2.9v-1.89h8.07v1.89h-2.9Z" style="fill:#fff"/><path d="M863.36,237.18v4.1h-2.27V230.59h3.11a5.33,5.33,0,0,1,3.23.79,2.82,2.82,0,0,1,1,2.41,2.88,2.88,0,0,1-.51,1.68,3.49,3.49,0,0,1-1.47,1.15q2.4,3.62,3.14,4.66h-2.52l-2.55-4.1Zm0-1.85h.73a2.78,2.78,0,0,0,1.58-.35,1.3,1.3,0,0,0,.52-1.13,1.16,1.16,0,0,0-.53-1.08,3.13,3.13,0,0,0-1.62-.32h-.68Z" style="fill:#fff"/><path d="M877.52,241.28l-.77-2.54h-3.9l-.78,2.54h-2.44l3.77-10.74h2.78L880,241.28Zm-1.31-4.45c-.72-2.3-1.13-3.61-1.22-3.91s-.15-.54-.19-.71q-.24.93-1.38,4.62Z" style="fill:#fff"/><path d="M881.31,230.59h3.33a6.34,6.34,0,0,1,3.3.65,2.25,2.25,0,0,1,1,2,2.62,2.62,0,0,1-.45,1.58,1.83,1.83,0,0,1-1.2.74v.07a2.33,2.33,0,0,1,1.47.85,2.74,2.74,0,0,1,.45,1.65,2.69,2.69,0,0,1-1.06,2.28,4.53,4.53,0,0,1-2.87.82h-4Zm2.27,4.23h1.31a2.43,2.43,0,0,0,1.34-.28,1.09,1.09,0,0,0,.41-.95.94.94,0,0,0-.45-.88,3,3,0,0,0-1.42-.26h-1.19Zm0,1.8v2.79h1.47a2.2,2.2,0,0,0,1.39-.36,1.34,1.34,0,0,0,.44-1.1c0-.88-.63-1.33-1.9-1.33Z" style="fill:#fff"/><path d="M897.92,241.28l-.78-2.54h-3.89l-.78,2.54H890l3.77-10.74h2.77l3.79,10.74Zm-1.32-4.45-1.21-3.91c-.09-.3-.15-.54-.19-.71q-.24.93-1.38,4.62Z" style="fill:#fff"/><path d="M900.59,244.43a5.29,5.29,0,0,1-1.34-.16v-1.89a4.31,4.31,0,0,0,1.07.14,1.19,1.19,0,0,0,1.06-.46,2.53,2.53,0,0,0,.33-1.45v-10H904v10a4.25,4.25,0,0,1-.85,2.86A3.2,3.2,0,0,1,900.59,244.43Z" style="fill:#fff"/><path d="M916.37,235.92a5.79,5.79,0,0,1-1.32,4.08,5.68,5.68,0,0,1-7.54,0,7,7,0,0,1,0-8.17,4.93,4.93,0,0,1,3.79-1.41,4.86,4.86,0,0,1,3.77,1.42A5.83,5.83,0,0,1,916.37,235.92Zm-7.8,0a4.43,4.43,0,0,0,.68,2.7,2.39,2.39,0,0,0,2,.91c1.81,0,2.71-1.21,2.71-3.61s-.9-3.61-2.69-3.61a2.4,2.4,0,0,0-2,.91A4.52,4.52,0,0,0,908.57,235.92Z" style="fill:#fff"/><path d="M928.64,241.28h-6.16V230.59h6.16v1.86h-3.89v2.34h3.62v1.86h-3.62v2.76h3.89Z" style="fill:#fff"/><path d="M940.35,241.28h-2.88l-4.65-8.09h-.07c.1,1.43.14,2.45.14,3.06v5h-2V230.59h2.86l4.64,8h0c-.07-1.39-.11-2.37-.11-2.95v-5.06h2Z" style="fill:#fff"/><path d="M953.09,241.28h-6.16V230.59h6.16v1.86H949.2v2.34h3.62v1.86H949.2v2.76h3.89Z" style="fill:#fff"/><path d="M965,235.92a6.69,6.69,0,0,1-.67,3.16,4.09,4.09,0,0,1-2,1.87l2.57,2.88h-2.9l-2-2.4h-.17a4.86,4.86,0,0,1-3.77-1.43,7,7,0,0,1,0-8.17,4.93,4.93,0,0,1,3.78-1.41,4.84,4.84,0,0,1,3.77,1.42A5.83,5.83,0,0,1,965,235.92Zm-7.8,0a4.43,4.43,0,0,0,.68,2.7,2.39,2.39,0,0,0,2,.91c1.81,0,2.71-1.21,2.71-3.61s-.9-3.61-2.7-3.61a2.39,2.39,0,0,0-2,.91A4.52,4.52,0,0,0,957.23,235.92Z" style="fill:#fff"/><path d="M976,230.59v6.92a4,4,0,0,1-.53,2.07,3.52,3.52,0,0,1-1.53,1.37,5.45,5.45,0,0,1-2.37.48,4.52,4.52,0,0,1-3.21-1.06,3.74,3.74,0,0,1-1.14-2.89v-6.89h2.26v6.54a2.77,2.77,0,0,0,.5,1.82,2.09,2.09,0,0,0,1.65.58,2,2,0,0,0,1.61-.59,2.75,2.75,0,0,0,.5-1.82v-6.53Z" style="fill:#fff"/><path d="M978.57,241.28V230.59h2.26v10.69Z" style="fill:#fff"/><path d="M990.91,233.92a3.27,3.27,0,0,1-1.08,2.64,4.6,4.6,0,0,1-3.06.92h-1v3.8h-2.26V230.59h3.41a4.54,4.54,0,0,1,3,.84A3,3,0,0,1,990.91,233.92Zm-5.12,1.7h.75a2.49,2.49,0,0,0,1.56-.41,1.73,1.73,0,0,0,.09-2.38,2,2,0,0,0-1.37-.38h-1Z" style="fill:#fff"/><path d="M1002.64,235.92a5.79,5.79,0,0,1-1.32,4.08,5.7,5.7,0,0,1-7.55,0,7,7,0,0,1,0-8.17,4.93,4.93,0,0,1,3.78-1.41,4.86,4.86,0,0,1,3.77,1.42A5.83,5.83,0,0,1,1002.64,235.92Zm-7.81,0a4.49,4.49,0,0,0,.68,2.7,2.41,2.41,0,0,0,2,.91c1.8,0,2.71-1.21,2.71-3.61s-.9-3.61-2.7-3.61a2.39,2.39,0,0,0-2,.91A4.44,4.44,0,0,0,994.83,235.92Z" style="fill:#fff"/></g><g style="isolation:isolate"><path d="M658.1,43.16a2.32,2.32,0,0,0-2,1,4.52,4.52,0,0,0-.7,2.68q0,3.57,2.69,3.57a8.27,8.27,0,0,0,2.72-.56v1.9a7.44,7.44,0,0,1-2.94.55,4.51,4.51,0,0,1-3.57-1.41,6,6,0,0,1-1.23-4.07,6.57,6.57,0,0,1,.61-2.92,4.28,4.28,0,0,1,1.74-1.92,5.14,5.14,0,0,1,2.67-.67,7.25,7.25,0,0,1,3.13.75l-.74,1.84a12.11,12.11,0,0,0-1.2-.49A3.64,3.64,0,0,0,658.1,43.16Z" style="fill:#fff"/><path d="M672.8,46.75a5.83,5.83,0,0,1-1.31,4.08,5.7,5.7,0,0,1-7.55,0,5.8,5.8,0,0,1-1.32-4.09,5.75,5.75,0,0,1,1.32-4.08,5.76,5.76,0,0,1,7.56,0A5.83,5.83,0,0,1,672.8,46.75Zm-7.8,0a4.47,4.47,0,0,0,.68,2.7,2.36,2.36,0,0,0,2,.91q2.71,0,2.72-3.61c0-2.4-.9-3.61-2.7-3.61a2.38,2.38,0,0,0-2,.91A4.44,4.44,0,0,0,665,46.75Z" style="fill:#fff"/><path d="M679.55,52.11,677,43.73h-.06c.09,1.7.14,2.84.14,3.41v5h-2V41.42h3.09l2.53,8.18h0l2.68-8.18h3.09V52.11h-2.11V47.05c0-.24,0-.51,0-.82s0-1.14.1-2.49h-.07l-2.76,8.37Z" style="fill:#fff"/><path d="M696.53,44.76a3.27,3.27,0,0,1-1.08,2.64,4.61,4.61,0,0,1-3.07.91h-1v3.8h-2.27V41.42h3.42a4.56,4.56,0,0,1,3,.84A3.07,3.07,0,0,1,696.53,44.76Zm-5.12,1.69h.75a2.46,2.46,0,0,0,1.56-.41,1.43,1.43,0,0,0,.52-1.2,1.49,1.49,0,0,0-.44-1.18,2,2,0,0,0-1.36-.38h-1Z" style="fill:#fff"/><path d="M700.81,48v4.1h-2.26V41.42h3.11a5.33,5.33,0,0,1,3.23.8,2.83,2.83,0,0,1,1,2.41,2.8,2.8,0,0,1-.52,1.67,3.39,3.39,0,0,1-1.47,1.16q2.41,3.6,3.15,4.65h-2.52L702,48Zm0-1.84h.74a2.77,2.77,0,0,0,1.58-.36,1.28,1.28,0,0,0,.51-1.13,1.17,1.17,0,0,0-.52-1.08,3.23,3.23,0,0,0-1.62-.32h-.69Z" style="fill:#fff"/><path d="M718.14,46.75a5.79,5.79,0,0,1-1.32,4.08,5.68,5.68,0,0,1-7.54,0A5.8,5.8,0,0,1,708,46.74a5.75,5.75,0,0,1,1.32-4.08,4.93,4.93,0,0,1,3.79-1.41,4.87,4.87,0,0,1,3.76,1.42A5.79,5.79,0,0,1,718.14,46.75Zm-7.8,0a4.41,4.41,0,0,0,.68,2.7,2.36,2.36,0,0,0,2,.91q2.72,0,2.71-3.61c0-2.4-.9-3.61-2.69-3.61a2.4,2.4,0,0,0-2.05.91A4.52,4.52,0,0,0,710.34,46.75Z" style="fill:#fff"/><path d="M724.88,52.11l-2.57-8.38h-.07c.1,1.7.14,2.84.14,3.41v5h-2V41.42h3.08L726,49.6h0l2.68-8.18h3.09V52.11h-2.12V47.05c0-.24,0-.51,0-.82s.05-1.14.1-2.49h-.06L727,52.11Z" style="fill:#fff"/><path d="M734.48,52.11V41.42h2.27V52.11Z" style="fill:#fff"/><path d="M745.75,49.15a2.78,2.78,0,0,1-1,2.28,4.57,4.57,0,0,1-2.9.83,6.82,6.82,0,0,1-3-.64V49.51a12.4,12.4,0,0,0,1.83.68,5.53,5.53,0,0,0,1.37.2,2,2,0,0,0,1.15-.29,1,1,0,0,0,.4-.85.91.91,0,0,0-.18-.55,2,2,0,0,0-.52-.48,12.17,12.17,0,0,0-1.38-.72,6.33,6.33,0,0,1-1.47-.89,3.19,3.19,0,0,1-.78-1,2.79,2.79,0,0,1-.3-1.32,2.75,2.75,0,0,1,1-2.23,4,4,0,0,1,2.65-.81,5.87,5.87,0,0,1,1.59.2,10.39,10.39,0,0,1,1.59.55L745,43.78a12.88,12.88,0,0,0-1.42-.49,4.65,4.65,0,0,0-1.1-.13,1.46,1.46,0,0,0-1,.3,1.05,1.05,0,0,0-.2,1.3,1.51,1.51,0,0,0,.44.43,12.78,12.78,0,0,0,1.44.75,5.71,5.71,0,0,1,2.05,1.44A2.82,2.82,0,0,1,745.75,49.15Z" style="fill:#fff"/><path d="M757.39,46.75a5.83,5.83,0,0,1-1.31,4.08,5.7,5.7,0,0,1-7.55,0,5.8,5.8,0,0,1-1.32-4.09,5.75,5.75,0,0,1,1.32-4.08,5.76,5.76,0,0,1,7.56,0A5.83,5.83,0,0,1,757.39,46.75Zm-7.8,0a4.47,4.47,0,0,0,.68,2.7,2.36,2.36,0,0,0,2,.91q2.72,0,2.72-3.61c0-2.4-.9-3.61-2.7-3.61a2.38,2.38,0,0,0-2,.91A4.44,4.44,0,0,0,749.59,46.75Z" style="fill:#fff"/><path d="M768,43.16a2.31,2.31,0,0,0-2,1,4.45,4.45,0,0,0-.7,2.68q0,3.57,2.68,3.57a8.37,8.37,0,0,0,2.73-.56v1.9a7.51,7.51,0,0,1-2.94.55,4.48,4.48,0,0,1-3.57-1.41A6,6,0,0,1,763,46.78a6.71,6.71,0,0,1,.61-2.92,4.36,4.36,0,0,1,1.75-1.92,5.08,5.08,0,0,1,2.66-.67,7.22,7.22,0,0,1,3.13.75l-.73,1.84a11.35,11.35,0,0,0-1.21-.49A3.6,3.6,0,0,0,768,43.16Z" style="fill:#fff"/><path d="M782.75,46.75a5.79,5.79,0,0,1-1.32,4.08,5.7,5.7,0,0,1-7.55,0,5.84,5.84,0,0,1-1.31-4.09,5.75,5.75,0,0,1,1.32-4.08,5.74,5.74,0,0,1,7.55,0A5.83,5.83,0,0,1,782.75,46.75Zm-7.8,0a4.41,4.41,0,0,0,.68,2.7,2.36,2.36,0,0,0,2,.91q2.72,0,2.71-3.61c0-2.4-.9-3.61-2.7-3.61a2.39,2.39,0,0,0-2,.91A4.45,4.45,0,0,0,775,46.75Z" style="fill:#fff"/><path d="M794.45,52.11h-2.88L786.92,44h-.07c.09,1.42.14,2.44.14,3v5h-2V41.42h2.86l4.65,8h0c-.07-1.39-.11-2.37-.11-3V41.42h2Z" style="fill:#fff"/></g><g style="isolation:isolate"><path d="M683,68.09V57.4h2.27v8.82h4.34v1.87Z" style="fill:#fff"/><path d="M698.05,68.09l-.78-2.54h-3.89l-.78,2.54h-2.44l3.77-10.73h2.77l3.79,10.73Zm-1.32-4.44-1.21-3.92c-.09-.3-.15-.54-.19-.71q-.24.93-1.38,4.63Z" style="fill:#fff"/><path d="M710.27,59.13a2.31,2.31,0,0,0-2,1,4.49,4.49,0,0,0-.71,2.68q0,3.58,2.69,3.58a8.65,8.65,0,0,0,2.73-.56v1.9a7.51,7.51,0,0,1-2.94.55,4.46,4.46,0,0,1-3.57-1.42,5.94,5.94,0,0,1-1.24-4.06,6.54,6.54,0,0,1,.61-2.92,4.34,4.34,0,0,1,1.74-1.92,5.14,5.14,0,0,1,2.67-.67,7.22,7.22,0,0,1,3.13.75l-.73,1.84c-.4-.19-.8-.35-1.21-.5A3.6,3.6,0,0,0,710.27,59.13Z" style="fill:#fff"/><path d="M721.82,68.09,721,65.55h-3.9l-.77,2.54h-2.44l3.77-10.73h2.77l3.79,10.73Zm-1.32-4.44-1.21-3.92c-.09-.3-.15-.54-.19-.71q-.24.93-1.39,4.63Z" style="fill:#fff"/><path d="M725.61,68.09V57.4h2.26v8.82h4.34v1.87Z" style="fill:#fff"/><path d="M734.07,68.09V57.4h2.27V68.09Z" style="fill:#fff"/><path d="M747.9,62.64a5.29,5.29,0,0,1-1.5,4,6.17,6.17,0,0,1-4.34,1.4h-3V57.4h3.35a5.65,5.65,0,0,1,4.07,1.38A5.07,5.07,0,0,1,747.9,62.64Zm-2.36.06q0-3.44-3-3.44h-1.21v7h1Q745.54,66.22,745.54,62.7Z" style="fill:#fff"/><path d="M756.66,68.09l-.78-2.54H752l-.78,2.54h-2.44l3.77-10.73h2.77l3.79,10.73Zm-1.32-4.44-1.21-3.92c-.09-.3-.15-.54-.19-.71q-.24.93-1.38,4.63Z" style="fill:#fff"/><path d="M769.32,62.64a5.29,5.29,0,0,1-1.5,4,6.17,6.17,0,0,1-4.34,1.4h-3V57.4h3.36a5.64,5.64,0,0,1,4.06,1.38A5.07,5.07,0,0,1,769.32,62.64ZM767,62.7q0-3.44-3-3.44h-1.2v7h1Q767,66.22,767,62.7Z" style="fill:#fff"/></g><g style="isolation:isolate"><path d="M269.78,69.61h-2.23V58.92h6.13v1.85h-3.9v2.76h3.63v1.85h-3.63Z" style="fill:#fff"/><path d="M285.48,64.25a5.79,5.79,0,0,1-1.32,4.08,5.7,5.7,0,0,1-7.55,0,5.87,5.87,0,0,1-1.31-4.1,5.73,5.73,0,0,1,1.32-4.07,4.93,4.93,0,0,1,3.78-1.41,4.86,4.86,0,0,1,3.77,1.42A5.8,5.8,0,0,1,285.48,64.25Zm-7.81,0a4.52,4.52,0,0,0,.68,2.7,2.41,2.41,0,0,0,2,.9q2.72,0,2.71-3.6t-2.7-3.61a2.39,2.39,0,0,0-2,.91A4.4,4.4,0,0,0,277.67,64.25Z" style="fill:#fff"/><path d="M292.24,60.65a2.32,2.32,0,0,0-2,1,4.54,4.54,0,0,0-.7,2.68q0,3.58,2.69,3.58a8.54,8.54,0,0,0,2.72-.56v1.9a7.63,7.63,0,0,1-2.94.55,4.52,4.52,0,0,1-3.57-1.42,6,6,0,0,1-1.23-4.06,6.54,6.54,0,0,1,.61-2.92,4.36,4.36,0,0,1,1.74-1.93,5.24,5.24,0,0,1,2.67-.67,7.13,7.13,0,0,1,3.13.76l-.74,1.84a12.21,12.21,0,0,0-1.2-.5A3.64,3.64,0,0,0,292.24,60.65Z" style="fill:#fff"/><path d="M306.94,64.25a5.83,5.83,0,0,1-1.31,4.08,5.7,5.7,0,0,1-7.55,0,5.82,5.82,0,0,1-1.32-4.1,5.73,5.73,0,0,1,1.32-4.07,4.93,4.93,0,0,1,3.79-1.41,4.86,4.86,0,0,1,3.77,1.42A5.8,5.8,0,0,1,306.94,64.25Zm-7.8,0a4.52,4.52,0,0,0,.68,2.7,2.38,2.38,0,0,0,2,.9q2.72,0,2.72-3.6t-2.7-3.61a2.39,2.39,0,0,0-2,.91A4.4,4.4,0,0,0,299.14,64.25Z" style="fill:#fff"/><path d="M319.21,69.61h-6.16V58.92h6.16v1.85h-3.89v2.35h3.62V65h-3.62v2.76h3.89Z" style="fill:#fff"/><path d="M330.92,69.61H328l-4.65-8.09h-.06c.09,1.43.13,2.45.13,3.06v5h-2V58.92h2.86l4.64,8H329c-.07-1.39-.11-2.38-.11-3V58.92h2Z" style="fill:#fff"/><path d="M343.67,69.61h-6.16V58.92h6.16v1.85h-3.9v2.35h3.62V65h-3.62v2.76h3.9Z" style="fill:#fff"/><path d="M345.9,69.61V58.92h2.26v8.82h4.34v1.87Z" style="fill:#fff"/><path d="M362.79,60.65a2.31,2.31,0,0,0-2,1,4.47,4.47,0,0,0-.7,2.68q0,3.58,2.68,3.58a8.65,8.65,0,0,0,2.73-.56v1.9a7.7,7.7,0,0,1-2.94.55A4.49,4.49,0,0,1,359,68.34a6,6,0,0,1-1.24-4.06,6.54,6.54,0,0,1,.61-2.92,4.42,4.42,0,0,1,1.74-1.93,5.24,5.24,0,0,1,2.67-.67,7.1,7.1,0,0,1,3.13.76l-.73,1.84a11.43,11.43,0,0,0-1.21-.5A3.6,3.6,0,0,0,362.79,60.65Z" style="fill:#fff"/><path d="M367.79,69.61V58.92h2.27v8.82h4.34v1.87Z" style="fill:#fff"/><path d="M376.25,69.61V58.92h2.27V69.61Z" style="fill:#fff"/><path d="M387.37,69.61h-6.16V58.92h6.16v1.85h-3.89v2.35h3.62V65h-3.62v2.76h3.89Z" style="fill:#fff"/><path d="M399.09,69.61h-2.88l-4.66-8.09h-.06c.09,1.43.14,2.45.14,3.06v5h-2V58.92h2.86l4.65,8h.05c-.08-1.39-.11-2.38-.11-3V58.92h2Z" style="fill:#fff"/><path d="M405.9,69.61h-2.26V60.8h-2.91V58.92h8.08V60.8H405.9Z" style="fill:#fff"/><path d="M416.61,69.61h-6.16V58.92h6.16v1.85h-3.89v2.35h3.62V65h-3.62v2.76h3.89Z" style="fill:#fff"/></g><rect x="99.18" y="204.41" width="103.77" height="34.39" rx="16.98" style="fill:#34446b;opacity:0.20999999344348907;isolation:isolate"/><path d="M116.15,202.4H186a17,17,0,0,1,17,17h0a17,17,0,0,1-17,17H116.15a17,17,0,0,1-17-17h0a17,17,0,0,1,17-17Z" style="fill:#6a7397"/><g style="isolation:isolate"><path d="M121.88,221v4.11h-2.26v-10.7h3.11a5.35,5.35,0,0,1,3.23.8,2.85,2.85,0,0,1,1,2.41,2.8,2.8,0,0,1-.52,1.67,3.39,3.39,0,0,1-1.47,1.16q2.42,3.6,3.15,4.66h-2.52L123.09,221Zm0-1.84h.73a2.79,2.79,0,0,0,1.59-.36,1.28,1.28,0,0,0,.51-1.13,1.17,1.17,0,0,0-.52-1.08,3.23,3.23,0,0,0-1.62-.32h-.69Z" style="fill:#fff"/><path d="M135.66,225.12H129.5v-10.7h6.16v1.86h-3.89v2.35h3.62v1.86h-3.62v2.75h3.89Z" style="fill:#fff"/><path d="M144.2,222.15a2.76,2.76,0,0,1-1,2.28,4.55,4.55,0,0,1-2.9.83,6.82,6.82,0,0,1-3-.64v-2.11a12.89,12.89,0,0,0,1.84.68,5.46,5.46,0,0,0,1.37.2,1.92,1.92,0,0,0,1.14-.29,1,1,0,0,0,.4-.84,1,1,0,0,0-.17-.56,2,2,0,0,0-.52-.48,13.68,13.68,0,0,0-1.39-.72,7,7,0,0,1-1.47-.88,3.71,3.71,0,0,1-.78-1,2.92,2.92,0,0,1-.29-1.32,2.77,2.77,0,0,1,1-2.23,4,4,0,0,1,2.66-.81,5.87,5.87,0,0,1,1.59.2,10.67,10.67,0,0,1,1.58.55l-.73,1.77a11.31,11.31,0,0,0-1.41-.5,4.71,4.71,0,0,0-1.1-.13,1.46,1.46,0,0,0-1,.3,1.08,1.08,0,0,0-.21,1.3,1.56,1.56,0,0,0,.45.43,13.27,13.27,0,0,0,1.43.75,5.77,5.77,0,0,1,2.06,1.44A2.81,2.81,0,0,1,144.2,222.15Z" style="fill:#fff"/><path d="M153.53,217.76a3.27,3.27,0,0,1-1.08,2.64,4.61,4.61,0,0,1-3.07.91h-1v3.81h-2.27v-10.7h3.42a4.56,4.56,0,0,1,3,.84A3.07,3.07,0,0,1,153.53,217.76Zm-5.12,1.69h.75a2.44,2.44,0,0,0,1.56-.41,1.43,1.43,0,0,0,.52-1.2,1.49,1.49,0,0,0-.44-1.18,2,2,0,0,0-1.36-.38h-1Z" style="fill:#fff"/><path d="M161.71,225.12h-6.16v-10.7h6.16v1.86h-3.89v2.35h3.62v1.86h-3.62v2.75h3.89Z" style="fill:#fff"/><path d="M168.06,225.12h-2.27v-8.81h-2.9v-1.89H171v1.89h-2.9Z" style="fill:#fff"/><path d="M182.32,219.75a5.79,5.79,0,0,1-1.32,4.08,5.7,5.7,0,0,1-7.55,0,7,7,0,0,1,0-8.17,5.74,5.74,0,0,1,7.55,0A5.83,5.83,0,0,1,182.32,219.75Zm-7.81,0a4.47,4.47,0,0,0,.68,2.7,2.38,2.38,0,0,0,2,.91c1.8,0,2.71-1.2,2.71-3.61s-.9-3.61-2.7-3.61a2.42,2.42,0,0,0-2,.91A4.44,4.44,0,0,0,174.51,219.75Z" style="fill:#fff"/></g><rect x="1047.78" y="8.19" width="4.09" height="4.09" style="fill:#6a7397"/><rect x="1051.87" y="12.28" width="4.09" height="4.09" style="fill:#6a7397"/><rect x="1055.97" width="4.09" height="4.09" style="fill:#6a7397"/><rect x="1060.06" y="4.09" width="4.09" height="4.09" style="fill:#6a7397"/><rect x="1055.97" y="8.19" width="4.09" height="4.09" style="fill:#6a7397"/><rect x="1060.06" y="12.28" width="4.09" height="4.09" style="fill:#6a7397"/><rect x="1064.15" width="4.09" height="4.09" style="fill:#6a7397"/><rect x="1068.24" y="4.09" width="4.09" height="4.09" style="fill:#6a7397"/><rect x="1064.15" y="8.19" width="4.09" height="4.09" style="fill:#6a7397"/><rect x="1068.24" y="12.28" width="4.09" height="4.09" style="fill:#6a7397"/><rect x="1072.33" width="4.37" height="54.61" style="fill:#414252"/><path d="M1018.11,0H1015V16.39h7.25Z" style="fill:#414252;opacity:0.12999999523162842;isolation:isolate"/><path d="M1068,0l2.32,16.39h2V0Z" style="fill:#414252;opacity:0.12999999523162842;isolation:isolate"/><rect x="1074.52" width="2.19" height="54.61" style="opacity:0.07999999821186066;isolation:isolate"/><rect x="1012.91" width="2.19" height="54.61" style="opacity:0.07999999821186066;isolation:isolate"/><circle cx="151.06" cy="139.32" r="7.34" style="fill:#fff"/><circle cx="151.06" cy="139.31" r="12.67" style="fill:none"/><circle cx="151.06" cy="139.31" r="13.17" style="fill:none;stroke:#fff;stroke-miterlimit:10"/><circle cx="342.62" cy="139.32" r="7.34" style="fill:#fff"/><circle cx="342.62" cy="139.31" r="12.67" style="fill:none"/><circle cx="342.62" cy="139.31" r="13.17" style="fill:none;stroke:#fff;stroke-miterlimit:10"/><circle cx="534.17" cy="139.32" r="7.34" style="fill:#fff"/><circle cx="534.17" cy="139.31" r="12.67" style="fill:none"/><circle cx="534.17" cy="139.31" r="13.17" style="fill:none;stroke:#fff;stroke-miterlimit:10"/><circle cx="725.72" cy="139.32" r="7.34" style="fill:#fff"/><circle cx="725.72" cy="139.31" r="12.67" style="fill:none"/><circle cx="725.72" cy="139.31" r="13.17" style="fill:none;stroke:#fff;stroke-miterlimit:10"/><circle cx="917.27" cy="139.32" r="7.34" style="fill:#fff"/><circle cx="917.27" cy="139.31" r="12.67" style="fill:none"/><circle cx="917.27" cy="139.31" r="13.17" style="fill:none;stroke:#fff;stroke-miterlimit:10"/><path d="M1045.4,72.89v45.16a21.24,21.24,0,0,1-21.24,21.24H940.92" style="fill:none;stroke:#fff;stroke-miterlimit:10;stroke-dasharray:6,6"/><path d="M36.27,72.89v45.16a21.24,21.24,0,0,0,21.24,21.24h64.9" style="fill:none;stroke:#fff;stroke-miterlimit:10;stroke-dasharray:6,6"/><line x1="316.76" y1="139.31" x2="174.06" y2="139.3" style="fill:none;stroke:#fff;stroke-miterlimit:10;stroke-dasharray:6,6"/><line x1="510.69" y1="139.31" x2="369.42" y2="139.31" style="fill:none;stroke:#fff;stroke-miterlimit:10;stroke-dasharray:6,6"/><line x1="703.65" y1="139.31" x2="560.93" y2="139.31" style="fill:none;stroke:#fff;stroke-miterlimit:10;stroke-dasharray:6,6"/><line x1="895.78" y1="139.31" x2="752.56" y2="139.31" style="fill:none;stroke:#fff;stroke-miterlimit:10;stroke-dasharray:6,6"/><line x1="151.06" y1="151.99" x2="151.06" y2="188.45" style="fill:none;stroke:#fff;stroke-miterlimit:10"/><line x1="342.62" y1="90.18" x2="342.62" y2="126.64" style="fill:none;stroke:#fff;stroke-miterlimit:10"/><line x1="534.17" y1="151.99" x2="534.17" y2="188.45" style="fill:none;stroke:#fff;stroke-miterlimit:10"/><line x1="725.72" y1="90.18" x2="725.72" y2="124.68" style="fill:none;stroke:#fff;stroke-miterlimit:10"/><line x1="917.27" y1="151.99" x2="917.27" y2="188.45" style="fill:none;stroke:#fff;stroke-miterlimit:10"/><path d="M155.26,74.17c0-2.41,1-2.62,1-4.4a5.7,5.7,0,1,0-11.39,0h0c0,1.8.57,1.94.57,4.44s-2.81,4-2.81,7.14a8,8,0,1,0,16,0C158.67,78.2,155.26,76.59,155.26,74.17Z" style="fill:#414252"/><rect x="149.54" y="78.47" width="2.26" height="16.78" style="fill:#d9c279"/><path d="M1090,139c0-3,1.29-3.27,1.29-5.47a7.08,7.08,0,0,0-14.15,0c0,2.23.71,2.4.71,5.52s-3.5,5-3.5,8.86a10,10,0,0,0,10,10h0a10,10,0,0,0,10-10h0C1094.19,144,1090,142,1090,139Z" style="fill:#414252"/><rect x="1082.89" y="144.37" width="2.8" height="20.83" style="fill:#d9c279"/><path d="M124.71,95.56l5.58-15.47,5.82,15.47Z" style="fill:#414252;opacity:0.3400000035762787;isolation:isolate"/><path d="M165.65,95.56l3.14-8.69,3.26,8.69Z" style="fill:#414252;opacity:0.3400000035762787;isolation:isolate"/><path d="M384.84,189.4l6.09-16.9,6.36,16.9Z" style="fill:#414252;opacity:0.3400000035762787;isolation:isolate"/><path d="M768.2,197.18,775.49,177l7.61,20.22Z" style="fill:#414252;opacity:0.3400000035762787;isolation:isolate"/><path d="M541.81,92,549,67.32,556.49,92Z" style="fill:#414252;opacity:0.3400000035762787;isolation:isolate"/><path d="M281.51,191l3.85-10.76L289.41,191Z" style="fill:#414252"/><path d="M758.2,203.35l3.32-9.22,3.48,9.22Z" style="fill:#414252"/><path d="M974,92.31,979.89,76l6.16,16.36Z" style="fill:#414252"/><path d="M400.07,198l2.78-7.71,2.89,7.71Z" style="fill:#414252"/><path d="M526.58,95.56l2.69-7.43,2.79,7.43Z" style="fill:#414252;opacity:0.3400000035762787;isolation:isolate"/><path d="M511.51,91.87l5.17-14.34,5.4,14.34Z" style="fill:#414252"/><path d="M659.9,198h0a9.7,9.7,0,0,1,9.7,9.71v8.61a9.7,9.7,0,0,1-9.7,9.7h0a9.7,9.7,0,0,1-9.71-9.7V207.7a9.72,9.72,0,0,1,9.68-9.74Z" style="fill:#414252"/><rect x="658.52" y="215.63" width="2.78" height="20.64" style="fill:#d9c279"/><rect x="857.98" y="61.97" width="20.91" height="30.16" rx="10.45" style="fill:#d9c279"/><rect x="866.95" y="81" width="2.99" height="22.24" style="fill:#414252"/><path d="M888.56,76h0a7,7,0,0,1,7,7v6.18a7,7,0,0,1-7,7h0a7,7,0,0,1-7-7V83a7,7,0,0,1,7-7Z" style="fill:#414252"/><rect x="887.56" y="88.68" width="2" height="14.88" style="fill:#d9c279"/><path d="M16.15,172.5h0a7.39,7.39,0,0,1,7.39,7.39v6.52a7.39,7.39,0,0,1-7.39,7.39h0a7.37,7.37,0,0,1-7.39-7.37v-6.54a7.37,7.37,0,0,1,7.37-7.39Z" style="fill:#414252"/><rect x="15.1" y="185.94" width="2.11" height="15.71" style="fill:#d9c279"/></svg>