<svg fill="#000000" xmlns="http://www.w3.org/2000/svg"  viewBox="0 0 26 26" width="26px" height="26px"><path d="M 13.03125 0 C 5.882813 0 0.0625 5.820313 0.0625 12.96875 C 0.0625 20.117188 5.882813 25.9375 13.03125 25.9375 C 20.179688 25.9375 26 20.117188 26 12.96875 C 26 5.820313 20.179688 0 13.03125 0 Z M 13.03125 0.59375 C 19.851563 0.59375 25.40625 6.148438 25.40625 12.96875 C 25.40625 19.789063 19.851563 25.34375 13.03125 25.34375 C 6.210938 25.34375 0.65625 19.789063 0.65625 12.96875 C 0.65625 6.148438 6.210938 0.59375 13.03125 0.59375 Z M 13.03125 1.84375 C 9.144531 1.84375 5.738281 3.824219 3.75 6.84375 C 4.011719 6.851563 4.257813 6.875 4.46875 6.875 C 5.632813 6.875 7.4375 6.71875 7.4375 6.71875 C 8.035156 6.683594 8.097656 7.585938 7.5 7.65625 C 7.5 7.65625 6.886719 7.714844 6.21875 7.75 L 10.28125 19.78125 L 12.71875 12.5 L 10.96875 7.75 C 10.371094 7.714844 9.8125 7.65625 9.8125 7.65625 C 9.210938 7.621094 9.277344 6.683594 9.875 6.71875 C 9.875 6.71875 11.71875 6.875 12.8125 6.875 C 13.976563 6.875 15.78125 6.71875 15.78125 6.71875 C 16.382813 6.683594 16.441406 7.585938 15.84375 7.65625 C 15.84375 7.65625 15.230469 7.714844 14.5625 7.75 L 18.59375 19.6875 L 19.6875 16 C 20.25 14.554688 20.53125 13.359375 20.53125 12.40625 C 20.53125 11.03125 20.050781 10.082031 19.625 9.34375 C 19.0625 8.425781 18.53125 7.636719 18.53125 6.71875 C 18.53125 5.699219 19.3125 4.75 20.40625 4.75 C 20.457031 4.75 20.511719 4.746094 20.5625 4.75 C 18.582031 2.9375 15.925781 1.84375 13.03125 1.84375 Z M 22.78125 7.625 C 22.832031 7.980469 22.875 8.371094 22.875 8.78125 C 22.875 9.910156 22.664063 11.164063 22.03125 12.75 L 18.625 22.5625 C 21.929688 20.632813 24.15625 17.070313 24.15625 12.96875 C 24.15625 11.035156 23.648438 9.207031 22.78125 7.625 Z M 2.875 8.4375 C 2.257813 9.820313 1.90625 11.355469 1.90625 12.96875 C 1.90625 17.371094 4.476563 21.164063 8.1875 22.96875 Z M 13.21875 13.9375 L 9.90625 23.625 C 10.902344 23.917969 11.9375 24.09375 13.03125 24.09375 C 14.324219 24.09375 15.5625 23.84375 16.71875 23.4375 C 16.691406 23.390625 16.679688 23.367188 16.65625 23.3125 Z"/></svg>